<svg version="1.1" viewBox="0.0 0.0 600.0 402.0" fill="none" stroke="none" stroke-linecap="square" stroke-miterlimit="10" width="600" height="402" xmlns:xlink="http://www.w3.org/1999/xlink" xmlns="http://www.w3.org/2000/svg"><path fill="#ffffff" d="M0 0L600.0 0L600.0 402.0L0 402.0L0 0Z" fill-rule="nonzero"/><path stroke="#cccccc" stroke-width="1.0" stroke-linecap="butt" d="M79.5 322.5L579.5 322.5" fill-rule="nonzero"/><path stroke="#cccccc" stroke-width="1.0" stroke-linecap="butt" d="M79.5 282.5L579.5 282.5" fill-rule="nonzero"/><path stroke="#cccccc" stroke-width="1.0" stroke-linecap="butt" d="M79.5 190.5L579.5 190.5" fill-rule="nonzero"/><path stroke="#cccccc" stroke-width="1.0" stroke-linecap="butt" d="M79.5 150.5L579.5 150.5" fill-rule="nonzero"/><path stroke="#cccccc" stroke-width="1.0" stroke-linecap="butt" d="M79.5 58.5L579.5 58.5" fill-rule="nonzero"/><clipPath id="id_0"><path d="M79.1 54.5L579.9 54.5L579.9 361.9L79.1 361.9L79.1 54.5Z" clip-rule="nonzero"/></clipPath><path stroke="#4285f4" stroke-width="2.0" stroke-linecap="butt" clip-path="url(#id_0)" d="M162.56667 117.738686L329.5 54.5L496.43332 109.28459" fill-rule="nonzero"/><path stroke="#ea4335" stroke-width="2.0" stroke-linecap="butt" clip-path="url(#id_0)" d="M162.56667 361.9L329.5 300.18384L496.43332 336.67892" fill-rule="nonzero"/><path stroke="#fbbc04" stroke-width="2.0" stroke-linecap="butt" clip-path="url(#id_0)" d="M162.56667 231.0918L329.5 199.0269L496.43332 241.99289" fill-rule="nonzero"/><path fill="#4285f4" clip-path="url(#id_0)" d="M162.56667 117.738686C162.56667 117.738686 162.56667 117.738686 162.56667 117.738686C162.56667 117.738686 162.56667 117.738686 162.56667 117.738686C162.56667 117.738686 162.56667 117.738686 162.56667 117.738686C162.56667 117.738686 162.56667 117.738686 162.56667 117.738686Z" fill-rule="nonzero"/><path fill="#4285f4" clip-path="url(#id_0)" d="M329.5 54.5C329.5 54.5 329.5 54.5 329.5 54.5C329.5 54.5 329.5 54.5 329.5 54.5C329.5 54.5 329.5 54.5 329.5 54.5C329.5 54.5 329.5 54.5 329.5 54.5Z" fill-rule="nonzero"/><path fill="#4285f4" clip-path="url(#id_0)" d="M496.43332 109.28459C496.43332 109.28459 496.43332 109.28459 496.43332 109.28459C496.43332 109.28459 496.43332 109.28459 496.43332 109.28459C496.43332 109.28459 496.43332 109.28459 496.43332 109.28459C496.43332 109.28459 496.43332 109.28459 496.43332 109.28459Z" fill-rule="nonzero"/><path fill="#000000" fill-opacity="0.0" clip-path="url(#id_0)" d="M165.56667 361.9C165.56667 363.55685 164.22353 364.9 162.56667 364.9C160.9098 364.9 159.56667 363.55685 159.56667 361.9C159.56667 360.24313 160.9098 358.9 162.56667 358.9C164.22353 358.9 165.56667 360.24313 165.56667 361.9Z" fill-rule="nonzero"/><path fill="#000000" fill-opacity="0.0" clip-path="url(#id_0)" d="M332.5 300.18384C332.5 301.8407 331.15686 303.18384 329.5 303.18384C327.84314 303.18384 326.5 301.8407 326.5 300.18384C326.5 298.52698 327.84314 297.18384 329.5 297.18384C331.15686 297.18384 332.5 298.52698 332.5 300.18384Z" fill-rule="nonzero"/><path fill="#000000" fill-opacity="0.0" clip-path="url(#id_0)" d="M499.43332 336.67892C499.43332 338.3358 498.09018 339.67892 496.43332 339.67892C494.7765 339.67892 493.43332 338.3358 493.43332 336.67892C493.43332 335.02206 494.7765 333.67892 496.43332 333.67892C498.09018 333.67892 499.43332 335.02206 499.43332 336.67892Z" fill-rule="nonzero"/><path fill="#000000" fill-opacity="0.0" clip-path="url(#id_0)" d="M165.56667 231.0918C165.56667 232.74866 164.22353 234.0918 162.56667 234.0918C160.9098 234.0918 159.56667 232.74866 159.56667 231.0918C159.56667 229.43495 160.9098 228.0918 162.56667 228.0918C164.22353 228.0918 165.56667 229.43495 165.56667 231.0918Z" fill-rule="nonzero"/><path fill="#000000" fill-opacity="0.0" clip-path="url(#id_0)" d="M332.5 199.0269C332.5 200.68376 331.15686 202.0269 329.5 202.0269C327.84314 202.0269 326.5 200.68376 326.5 199.0269C326.5 197.37004 327.84314 196.0269 329.5 196.0269C331.15686 196.0269 332.5 197.37004 332.5 199.0269Z" fill-rule="nonzero"/><path fill="#000000" fill-opacity="0.0" clip-path="url(#id_0)" d="M499.43332 241.99289C499.43332 243.64973 498.09018 244.99289 496.43332 244.99289C494.7765 244.99289 493.43332 243.64973 493.43332 241.99289C493.43332 240.33603 494.7765 238.99289 496.43332 238.99289C498.09018 238.99289 499.43332 240.33603 499.43332 241.99289Z" fill-rule="nonzero"/><path fill="#000000" d="M36.6 324.3419L37.709373 324.24814Q37.834373 325.06064 38.271873 325.4669Q38.725 325.87314 39.365623 325.87314Q40.115623 325.87314 40.646873 325.295Q41.178123 324.7169 41.178123 323.7794Q41.178123 322.87314 40.6625 322.3575Q40.1625 321.82626 39.334373 321.82626Q38.834373 321.82626 38.4125 322.06064Q38.00625 322.295 37.771873 322.6544L36.7875 322.5294L37.615623 318.12314L41.896873 318.12314L41.896873 319.12314L38.459373 319.12314L38.00625 321.43564Q38.771873 320.88876 39.615623 320.88876Q40.740623 320.88876 41.50625 321.67Q42.2875 322.45126 42.2875 323.68564Q42.2875 324.8419 41.615623 325.70126Q40.7875 326.7325 39.365623 326.7325Q38.19375 326.7325 37.44375 326.07626Q36.709373 325.42 36.6 324.3419ZM43.6 322.3575Q43.6 320.82626 43.9125 319.9044Q44.225 318.9669 44.834373 318.4669Q45.459373 317.9669 46.396873 317.9669Q47.084373 317.9669 47.6 318.24814Q48.13125 318.5294 48.475 319.06064Q48.81875 319.57626 49.00625 320.32626Q49.19375 321.07626 49.19375 322.3575Q49.19375 323.87314 48.88125 324.795Q48.584373 325.7169 47.959373 326.2325Q47.35 326.7325 46.396873 326.7325Q45.1625 326.7325 44.44375 325.8419Q43.6 324.7794 43.6 322.3575ZM44.678123 322.3575Q44.678123 324.4669 45.178123 325.17Q45.678123 325.87314 46.396873 325.87314Q47.13125 325.87314 47.615623 325.17Q48.115623 324.4669 48.115623 322.3575Q48.115623 320.2325 47.615623 319.545Q47.13125 318.8419 46.38125 318.8419Q45.6625 318.8419 45.225 319.45126Q44.678123 320.2325 44.678123 322.3575ZM50.1 326.5919L50.1 326.5919ZM52.6 322.3575Q52.6 320.82626 52.9125 319.9044Q53.225 318.9669 53.834373 318.4669Q54.459373 317.9669 55.396873 317.9669Q56.084373 317.9669 56.6 318.24814Q57.13125 318.5294 57.475 319.06064Q57.81875 319.57626 58.00625 320.32626Q58.19375 321.07626 58.19375 322.3575Q58.19375 323.87314 57.88125 324.795Q57.584373 325.7169 56.959373 326.2325Q56.35 326.7325 55.396873 326.7325Q54.1625 326.7325 53.44375 325.8419Q52.6 324.7794 52.6 322.3575ZM53.678123 322.3575Q53.678123 324.4669 54.178123 325.17Q54.678123 325.87314 55.396873 325.87314Q56.13125 325.87314 56.615623 325.17Q57.115623 324.4669 57.115623 322.3575Q57.115623 320.2325 56.615623 319.545Q56.13125 318.8419 55.38125 318.8419Q54.6625 318.8419 54.225 319.45126Q53.678123 320.2325 53.678123 322.3575ZM59.6 322.3575Q59.6 320.82626 59.9125 319.9044Q60.225 318.9669 60.834373 318.4669Q61.459373 317.9669 62.396873 317.9669Q63.084373 317.9669 63.6 318.24814Q64.13125 318.5294 64.475 319.06064Q64.81875 319.57626 65.00625 320.32626Q65.19375 321.07626 65.19375 322.3575Q65.19375 323.87314 64.88125 324.795Q64.58437 325.7169 63.959373 326.2325Q63.35 326.7325 62.396873 326.7325Q61.1625 326.7325 60.44375 325.8419Q59.6 324.7794 59.6 322.3575ZM60.678123 322.3575Q60.678123 324.4669 61.178123 325.17Q61.678123 325.87314 62.396873 325.87314Q63.13125 325.87314 63.615623 325.17Q64.11562 324.4669 64.11562 322.3575Q64.11562 320.2325 63.615623 319.545Q63.13125 318.8419 62.38125 318.8419Q61.6625 318.8419 61.225 319.45126Q60.678123 320.2325 60.678123 322.3575ZM66.6 322.3575Q66.6 320.82626 66.9125 319.9044Q67.225 318.9669 67.83437 318.4669Q68.45937 317.9669 69.39687 317.9669Q70.08437 317.9669 70.6 318.24814Q71.13125 318.5294 71.475 319.06064Q71.81875 319.57626 72.00625 320.32626Q72.19375 321.07626 72.19375 322.3575Q72.19375 323.87314 71.88125 324.795Q71.58437 325.7169 70.95937 326.2325Q70.35 326.7325 69.39687 326.7325Q68.1625 326.7325 67.44375 325.8419Q66.6 324.7794 66.6 322.3575ZM67.67812 322.3575Q67.67812 324.4669 68.17812 325.17Q68.67812 325.87314 69.39687 325.87314Q70.13125 325.87314 70.61562 325.17Q71.11562 324.4669 71.11562 322.3575Q71.11562 320.2325 70.61562 319.545Q70.13125 318.8419 69.38125 318.8419Q68.6625 318.8419 68.225 319.45126Q67.67812 320.2325 67.67812 322.3575Z" fill-rule="nonzero"/><path fill="#000000" d="M33.56875 286.85425L32.521873 286.85425L32.521873 280.1355Q32.13125 280.49487 31.50625 280.86987Q30.896875 281.22925 30.4125 281.40112L30.4125 280.3855Q31.2875 279.96362 31.94375 279.3855Q32.615623 278.79175 32.896873 278.22925L33.56875 278.22925L33.56875 286.85425ZM36.6 282.61987Q36.6 281.08862 36.9125 280.16675Q37.225 279.22925 37.834373 278.72925Q38.459373 278.22925 39.396873 278.22925Q40.084373 278.22925 40.6 278.5105Q41.13125 278.79175 41.475 279.323Q41.81875 279.83862 42.00625 280.58862Q42.19375 281.33862 42.19375 282.61987Q42.19375 284.1355 41.88125 285.05737Q41.584373 285.97925 40.959373 286.49487Q40.35 286.99487 39.396873 286.99487Q38.1625 286.99487 37.44375 286.10425Q36.6 285.04175 36.6 282.61987ZM37.678123 282.61987Q37.678123 284.72925 38.178123 285.43237Q38.678123 286.1355 39.396873 286.1355Q40.13125 286.1355 40.615623 285.43237Q41.115623 284.72925 41.115623 282.61987Q41.115623 280.49487 40.615623 279.80737Q40.13125 279.10425 39.38125 279.10425Q38.6625 279.10425 38.225 279.71362Q37.678123 280.49487 37.678123 282.61987ZM43.6 282.61987Q43.6 281.08862 43.9125 280.16675Q44.225 279.22925 44.834373 278.72925Q45.459373 278.22925 46.396873 278.22925Q47.084373 278.22925 47.6 278.5105Q48.13125 278.79175 48.475 279.323Q48.81875 279.83862 49.00625 280.58862Q49.19375 281.33862 49.19375 282.61987Q49.19375 284.1355 48.88125 285.05737Q48.584373 285.97925 47.959373 286.49487Q47.35 286.99487 46.396873 286.99487Q45.1625 286.99487 44.44375 286.10425Q43.6 285.04175 43.6 282.61987ZM44.678123 282.61987Q44.678123 284.72925 45.178123 285.43237Q45.678123 286.1355 46.396873 286.1355Q47.13125 286.1355 47.615623 285.43237Q48.115623 284.72925 48.115623 282.61987Q48.115623 280.49487 47.615623 279.80737Q47.13125 279.10425 46.38125 279.10425Q45.6625 279.10425 45.225 279.71362Q44.678123 280.49487 44.678123 282.61987ZM50.1 286.85425L50.1 286.85425ZM52.6 282.61987Q52.6 281.08862 52.9125 280.16675Q53.225 279.22925 53.834373 278.72925Q54.459373 278.22925 55.396873 278.22925Q56.084373 278.22925 56.6 278.5105Q57.13125 278.79175 57.475 279.323Q57.81875 279.83862 58.00625 280.58862Q58.19375 281.33862 58.19375 282.61987Q58.19375 284.1355 57.88125 285.05737Q57.584373 285.97925 56.959373 286.49487Q56.35 286.99487 55.396873 286.99487Q54.1625 286.99487 53.44375 286.10425Q52.6 285.04175 52.6 282.61987ZM53.678123 282.61987Q53.678123 284.72925 54.178123 285.43237Q54.678123 286.1355 55.396873 286.1355Q56.13125 286.1355 56.615623 285.43237Q57.115623 284.72925 57.115623 282.61987Q57.115623 280.49487 56.615623 279.80737Q56.13125 279.10425 55.38125 279.10425Q54.6625 279.10425 54.225 279.71362Q53.678123 280.49487 53.678123 282.61987ZM59.6 282.61987Q59.6 281.08862 59.9125 280.16675Q60.225 279.22925 60.834373 278.72925Q61.459373 278.22925 62.396873 278.22925Q63.084373 278.22925 63.6 278.5105Q64.13125 278.79175 64.475 279.323Q64.81875 279.83862 65.00625 280.58862Q65.19375 281.33862 65.19375 282.61987Q65.19375 284.1355 64.88125 285.05737Q64.58437 285.97925 63.959373 286.49487Q63.35 286.99487 62.396873 286.99487Q61.1625 286.99487 60.44375 286.10425Q59.6 285.04175 59.6 282.61987ZM60.678123 282.61987Q60.678123 284.72925 61.178123 285.43237Q61.678123 286.1355 62.396873 286.1355Q63.13125 286.1355 63.615623 285.43237Q64.11562 284.72925 64.11562 282.61987Q64.11562 280.49487 63.615623 279.80737Q63.13125 279.10425 62.38125 279.10425Q61.6625 279.10425 61.225 279.71362Q60.678123 280.49487 60.678123 282.61987ZM66.6 282.61987Q66.6 281.08862 66.9125 280.16675Q67.225 279.22925 67.83437 278.72925Q68.45937 278.22925 69.39687 278.22925Q70.08437 278.22925 70.6 278.5105Q71.13125 278.79175 71.475 279.323Q71.81875 279.83862 72.00625 280.58862Q72.19375 281.33862 72.19375 282.61987Q72.19375 284.1355 71.88125 285.05737Q71.58437 285.97925 70.95937 286.49487Q70.35 286.99487 69.39687 286.99487Q68.1625 286.99487 67.44375 286.10425Q66.6 285.04175 66.6 282.61987ZM67.67812 282.61987Q67.67812 284.72925 68.17812 285.43237Q68.67812 286.1355 69.39687 286.1355Q70.13125 286.1355 70.61562 285.43237Q71.11562 284.72925 71.11562 282.61987Q71.11562 280.49487 70.61562 279.80737Q70.13125 279.10425 69.38125 279.10425Q68.6625 279.10425 68.225 279.71362Q67.67812 280.49487 67.67812 282.61987Z" fill-rule="nonzero"/><path fill="#000000" d="M29.6 192.33635L30.709375 192.2426Q30.834375 193.0551 31.271875 193.46135Q31.725 193.8676 32.365623 193.8676Q33.115623 193.8676 33.646873 193.28947Q34.178123 192.71135 34.178123 191.77385Q34.178123 190.8676 33.6625 190.35197Q33.1625 189.82072 32.334373 189.82072Q31.834375 189.82072 31.4125 190.0551Q31.00625 190.28947 30.771875 190.64885L29.7875 190.52385L30.615625 186.1176L34.896873 186.1176L34.896873 187.1176L31.459375 187.1176L31.00625 189.4301Q31.771875 188.88322 32.615623 188.88322Q33.740623 188.88322 34.50625 189.66447Q35.2875 190.44572 35.2875 191.6801Q35.2875 192.83635 34.615623 193.69572Q33.7875 194.72697 32.365623 194.72697Q31.19375 194.72697 30.44375 194.07072Q29.709375 193.41447 29.6 192.33635ZM36.6 190.35197Q36.6 188.82072 36.9125 187.89885Q37.225 186.96135 37.834373 186.46135Q38.459373 185.96135 39.396873 185.96135Q40.084373 185.96135 40.6 186.2426Q41.13125 186.52385 41.475 187.0551Q41.81875 187.57072 42.00625 188.32072Q42.19375 189.07072 42.19375 190.35197Q42.19375 191.8676 41.88125 192.78947Q41.584373 193.71135 40.959373 194.22697Q40.35 194.72697 39.396873 194.72697Q38.1625 194.72697 37.44375 193.83635Q36.6 192.77385 36.6 190.35197ZM37.678123 190.35197Q37.678123 192.46135 38.178123 193.16447Q38.678123 193.8676 39.396873 193.8676Q40.13125 193.8676 40.615623 193.16447Q41.115623 192.46135 41.115623 190.35197Q41.115623 188.22697 40.615623 187.53947Q40.13125 186.83635 39.38125 186.83635Q38.6625 186.83635 38.225 187.44572Q37.678123 188.22697 37.678123 190.35197ZM43.6 190.35197Q43.6 188.82072 43.9125 187.89885Q44.225 186.96135 44.834373 186.46135Q45.459373 185.96135 46.396873 185.96135Q47.084373 185.96135 47.6 186.2426Q48.13125 186.52385 48.475 187.0551Q48.81875 187.57072 49.00625 188.32072Q49.19375 189.07072 49.19375 190.35197Q49.19375 191.8676 48.88125 192.78947Q48.584373 193.71135 47.959373 194.22697Q47.35 194.72697 46.396873 194.72697Q45.1625 194.72697 44.44375 193.83635Q43.6 192.77385 43.6 190.35197ZM44.678123 190.35197Q44.678123 192.46135 45.178123 193.16447Q45.678123 193.8676 46.396873 193.8676Q47.13125 193.8676 47.615623 193.16447Q48.115623 192.46135 48.115623 190.35197Q48.115623 188.22697 47.615623 187.53947Q47.13125 186.83635 46.38125 186.83635Q45.6625 186.83635 45.225 187.44572Q44.678123 188.22697 44.678123 190.35197ZM50.1 194.58635L50.1 194.58635ZM52.6 190.35197Q52.6 188.82072 52.9125 187.89885Q53.225 186.96135 53.834373 186.46135Q54.459373 185.96135 55.396873 185.96135Q56.084373 185.96135 56.6 186.2426Q57.13125 186.52385 57.475 187.0551Q57.81875 187.57072 58.00625 188.32072Q58.19375 189.07072 58.19375 190.35197Q58.19375 191.8676 57.88125 192.78947Q57.584373 193.71135 56.959373 194.22697Q56.35 194.72697 55.396873 194.72697Q54.1625 194.72697 53.44375 193.83635Q52.6 192.77385 52.6 190.35197ZM53.678123 190.35197Q53.678123 192.46135 54.178123 193.16447Q54.678123 193.8676 55.396873 193.8676Q56.13125 193.8676 56.615623 193.16447Q57.115623 192.46135 57.115623 190.35197Q57.115623 188.22697 56.615623 187.53947Q56.13125 186.83635 55.38125 186.83635Q54.6625 186.83635 54.225 187.44572Q53.678123 188.22697 53.678123 190.35197ZM59.6 190.35197Q59.6 188.82072 59.9125 187.89885Q60.225 186.96135 60.834373 186.46135Q61.459373 185.96135 62.396873 185.96135Q63.084373 185.96135 63.6 186.2426Q64.13125 186.52385 64.475 187.0551Q64.81875 187.57072 65.00625 188.32072Q65.19375 189.07072 65.19375 190.35197Q65.19375 191.8676 64.88125 192.78947Q64.58437 193.71135 63.959373 194.22697Q63.35 194.72697 62.396873 194.72697Q61.1625 194.72697 60.44375 193.83635Q59.6 192.77385 59.6 190.35197ZM60.678123 190.35197Q60.678123 192.46135 61.178123 193.16447Q61.678123 193.8676 62.396873 193.8676Q63.13125 193.8676 63.615623 193.16447Q64.11562 192.46135 64.11562 190.35197Q64.11562 188.22697 63.615623 187.53947Q63.13125 186.83635 62.38125 186.83635Q61.6625 186.83635 61.225 187.44572Q60.678123 188.22697 60.678123 190.35197ZM66.6 190.35197Q66.6 188.82072 66.9125 187.89885Q67.225 186.96135 67.83437 186.46135Q68.45937 185.96135 69.39687 185.96135Q70.08437 185.96135 70.6 186.2426Q71.13125 186.52385 71.475 187.0551Q71.81875 187.57072 72.00625 188.32072Q72.19375 189.07072 72.19375 190.35197Q72.19375 191.8676 71.88125 192.78947Q71.58437 193.71135 70.95937 194.22697Q70.35 194.72697 69.39687 194.72697Q68.1625 194.72697 67.44375 193.83635Q66.6 192.77385 66.6 190.35197ZM67.67812 190.35197Q67.67812 192.46135 68.17812 193.16447Q68.67812 193.8676 69.39687 193.8676Q70.13125 193.8676 70.61562 193.16447Q71.11562 192.46135 71.11562 190.35197Q71.11562 188.22697 70.61562 187.53947Q70.13125 186.83635 69.38125 186.83635Q68.6625 186.83635 68.225 187.44572Q67.67812 188.22697 67.67812 190.35197Z" fill-rule="nonzero"/><path fill="#000000" d="M24.56875 154.84872L23.521875 154.84872L23.521875 148.12997Q23.13125 148.48935 22.50625 148.86435Q21.896875 149.22372 21.4125 149.3956L21.4125 148.37997Q22.2875 147.9581 22.94375 147.37997Q23.615625 146.78622 23.896875 146.22372L24.56875 146.22372L24.56875 154.84872ZM27.1 154.84872L27.1 154.84872ZM29.6 150.61435Q29.6 149.0831 29.9125 148.16122Q30.225 147.22372 30.834375 146.72372Q31.459375 146.22372 32.396873 146.22372Q33.084373 146.22372 33.6 146.50497Q34.13125 146.78622 34.475 147.31747Q34.81875 147.8331 35.00625 148.5831Q35.19375 149.3331 35.19375 150.61435Q35.19375 152.12997 34.88125 153.05185Q34.584373 153.97372 33.959373 154.48935Q33.35 154.98935 32.396873 154.98935Q31.1625 154.98935 30.44375 154.09872Q29.6 153.03622 29.6 150.61435ZM30.678125 150.61435Q30.678125 152.72372 31.178125 153.42685Q31.678125 154.12997 32.396873 154.12997Q33.13125 154.12997 33.615623 153.42685Q34.115623 152.72372 34.115623 150.61435Q34.115623 148.48935 33.615623 147.80185Q33.13125 147.09872 32.38125 147.09872Q31.6625 147.09872 31.225 147.7081Q30.678125 148.48935 30.678125 150.61435ZM36.6 150.61435Q36.6 149.0831 36.9125 148.16122Q37.225 147.22372 37.834373 146.72372Q38.459373 146.22372 39.396873 146.22372Q40.084373 146.22372 40.6 146.50497Q41.13125 146.78622 41.475 147.31747Q41.81875 147.8331 42.00625 148.5831Q42.19375 149.3331 42.19375 150.61435Q42.19375 152.12997 41.88125 153.05185Q41.584373 153.97372 40.959373 154.48935Q40.35 154.98935 39.396873 154.98935Q38.1625 154.98935 37.44375 154.09872Q36.6 153.03622 36.6 150.61435ZM37.678123 150.61435Q37.678123 152.72372 38.178123 153.42685Q38.678123 154.12997 39.396873 154.12997Q40.13125 154.12997 40.615623 153.42685Q41.115623 152.72372 41.115623 150.61435Q41.115623 148.48935 40.615623 147.80185Q40.13125 147.09872 39.38125 147.09872Q38.6625 147.09872 38.225 147.7081Q37.678123 148.48935 37.678123 150.61435ZM43.6 150.61435Q43.6 149.0831 43.9125 148.16122Q44.225 147.22372 44.834373 146.72372Q45.459373 146.22372 46.396873 146.22372Q47.084373 146.22372 47.6 146.50497Q48.13125 146.78622 48.475 147.31747Q48.81875 147.8331 49.00625 148.5831Q49.19375 149.3331 49.19375 150.61435Q49.19375 152.12997 48.88125 153.05185Q48.584373 153.97372 47.959373 154.48935Q47.35 154.98935 46.396873 154.98935Q45.1625 154.98935 44.44375 154.09872Q43.6 153.03622 43.6 150.61435ZM44.678123 150.61435Q44.678123 152.72372 45.178123 153.42685Q45.678123 154.12997 46.396873 154.12997Q47.13125 154.12997 47.615623 153.42685Q48.115623 152.72372 48.115623 150.61435Q48.115623 148.48935 47.615623 147.80185Q47.13125 147.09872 46.38125 147.09872Q45.6625 147.09872 45.225 147.7081Q44.678123 148.48935 44.678123 150.61435ZM50.1 154.84872L50.1 154.84872ZM52.6 150.61435Q52.6 149.0831 52.9125 148.16122Q53.225 147.22372 53.834373 146.72372Q54.459373 146.22372 55.396873 146.22372Q56.084373 146.22372 56.6 146.50497Q57.13125 146.78622 57.475 147.31747Q57.81875 147.8331 58.00625 148.5831Q58.19375 149.3331 58.19375 150.61435Q58.19375 152.12997 57.88125 153.05185Q57.584373 153.97372 56.959373 154.48935Q56.35 154.98935 55.396873 154.98935Q54.1625 154.98935 53.44375 154.09872Q52.6 153.03622 52.6 150.61435ZM53.678123 150.61435Q53.678123 152.72372 54.178123 153.42685Q54.678123 154.12997 55.396873 154.12997Q56.13125 154.12997 56.615623 153.42685Q57.115623 152.72372 57.115623 150.61435Q57.115623 148.48935 56.615623 147.80185Q56.13125 147.09872 55.38125 147.09872Q54.6625 147.09872 54.225 147.7081Q53.678123 148.48935 53.678123 150.61435ZM59.6 150.61435Q59.6 149.0831 59.9125 148.16122Q60.225 147.22372 60.834373 146.72372Q61.459373 146.22372 62.396873 146.22372Q63.084373 146.22372 63.6 146.50497Q64.13125 146.78622 64.475 147.31747Q64.81875 147.8331 65.00625 148.5831Q65.19375 149.3331 65.19375 150.61435Q65.19375 152.12997 64.88125 153.05185Q64.58437 153.97372 63.959373 154.48935Q63.35 154.98935 62.396873 154.98935Q61.1625 154.98935 60.44375 154.09872Q59.6 153.03622 59.6 150.61435ZM60.678123 150.61435Q60.678123 152.72372 61.178123 153.42685Q61.678123 154.12997 62.396873 154.12997Q63.13125 154.12997 63.615623 153.42685Q64.11562 152.72372 64.11562 150.61435Q64.11562 148.48935 63.615623 147.80185Q63.13125 147.09872 62.38125 147.09872Q61.6625 147.09872 61.225 147.7081Q60.678123 148.48935 60.678123 150.61435ZM66.6 150.61435Q66.6 149.0831 66.9125 148.16122Q67.225 147.22372 67.83437 146.72372Q68.45937 146.22372 69.39687 146.22372Q70.08437 146.22372 70.6 146.50497Q71.13125 146.78622 71.475 147.31747Q71.81875 147.8331 72.00625 148.5831Q72.19375 149.3331 72.19375 150.61435Q72.19375 152.12997 71.88125 153.05185Q71.58437 153.97372 70.95937 154.48935Q70.35 154.98935 69.39687 154.98935Q68.1625 154.98935 67.44375 154.09872Q66.6 153.03622 66.6 150.61435ZM67.67812 150.61435Q67.67812 152.72372 68.17812 153.42685Q68.67812 154.12997 69.39687 154.12997Q70.13125 154.12997 70.61562 153.42685Q71.11562 152.72372 71.11562 150.61435Q71.11562 148.48935 70.61562 147.80185Q70.13125 147.09872 69.38125 147.09872Q68.6625 147.09872 68.225 147.7081Q67.67812 148.48935 67.67812 150.61435Z" fill-rule="nonzero"/><path fill="#000000" d="M20.6 60.330822L21.709375 60.237072Q21.834375 61.049572 22.271875 61.455822Q22.725 61.862072 23.365625 61.862072Q24.115625 61.862072 24.646875 61.283947Q25.178125 60.705822 25.178125 59.768322Q25.178125 58.862072 24.6625 58.346447Q24.1625 57.815197 23.334375 57.815197Q22.834375 57.815197 22.4125 58.049572Q22.00625 58.283947 21.771875 58.643322L20.7875 58.518322L21.615625 54.112072L25.896875 54.112072L25.896875 55.112072L22.459375 55.112072L22.00625 57.424572Q22.771875 56.877697 23.615625 56.877697Q24.740625 56.877697 25.50625 57.658947Q26.2875 58.440197 26.2875 59.674572Q26.2875 60.830822 25.615625 61.690197Q24.7875 62.721447 23.365625 62.721447Q22.19375 62.721447 21.44375 62.065197Q20.709375 61.408947 20.6 60.330822ZM27.1 62.580822L27.1 62.580822ZM29.6 58.346447Q29.6 56.815197 29.9125 55.893322Q30.225 54.955822 30.834375 54.455822Q31.459375 53.955822 32.396873 53.955822Q33.084373 53.955822 33.6 54.237072Q34.13125 54.518322 34.475 55.049572Q34.81875 55.565197 35.00625 56.315197Q35.19375 57.065197 35.19375 58.346447Q35.19375 59.862072 34.88125 60.783947Q34.584373 61.705822 33.959373 62.221447Q33.35 62.721447 32.396873 62.721447Q31.1625 62.721447 30.44375 61.830822Q29.6 60.768322 29.6 58.346447ZM30.678125 58.346447Q30.678125 60.455822 31.178125 61.158947Q31.678125 61.862072 32.396873 61.862072Q33.13125 61.862072 33.615623 61.158947Q34.115623 60.455822 34.115623 58.346447Q34.115623 56.221447 33.615623 55.533947Q33.13125 54.830822 32.38125 54.830822Q31.6625 54.830822 31.225 55.440197Q30.678125 56.221447 30.678125 58.346447ZM36.6 58.346447Q36.6 56.815197 36.9125 55.893322Q37.225 54.955822 37.834373 54.455822Q38.459373 53.955822 39.396873 53.955822Q40.084373 53.955822 40.6 54.237072Q41.13125 54.518322 41.475 55.049572Q41.81875 55.565197 42.00625 56.315197Q42.19375 57.065197 42.19375 58.346447Q42.19375 59.862072 41.88125 60.783947Q41.584373 61.705822 40.959373 62.221447Q40.35 62.721447 39.396873 62.721447Q38.1625 62.721447 37.44375 61.830822Q36.6 60.768322 36.6 58.346447ZM37.678123 58.346447Q37.678123 60.455822 38.178123 61.158947Q38.678123 61.862072 39.396873 61.862072Q40.13125 61.862072 40.615623 61.158947Q41.115623 60.455822 41.115623 58.346447Q41.115623 56.221447 40.615623 55.533947Q40.13125 54.830822 39.38125 54.830822Q38.6625 54.830822 38.225 55.440197Q37.678123 56.221447 37.678123 58.346447ZM43.6 58.346447Q43.6 56.815197 43.9125 55.893322Q44.225 54.955822 44.834373 54.455822Q45.459373 53.955822 46.396873 53.955822Q47.084373 53.955822 47.6 54.237072Q48.13125 54.518322 48.475 55.049572Q48.81875 55.565197 49.00625 56.315197Q49.19375 57.065197 49.19375 58.346447Q49.19375 59.862072 48.88125 60.783947Q48.584373 61.705822 47.959373 62.221447Q47.35 62.721447 46.396873 62.721447Q45.1625 62.721447 44.44375 61.830822Q43.6 60.768322 43.6 58.346447ZM44.678123 58.346447Q44.678123 60.455822 45.178123 61.158947Q45.678123 61.862072 46.396873 61.862072Q47.13125 61.862072 47.615623 61.158947Q48.115623 60.455822 48.115623 58.346447Q48.115623 56.221447 47.615623 55.533947Q47.13125 54.830822 46.38125 54.830822Q45.6625 54.830822 45.225 55.440197Q44.678123 56.221447 44.678123 58.346447ZM50.1 62.580822L50.1 62.580822ZM52.6 58.346447Q52.6 56.815197 52.9125 55.893322Q53.225 54.955822 53.834373 54.455822Q54.459373 53.955822 55.396873 53.955822Q56.084373 53.955822 56.6 54.237072Q57.13125 54.518322 57.475 55.049572Q57.81875 55.565197 58.00625 56.315197Q58.19375 57.065197 58.19375 58.346447Q58.19375 59.862072 57.88125 60.783947Q57.584373 61.705822 56.959373 62.221447Q56.35 62.721447 55.396873 62.721447Q54.1625 62.721447 53.44375 61.830822Q52.6 60.768322 52.6 58.346447ZM53.678123 58.346447Q53.678123 60.455822 54.178123 61.158947Q54.678123 61.862072 55.396873 61.862072Q56.13125 61.862072 56.615623 61.158947Q57.115623 60.455822 57.115623 58.346447Q57.115623 56.221447 56.615623 55.533947Q56.13125 54.830822 55.38125 54.830822Q54.6625 54.830822 54.225 55.440197Q53.678123 56.221447 53.678123 58.346447ZM59.6 58.346447Q59.6 56.815197 59.9125 55.893322Q60.225 54.955822 60.834373 54.455822Q61.459373 53.955822 62.396873 53.955822Q63.084373 53.955822 63.6 54.237072Q64.13125 54.518322 64.475 55.049572Q64.81875 55.565197 65.00625 56.315197Q65.19375 57.065197 65.19375 58.346447Q65.19375 59.862072 64.88125 60.783947Q64.58437 61.705822 63.959373 62.221447Q63.35 62.721447 62.396873 62.721447Q61.1625 62.721447 60.44375 61.830822Q59.6 60.768322 59.6 58.346447ZM60.678123 58.346447Q60.678123 60.455822 61.178123 61.158947Q61.678123 61.862072 62.396873 61.862072Q63.13125 61.862072 63.615623 61.158947Q64.11562 60.455822 64.11562 58.346447Q64.11562 56.221447 63.615623 55.533947Q63.13125 54.830822 62.38125 54.830822Q61.6625 54.830822 61.225 55.440197Q60.678123 56.221447 60.678123 58.346447ZM66.6 58.346447Q66.6 56.815197 66.9125 55.893322Q67.225 54.955822 67.83437 54.455822Q68.45937 53.955822 69.39687 53.955822Q70.08437 53.955822 70.6 54.237072Q71.13125 54.518322 71.475 55.049572Q71.81875 55.565197 72.00625 56.315197Q72.19375 57.065197 72.19375 58.346447Q72.19375 59.862072 71.88125 60.783947Q71.58437 61.705822 70.95937 62.221447Q70.35 62.721447 69.39687 62.721447Q68.1625 62.721447 67.44375 61.830822Q66.6 60.768322 66.6 58.346447ZM67.67812 58.346447Q67.67812 60.455822 68.17812 61.158947Q68.67812 61.862072 69.39687 61.862072Q70.13125 61.862072 70.61562 61.158947Q71.11562 60.455822 71.11562 58.346447Q71.11562 56.221447 70.61562 55.533947Q70.13125 54.830822 69.38125 54.830822Q68.6625 54.830822 68.225 55.440197Q67.67812 56.221447 67.67812 58.346447Z" fill-rule="nonzero"/><path fill="#000000" d="M154.61354 377.88437L154.61354 378.9L148.92604 378.9Q148.92604 378.525 149.05104 378.16562Q149.26979 377.5875 149.73854 377.025Q150.22292 376.4625 151.12917 375.72812Q152.53542 374.57187 153.01979 373.9Q153.51979 373.22812 153.51979 372.63437Q153.51979 372.00937 153.06667 371.5875Q152.61354 371.15 151.89479 371.15Q151.12917 371.15 150.67604 371.60312Q150.22292 372.05624 150.20729 372.86874L149.12917 372.75937Q149.23854 371.54062 149.95729 370.91562Q150.69167 370.275 151.92604 370.275Q153.16042 370.275 153.87917 370.9625Q154.59792 371.65 154.59792 372.66562Q154.59792 373.18124 154.37917 373.68124Q154.17604 374.16562 153.67604 374.72812Q153.19167 375.275 152.06667 376.22812Q151.11354 377.025 150.83229 377.32187Q150.56667 377.60312 150.39479 377.88437L154.61354 377.88437ZM156.06667 374.66562Q156.06667 373.13437 156.37917 372.2125Q156.69167 371.275 157.30104 370.775Q157.92604 370.275 158.86354 370.275Q159.55104 370.275 160.06667 370.55624Q160.59792 370.8375 160.94167 371.36874Q161.28542 371.88437 161.47292 372.63437Q161.66042 373.38437 161.66042 374.66562Q161.66042 376.18124 161.34792 377.10312Q161.05104 378.025 160.42604 378.54062Q159.81667 379.04062 158.86354 379.04062Q157.62917 379.04062 156.91042 378.15Q156.06667 377.0875 156.06667 374.66562ZM157.14479 374.66562Q157.14479 376.775 157.64479 377.47812Q158.14479 378.18124 158.86354 378.18124Q159.59792 378.18124 160.08229 377.47812Q160.58229 376.775 160.58229 374.66562Q160.58229 372.54062 160.08229 371.85312Q159.59792 371.15 158.84792 371.15Q158.12917 371.15 157.69167 371.75937Q157.14479 372.54062 157.14479 374.66562ZM167.03542 378.9L165.98854 378.9L165.98854 372.18124Q165.59792 372.54062 164.97292 372.91562Q164.36354 373.275 163.87917 373.44687L163.87917 372.43124Q164.75417 372.00937 165.41042 371.43124Q166.08229 370.8375 166.36354 370.275L167.03542 370.275L167.03542 378.9ZM175.61354 377.88437L175.61354 378.9L169.92604 378.9Q169.92604 378.525 170.05104 378.16562Q170.26979 377.5875 170.73854 377.025Q171.22292 376.4625 172.12917 375.72812Q173.53542 374.57187 174.01979 373.9Q174.51979 373.22812 174.51979 372.63437Q174.51979 372.00937 174.06667 371.5875Q173.61354 371.15 172.89479 371.15Q172.12917 371.15 171.67604 371.60312Q171.22292 372.05624 171.20729 372.86874L170.12917 372.75937Q170.23854 371.54062 170.95729 370.91562Q171.69167 370.275 172.92604 370.275Q174.16042 370.275 174.87917 370.9625Q175.59792 371.65 175.59792 372.66562Q175.59792 373.18124 175.37917 373.68124Q175.17604 374.16562 174.67604 374.72812Q174.19167 375.275 173.06667 376.22812Q172.11354 377.025 171.83229 377.32187Q171.56667 377.60312 171.39479 377.88437L175.61354 377.88437Z" fill-rule="nonzero"/><path fill="#000000" d="M321.54688 377.88437L321.54688 378.9L315.85938 378.9Q315.85938 378.525 315.98438 378.16562Q316.20312 377.5875 316.67188 377.025Q317.15625 376.4625 318.0625 375.72812Q319.46875 374.57187 319.95312 373.9Q320.45312 373.22812 320.45312 372.63437Q320.45312 372.00937 320.0 371.5875Q319.54688 371.15 318.82812 371.15Q318.0625 371.15 317.60938 371.60312Q317.15625 372.05624 317.14062 372.86874L316.0625 372.75937Q316.17188 371.54062 316.89062 370.91562Q317.625 370.275 318.85938 370.275Q320.09375 370.275 320.8125 370.9625Q321.53125 371.65 321.53125 372.66562Q321.53125 373.18124 321.3125 373.68124Q321.10938 374.16562 320.60938 374.72812Q320.125 375.275 319.0 376.22812Q318.04688 377.025 317.76562 377.32187Q317.5 377.60312 317.32812 377.88437L321.54688 377.88437ZM323.0 374.66562Q323.0 373.13437 323.3125 372.2125Q323.625 371.275 324.23438 370.775Q324.85938 370.275 325.79688 370.275Q326.48438 370.275 327.0 370.55624Q327.53125 370.8375 327.875 371.36874Q328.21875 371.88437 328.40625 372.63437Q328.59375 373.38437 328.59375 374.66562Q328.59375 376.18124 328.28125 377.10312Q327.98438 378.025 327.35938 378.54062Q326.75 379.04062 325.79688 379.04062Q324.5625 379.04062 323.84375 378.15Q323.0 377.0875 323.0 374.66562ZM324.07812 374.66562Q324.07812 376.775 324.57812 377.47812Q325.07812 378.18124 325.79688 378.18124Q326.53125 378.18124 327.01562 377.47812Q327.51562 376.775 327.51562 374.66562Q327.51562 372.54062 327.01562 371.85312Q326.53125 371.15 325.78125 371.15Q325.0625 371.15 324.625 371.75937Q324.07812 372.54062 324.07812 374.66562ZM333.96875 378.9L332.92188 378.9L332.92188 372.18124Q332.53125 372.54062 331.90625 372.91562Q331.29688 373.275 330.8125 373.44687L330.8125 372.43124Q331.6875 372.00937 332.34375 371.43124Q333.01562 370.8375 333.29688 370.275L333.96875 370.275L333.96875 378.9ZM337.0625 371.43124L337.0625 370.41562L342.625 370.41562L342.625 371.24374Q341.8125 372.11874 341.0 373.57187Q340.20312 375.00937 339.76562 376.54062Q339.4375 377.61874 339.35938 378.9L338.26562 378.9Q338.28125 377.88437 338.65625 376.44687Q339.04688 375.00937 339.75 373.68124Q340.46875 372.35312 341.28125 371.43124L337.0625 371.43124Z" fill-rule="nonzero"/><path fill="#000000" d="M488.4802 377.88437L488.4802 378.9L482.7927 378.9Q482.7927 378.525 482.9177 378.16562Q483.13644 377.5875 483.6052 377.025Q484.08957 376.4625 484.99582 375.72812Q486.40207 374.57187 486.88644 373.9Q487.38644 373.22812 487.38644 372.63437Q487.38644 372.00937 486.93332 371.5875Q486.4802 371.15 485.76144 371.15Q484.99582 371.15 484.5427 371.60312Q484.08957 372.05624 484.07394 372.86874L482.99582 372.75937Q483.1052 371.54062 483.82394 370.91562Q484.55832 370.275 485.7927 370.275Q487.02707 370.275 487.74582 370.9625Q488.46457 371.65 488.46457 372.66562Q488.46457 373.18124 488.24582 373.68124Q488.0427 374.16562 487.5427 374.72812Q487.05832 375.275 485.93332 376.22812Q484.9802 377.025 484.69894 377.32187Q484.43332 377.60312 484.26144 377.88437L488.4802 377.88437ZM489.93332 374.66562Q489.93332 373.13437 490.24582 372.2125Q490.55832 371.275 491.1677 370.775Q491.7927 370.275 492.7302 370.275Q493.4177 370.275 493.93332 370.55624Q494.46457 370.8375 494.80832 371.36874Q495.15207 371.88437 495.33957 372.63437Q495.52707 373.38437 495.52707 374.66562Q495.52707 376.18124 495.21457 377.10312Q494.9177 378.025 494.2927 378.54062Q493.68332 379.04062 492.7302 379.04062Q491.49582 379.04062 490.77707 378.15Q489.93332 377.0875 489.93332 374.66562ZM491.01144 374.66562Q491.01144 376.775 491.51144 377.47812Q492.01144 378.18124 492.7302 378.18124Q493.46457 378.18124 493.94894 377.47812Q494.44894 376.775 494.44894 374.66562Q494.44894 372.54062 493.94894 371.85312Q493.46457 371.15 492.71457 371.15Q491.99582 371.15 491.55832 371.75937Q491.01144 372.54062 491.01144 374.66562ZM502.4802 377.88437L502.4802 378.9L496.7927 378.9Q496.7927 378.525 496.9177 378.16562Q497.13644 377.5875 497.6052 377.025Q498.08957 376.4625 498.99582 375.72812Q500.40207 374.57187 500.88644 373.9Q501.38644 373.22812 501.38644 372.63437Q501.38644 372.00937 500.93332 371.5875Q500.4802 371.15 499.76144 371.15Q498.99582 371.15 498.5427 371.60312Q498.08957 372.05624 498.07394 372.86874L496.99582 372.75937Q497.1052 371.54062 497.82394 370.91562Q498.55832 370.275 499.7927 370.275Q501.02707 370.275 501.74582 370.9625Q502.46457 371.65 502.46457 372.66562Q502.46457 373.18124 502.24582 373.68124Q502.0427 374.16562 501.5427 374.72812Q501.05832 375.275 499.93332 376.22812Q498.9802 377.025 498.69894 377.32187Q498.43332 377.60312 498.26144 377.88437L502.4802 377.88437ZM509.4802 377.88437L509.4802 378.9L503.7927 378.9Q503.7927 378.525 503.9177 378.16562Q504.13644 377.5875 504.6052 377.025Q505.08957 376.4625 505.99582 375.72812Q507.40207 374.57187 507.88644 373.9Q508.38644 373.22812 508.38644 372.63437Q508.38644 372.00937 507.93332 371.5875Q507.4802 371.15 506.76144 371.15Q505.99582 371.15 505.5427 371.60312Q505.08957 372.05624 505.07394 372.86874L503.99582 372.75937Q504.1052 371.54062 504.82394 370.91562Q505.55832 370.275 506.7927 370.275Q508.02707 370.275 508.74582 370.9625Q509.46457 371.65 509.46457 372.66562Q509.46457 373.18124 509.24582 373.68124Q509.0427 374.16562 508.5427 374.72812Q508.05832 375.275 506.93332 376.22812Q505.9802 377.025 505.69894 377.32187Q505.43332 377.60312 505.26144 377.88437L509.4802 377.88437Z" fill-rule="nonzero"/><path stroke="#4285f4" stroke-width="4.0" stroke-linecap="butt" d="M132.5 27.1L144.5 27.1" fill-rule="nonzero"/><path fill="#1a1a1a" d="M153.26562 31.1L153.26562 22.50625L154.32812 22.50625L154.32812 31.1L153.26562 31.1ZM156.29688 23.725L156.29688 22.50625L157.35938 22.50625L157.35938 23.725L156.29688 23.725ZM156.29688 31.1L156.29688 24.88125L157.35938 24.88125L157.35938 31.1L156.29688 31.1ZM163.54688 29.1L164.64062 29.225Q164.39062 30.178125 163.6875 30.709375Q162.98438 31.240625 161.90625 31.240625Q160.54688 31.240625 159.73438 30.396875Q158.9375 29.553125 158.9375 28.0375Q158.9375 26.475 159.75 25.615625Q160.5625 24.740625 161.84375 24.740625Q163.09375 24.740625 163.875 25.584375Q164.67188 26.428125 164.67188 27.975Q164.67188 28.06875 164.67188 28.25625L160.03125 28.25625Q160.09375 29.2875 160.60938 29.834375Q161.125 30.365625 161.90625 30.365625Q162.48438 30.365625 162.89062 30.06875Q163.3125 29.75625 163.54688 29.1ZM160.09375 27.396875L163.5625 27.396875Q163.5 26.6 163.17188 26.209375Q162.65625 25.6 161.85938 25.6Q161.125 25.6 160.625 26.084375Q160.14062 26.56875 160.09375 27.396875ZM166.29688 31.1L166.29688 24.88125L167.23438 24.88125L167.23438 25.75625Q167.92188 24.740625 169.21875 24.740625Q169.78125 24.740625 170.25 24.94375Q170.73438 25.146875 170.96875 25.475Q171.20312 25.803125 171.29688 26.240625Q171.34375 26.5375 171.34375 27.271875L171.34375 31.1L170.29688 31.1L170.29688 27.31875Q170.29688 26.6625 170.17188 26.35Q170.04688 26.0375 169.73438 25.85Q169.42188 25.646875 169.0 25.646875Q168.32812 25.646875 167.82812 26.084375Q167.34375 26.50625 167.34375 27.69375L167.34375 31.1L166.29688 31.1ZM172.875 29.240625L173.90625 29.084375Q174.0 29.709375 174.39062 30.0375Q174.79688 30.365625 175.53125 30.365625Q176.25 30.365625 176.59375 30.084375Q176.95312 29.7875 176.95312 29.38125Q176.95312 29.021875 176.64062 28.81875Q176.42188 28.678125 175.5625 28.459375Q174.40625 28.1625 173.95312 27.959375Q173.51562 27.740625 173.28125 27.365625Q173.04688 26.990625 173.04688 26.521875Q173.04688 26.115625 173.23438 25.75625Q173.42188 25.396875 173.75 25.1625Q174.0 24.990625 174.42188 24.865625Q174.84375 24.740625 175.34375 24.740625Q176.0625 24.740625 176.60938 24.959375Q177.17188 25.1625 177.4375 25.521875Q177.70312 25.88125 177.79688 26.475L176.76562 26.615625Q176.70312 26.146875 176.35938 25.88125Q176.03125 25.6 175.40625 25.6Q174.6875 25.6 174.375 25.85Q174.0625 26.084375 174.0625 26.4125Q174.0625 26.615625 174.1875 26.771875Q174.32812 26.94375 174.59375 27.053125Q174.75 27.115625 175.53125 27.31875Q176.65625 27.63125 177.09375 27.81875Q177.53125 28.00625 177.78125 28.365625Q178.03125 28.725 178.03125 29.271875Q178.03125 29.803125 177.71875 30.271875Q177.42188 30.725 176.84375 30.990625Q176.26562 31.240625 175.53125 31.240625Q174.3125 31.240625 173.67188 30.740625Q173.04688 30.225 172.875 29.240625ZM185.59375 30.1625L185.75 31.084375Q185.29688 31.178125 184.95312 31.178125Q184.375 31.178125 184.0625 31.00625Q183.75 30.81875 183.60938 30.521875Q183.48438 30.225 183.48438 29.271875L183.48438 25.69375L182.71875 25.69375L182.71875 24.88125L183.48438 24.88125L183.48438 23.334375L184.53125 22.709375L184.53125 24.88125L185.59375 24.88125L185.59375 25.69375L184.53125 25.69375L184.53125 29.334375Q184.53125 29.7875 184.57812 29.9125Q184.64062 30.0375 184.76562 30.115625Q184.89062 30.19375 185.125 30.19375Q185.3125 30.19375 185.59375 30.1625ZM186.28125 31.1L186.28125 24.88125L187.23438 24.88125L187.23438 25.81875Q187.59375 25.1625 187.89062 24.959375Q188.20312 24.740625 188.57812 24.740625Q189.10938 24.740625 189.65625 25.06875L189.29688 26.053125Q188.90625 25.81875 188.53125 25.81875Q188.17188 25.81875 187.89062 26.0375Q187.625 26.240625 187.51562 26.615625Q187.32812 27.178125 187.32812 27.834375L187.32812 31.1L186.28125 31.1ZM189.90625 27.990625Q189.90625 26.25625 190.85938 25.428125Q191.65625 24.740625 192.8125 24.740625Q194.09375 24.740625 194.90625 25.584375Q195.73438 26.4125 195.73438 27.896875Q195.73438 29.1 195.375 29.7875Q195.01562 30.475 194.3125 30.865625Q193.625 31.240625 192.8125 31.240625Q191.51562 31.240625 190.70312 30.4125Q189.90625 29.56875 189.90625 27.990625ZM190.98438 27.990625Q190.98438 29.178125 191.5 29.771875Q192.03125 30.365625 192.8125 30.365625Q193.60938 30.365625 194.125 29.771875Q194.64062 29.178125 194.64062 27.959375Q194.64062 26.803125 194.10938 26.209375Q193.59375 25.615625 192.8125 25.615625Q192.03125 25.615625 191.5 26.209375Q190.98438 26.7875 190.98438 27.990625ZM201.375 31.1L201.375 30.178125Q200.64062 31.240625 199.39062 31.240625Q198.84375 31.240625 198.35938 31.0375Q197.89062 30.81875 197.65625 30.50625Q197.42188 30.178125 197.32812 29.709375Q197.26562 29.4125 197.26562 28.725L197.26562 24.88125L198.32812 24.88125L198.32812 28.334375Q198.32812 29.146875 198.39062 29.44375Q198.48438 29.85 198.79688 30.1Q199.125 30.334375 199.60938 30.334375Q200.07812 30.334375 200.48438 30.1Q200.90625 29.85 201.07812 29.428125Q201.26562 29.00625 201.26562 28.209375L201.26562 24.88125L202.3125 24.88125L202.3125 31.1L201.375 31.1ZM206.01562 31.1L203.65625 24.88125L204.76562 24.88125L206.10938 28.6Q206.3125 29.209375 206.5 29.85Q206.64062 29.365625 206.89062 28.678125L208.28125 24.88125L209.35938 24.88125L207.0 31.1L206.01562 31.1ZM213.54688 29.1L214.64062 29.225Q214.39062 30.178125 213.6875 30.709375Q212.98438 31.240625 211.90625 31.240625Q210.54688 31.240625 209.73438 30.396875Q208.9375 29.553125 208.9375 28.0375Q208.9375 26.475 209.75 25.615625Q210.5625 24.740625 211.84375 24.740625Q213.09375 24.740625 213.875 25.584375Q214.67188 26.428125 214.67188 27.975Q214.67188 28.06875 214.67188 28.25625L210.03125 28.25625Q210.09375 29.2875 210.60938 29.834375Q211.125 30.365625 211.90625 30.365625Q212.48438 30.365625 212.89062 30.06875Q213.3125 29.75625 213.54688 29.1ZM210.09375 27.396875L213.5625 27.396875Q213.5 26.6 213.17188 26.209375Q212.65625 25.6 211.85938 25.6Q211.125 25.6 210.625 26.084375Q210.14062 26.56875 210.09375 27.396875ZM211.21875 24.1L212.0 22.459375L213.39062 22.459375L212.09375 24.1L211.21875 24.1ZM215.875 29.240625L216.90625 29.084375Q217.0 29.709375 217.39062 30.0375Q217.79688 30.365625 218.53125 30.365625Q219.25 30.365625 219.59375 30.084375Q219.95312 29.7875 219.95312 29.38125Q219.95312 29.021875 219.64062 28.81875Q219.42188 28.678125 218.5625 28.459375Q217.40625 28.1625 216.95312 27.959375Q216.51562 27.740625 216.28125 27.365625Q216.04688 26.990625 216.04688 26.521875Q216.04688 26.115625 216.23438 25.75625Q216.42188 25.396875 216.75 25.1625Q217.0 24.990625 217.42188 24.865625Q217.84375 24.740625 218.34375 24.740625Q219.0625 24.740625 219.60938 24.959375Q220.17188 25.1625 220.4375 25.521875Q220.70312 25.88125 220.79688 26.475L219.76562 26.615625Q219.70312 26.146875 219.35938 25.88125Q219.03125 25.6 218.40625 25.6Q217.6875 25.6 217.375 25.85Q217.0625 26.084375 217.0625 26.4125Q217.0625 26.615625 217.1875 26.771875Q217.32812 26.94375 217.59375 27.053125Q217.75 27.115625 218.53125 27.31875Q219.65625 27.63125 220.09375 27.81875Q220.53125 28.00625 220.78125 28.365625Q221.03125 28.725 221.03125 29.271875Q221.03125 29.803125 220.71875 30.271875Q220.42188 30.725 219.84375 30.990625Q219.26562 31.240625 218.53125 31.240625Q217.3125 31.240625 216.67188 30.740625Q216.04688 30.225 215.875 29.240625Z" fill-rule="nonzero"/><path stroke="#ea4335" stroke-width="4.0" stroke-linecap="butt" d="M238.5 27.1L250.5 27.1" fill-rule="nonzero"/><path fill="#1a1a1a" d="M259.29688 33.490623L259.29688 24.88125L260.25 24.88125L260.25 25.678125Q260.59375 25.209375 261.01562 24.975Q261.45312 24.740625 262.0625 24.740625Q262.85938 24.740625 263.46875 25.146875Q264.07812 25.553125 264.375 26.303125Q264.6875 27.053125 264.6875 27.94375Q264.6875 28.896875 264.34375 29.6625Q264.01562 30.428125 263.35938 30.834375Q262.70312 31.240625 261.98438 31.240625Q261.45312 31.240625 261.03125 31.021875Q260.60938 30.7875 260.34375 30.459375L260.34375 33.490623L259.29688 33.490623ZM260.25 28.021875Q260.25 29.225 260.73438 29.803125Q261.21875 30.365625 261.90625 30.365625Q262.60938 30.365625 263.10938 29.771875Q263.60938 29.178125 263.60938 27.928125Q263.60938 26.740625 263.125 26.1625Q262.64062 25.56875 261.95312 25.56875Q261.28125 25.56875 260.76562 26.19375Q260.25 26.81875 260.25 28.021875ZM270.35938 30.334375Q269.76562 30.834375 269.21875 31.0375Q268.6875 31.240625 268.0625 31.240625Q267.03125 31.240625 266.48438 30.740625Q265.9375 30.240625 265.9375 29.459375Q265.9375 29.00625 266.14062 28.63125Q266.34375 28.240625 266.6875 28.021875Q267.03125 27.7875 267.45312 27.678125Q267.75 27.584375 268.39062 27.50625Q269.65625 27.365625 270.26562 27.146875Q270.26562 26.928125 270.26562 26.88125Q270.26562 26.225 269.96875 25.959375Q269.5625 25.615625 268.76562 25.615625Q268.03125 25.615625 267.67188 25.88125Q267.3125 26.13125 267.14062 26.7875L266.10938 26.646875Q266.25 25.990625 266.57812 25.584375Q266.90625 25.178125 267.51562 24.959375Q268.125 24.740625 268.92188 24.740625Q269.71875 24.740625 270.21875 24.928125Q270.71875 25.115625 270.95312 25.396875Q271.1875 25.678125 271.28125 26.115625Q271.32812 26.38125 271.32812 27.084375L271.32812 28.490625Q271.32812 29.959375 271.39062 30.35Q271.46875 30.740625 271.67188 31.1L270.5625 31.1Q270.40625 30.771875 270.35938 30.334375ZM270.26562 27.975Q269.6875 28.209375 268.54688 28.38125Q267.89062 28.475 267.625 28.6Q267.35938 28.709375 267.20312 28.928125Q267.0625 29.146875 267.0625 29.428125Q267.0625 29.85 267.375 30.13125Q267.70312 30.4125 268.3125 30.4125Q268.92188 30.4125 269.39062 30.146875Q269.875 29.88125 270.09375 29.4125Q270.26562 29.053125 270.26562 28.365625L270.26562 27.975ZM273.09375 31.615625L274.125 31.771875Q274.1875 32.240623 274.48438 32.459373Q274.875 32.75625 275.54688 32.75625Q276.28125 32.75625 276.67188 32.459373Q277.07812 32.1625 277.21875 31.646875Q277.3125 31.31875 277.29688 30.2875Q276.60938 31.1 275.57812 31.1Q274.29688 31.1 273.59375 30.178125Q272.89062 29.240625 272.89062 27.959375Q272.89062 27.06875 273.20312 26.31875Q273.53125 25.553125 274.14062 25.146875Q274.75 24.740625 275.57812 24.740625Q276.6875 24.740625 277.40625 25.63125L277.40625 24.88125L278.375 24.88125L278.375 30.25625Q278.375 31.709375 278.07812 32.31875Q277.78125 32.928123 277.14062 33.271873Q276.5 33.63125 275.5625 33.63125Q274.45312 33.63125 273.76562 33.13125Q273.07812 32.63125 273.09375 31.615625ZM273.96875 27.88125Q273.96875 29.1 274.45312 29.6625Q274.9375 30.225 275.67188 30.225Q276.40625 30.225 276.89062 29.6625Q277.39062 29.1 277.39062 27.9125Q277.39062 26.771875 276.875 26.19375Q276.375 25.615625 275.65625 25.615625Q274.95312 25.615625 274.45312 26.19375Q273.96875 26.75625 273.96875 27.88125ZM284.54688 29.1L285.64062 29.225Q285.39062 30.178125 284.6875 30.709375Q283.98438 31.240625 282.90625 31.240625Q281.54688 31.240625 280.73438 30.396875Q279.9375 29.553125 279.9375 28.0375Q279.9375 26.475 280.75 25.615625Q281.5625 24.740625 282.84375 24.740625Q284.09375 24.740625 284.875 25.584375Q285.67188 26.428125 285.67188 27.975Q285.67188 28.06875 285.67188 28.25625L281.03125 28.25625Q281.09375 29.2875 281.60938 29.834375Q282.125 30.365625 282.90625 30.365625Q283.48438 30.365625 283.89062 30.06875Q284.3125 29.75625 284.54688 29.1ZM281.09375 27.396875L284.5625 27.396875Q284.5 26.6 284.17188 26.209375Q283.65625 25.6 282.85938 25.6Q282.125 25.6 281.625 26.084375Q281.14062 26.56875 281.09375 27.396875ZM286.875 29.240625L287.90625 29.084375Q288.0 29.709375 288.39062 30.0375Q288.79688 30.365625 289.53125 30.365625Q290.25 30.365625 290.59375 30.084375Q290.95312 29.7875 290.95312 29.38125Q290.95312 29.021875 290.64062 28.81875Q290.42188 28.678125 289.5625 28.459375Q288.40625 28.1625 287.95312 27.959375Q287.51562 27.740625 287.28125 27.365625Q287.04688 26.990625 287.04688 26.521875Q287.04688 26.115625 287.23438 25.75625Q287.42188 25.396875 287.75 25.1625Q288.0 24.990625 288.42188 24.865625Q288.84375 24.740625 289.34375 24.740625Q290.0625 24.740625 290.60938 24.959375Q291.17188 25.1625 291.4375 25.521875Q291.70312 25.88125 291.79688 26.475L290.76562 26.615625Q290.70312 26.146875 290.35938 25.88125Q290.03125 25.6 289.40625 25.6Q288.6875 25.6 288.375 25.85Q288.0625 26.084375 288.0625 26.4125Q288.0625 26.615625 288.1875 26.771875Q288.32812 26.94375 288.59375 27.053125Q288.75 27.115625 289.53125 27.31875Q290.65625 27.63125 291.09375 27.81875Q291.53125 28.00625 291.78125 28.365625Q292.03125 28.725 292.03125 29.271875Q292.03125 29.803125 291.71875 30.271875Q291.42188 30.725 290.84375 30.990625Q290.26562 31.240625 289.53125 31.240625Q288.3125 31.240625 287.67188 30.740625Q287.04688 30.225 286.875 29.240625ZM301.35938 28.81875L302.39062 28.959375Q302.21875 30.021875 301.51562 30.63125Q300.8125 31.240625 299.79688 31.240625Q298.51562 31.240625 297.73438 30.4125Q296.96875 29.56875 296.96875 28.00625Q296.96875 27.00625 297.29688 26.25625Q297.64062 25.490625 298.3125 25.115625Q299.0 24.740625 299.8125 24.740625Q300.8125 24.740625 301.45312 25.25625Q302.10938 25.75625 302.29688 26.709375L301.26562 26.865625Q301.125 26.240625 300.75 25.928125Q300.375 25.6 299.84375 25.6Q299.04688 25.6 298.54688 26.178125Q298.04688 26.740625 298.04688 27.975Q298.04688 29.240625 298.53125 29.803125Q299.01562 30.365625 299.78125 30.365625Q300.40625 30.365625 300.8125 29.990625Q301.23438 29.615625 301.35938 28.81875ZM303.28125 31.1L303.28125 24.88125L304.23438 24.88125L304.23438 25.81875Q304.59375 25.1625 304.89062 24.959375Q305.20312 24.740625 305.57812 24.740625Q306.10938 24.740625 306.65625 25.06875L306.29688 26.053125Q305.90625 25.81875 305.53125 25.81875Q305.17188 25.81875 304.89062 26.0375Q304.625 26.240625 304.51562 26.615625Q304.32812 27.178125 304.32812 27.834375L304.32812 31.1L303.28125 31.1ZM311.35938 30.334375Q310.76562 30.834375 310.21875 31.0375Q309.6875 31.240625 309.0625 31.240625Q308.03125 31.240625 307.48438 30.740625Q306.9375 30.240625 306.9375 29.459375Q306.9375 29.00625 307.14062 28.63125Q307.34375 28.240625 307.6875 28.021875Q308.03125 27.7875 308.45312 27.678125Q308.75 27.584375 309.39062 27.50625Q310.65625 27.365625 311.26562 27.146875Q311.26562 26.928125 311.26562 26.88125Q311.26562 26.225 310.96875 25.959375Q310.5625 25.615625 309.76562 25.615625Q309.03125 25.615625 308.67188 25.88125Q308.3125 26.13125 308.14062 26.7875L307.10938 26.646875Q307.25 25.990625 307.57812 25.584375Q307.90625 25.178125 308.51562 24.959375Q309.125 24.740625 309.92188 24.740625Q310.71875 24.740625 311.21875 24.928125Q311.71875 25.115625 311.95312 25.396875Q312.1875 25.678125 312.28125 26.115625Q312.32812 26.38125 312.32812 27.084375L312.32812 28.490625Q312.32812 29.959375 312.39062 30.35Q312.46875 30.740625 312.67188 31.1L311.5625 31.1Q311.40625 30.771875 311.35938 30.334375ZM311.26562 27.975Q310.6875 28.209375 309.54688 28.38125Q308.89062 28.475 308.625 28.6Q308.35938 28.709375 308.20312 28.928125Q308.0625 29.146875 308.0625 29.428125Q308.0625 29.85 308.375 30.13125Q308.70312 30.4125 309.3125 30.4125Q309.92188 30.4125 310.39062 30.146875Q310.875 29.88125 311.09375 29.4125Q311.26562 29.053125 311.26562 28.365625L311.26562 27.975ZM315.4375 31.1L313.53125 24.88125L314.625 24.88125L315.60938 28.475L315.98438 29.803125Q316.01562 29.709375 316.3125 28.521875L317.29688 24.88125L318.375 24.88125L319.3125 28.490625L319.625 29.678125L319.98438 28.475L321.04688 24.88125L322.07812 24.88125L320.125 31.1L319.03125 31.1L318.04688 27.365625L317.79688 26.31875L316.54688 31.1L315.4375 31.1ZM323.26562 31.1L323.26562 22.50625L324.32812 22.50625L324.32812 31.1L323.26562 31.1ZM330.54688 29.1L331.64062 29.225Q331.39062 30.178125 330.6875 30.709375Q329.98438 31.240625 328.90625 31.240625Q327.54688 31.240625 326.73438 30.396875Q325.9375 29.553125 325.9375 28.0375Q325.9375 26.475 326.75 25.615625Q327.5625 24.740625 328.84375 24.740625Q330.09375 24.740625 330.875 25.584375Q331.67188 26.428125 331.67188 27.975Q331.67188 28.06875 331.67188 28.25625L327.03125 28.25625Q327.09375 29.2875 327.60938 29.834375Q328.125 30.365625 328.90625 30.365625Q329.48438 30.365625 329.89062 30.06875Q330.3125 29.75625 330.54688 29.1ZM327.09375 27.396875L330.5625 27.396875Q330.5 26.6 330.17188 26.209375Q329.65625 25.6 328.85938 25.6Q328.125 25.6 327.625 26.084375Q327.14062 26.56875 327.09375 27.396875ZM328.21875 24.1L329.0 22.459375L330.39062 22.459375L329.09375 24.1L328.21875 24.1ZM337.54688 29.1L338.64062 29.225Q338.39062 30.178125 337.6875 30.709375Q336.98438 31.240625 335.90625 31.240625Q334.54688 31.240625 333.73438 30.396875Q332.9375 29.553125 332.9375 28.0375Q332.9375 26.475 333.75 25.615625Q334.5625 24.740625 335.84375 24.740625Q337.09375 24.740625 337.875 25.584375Q338.67188 26.428125 338.67188 27.975Q338.67188 28.06875 338.67188 28.25625L334.03125 28.25625Q334.09375 29.2875 334.60938 29.834375Q335.125 30.365625 335.90625 30.365625Q336.48438 30.365625 336.89062 30.06875Q337.3125 29.75625 337.54688 29.1ZM334.09375 27.396875L337.5625 27.396875Q337.5 26.6 337.17188 26.209375Q336.65625 25.6 335.85938 25.6Q335.125 25.6 334.625 26.084375Q334.14062 26.56875 334.09375 27.396875ZM339.875 29.240625L340.90625 29.084375Q341.0 29.709375 341.39062 30.0375Q341.79688 30.365625 342.53125 30.365625Q343.25 30.365625 343.59375 30.084375Q343.95312 29.7875 343.95312 29.38125Q343.95312 29.021875 343.64062 28.81875Q343.42188 28.678125 342.5625 28.459375Q341.40625 28.1625 340.95312 27.959375Q340.51562 27.740625 340.28125 27.365625Q340.04688 26.990625 340.04688 26.521875Q340.04688 26.115625 340.23438 25.75625Q340.42188 25.396875 340.75 25.1625Q341.0 24.990625 341.42188 24.865625Q341.84375 24.740625 342.34375 24.740625Q343.0625 24.740625 343.60938 24.959375Q344.17188 25.1625 344.4375 25.521875Q344.70312 25.88125 344.79688 26.475L343.76562 26.615625Q343.70312 26.146875 343.35938 25.88125Q343.03125 25.6 342.40625 25.6Q341.6875 25.6 341.375 25.85Q341.0625 26.084375 341.0625 26.4125Q341.0625 26.615625 341.1875 26.771875Q341.32812 26.94375 341.59375 27.053125Q341.75 27.115625 342.53125 27.31875Q343.65625 27.63125 344.09375 27.81875Q344.53125 28.00625 344.78125 28.365625Q345.03125 28.725 345.03125 29.271875Q345.03125 29.803125 344.71875 30.271875Q344.42188 30.725 343.84375 30.990625Q343.26562 31.240625 342.53125 31.240625Q341.3125 31.240625 340.67188 30.740625Q340.04688 30.225 339.875 29.240625Z" fill-rule="nonzero"/><path stroke="#fbbc04" stroke-width="4.0" stroke-linecap="butt" d="M362.5 27.1L374.5 27.1" fill-rule="nonzero"/><path fill="#1a1a1a" d="M383.29688 33.490623L383.29688 24.88125L384.25 24.88125L384.25 25.678125Q384.59375 25.209375 385.01562 24.975Q385.45312 24.740625 386.0625 24.740625Q386.85938 24.740625 387.46875 25.146875Q388.07812 25.553125 388.375 26.303125Q388.6875 27.053125 388.6875 27.94375Q388.6875 28.896875 388.34375 29.6625Q388.01562 30.428125 387.35938 30.834375Q386.70312 31.240625 385.98438 31.240625Q385.45312 31.240625 385.03125 31.021875Q384.60938 30.7875 384.34375 30.459375L384.34375 33.490623L383.29688 33.490623ZM384.25 28.021875Q384.25 29.225 384.73438 29.803125Q385.21875 30.365625 385.90625 30.365625Q386.60938 30.365625 387.10938 29.771875Q387.60938 29.178125 387.60938 27.928125Q387.60938 26.740625 387.125 26.1625Q386.64062 25.56875 385.95312 25.56875Q385.28125 25.56875 384.76562 26.19375Q384.25 26.81875 384.25 28.021875ZM394.35938 30.334375Q393.76562 30.834375 393.21875 31.0375Q392.6875 31.240625 392.0625 31.240625Q391.03125 31.240625 390.48438 30.740625Q389.9375 30.240625 389.9375 29.459375Q389.9375 29.00625 390.14062 28.63125Q390.34375 28.240625 390.6875 28.021875Q391.03125 27.7875 391.45312 27.678125Q391.75 27.584375 392.39062 27.50625Q393.65625 27.365625 394.26562 27.146875Q394.26562 26.928125 394.26562 26.88125Q394.26562 26.225 393.96875 25.959375Q393.5625 25.615625 392.76562 25.615625Q392.03125 25.615625 391.67188 25.88125Q391.3125 26.13125 391.14062 26.7875L390.10938 26.646875Q390.25 25.990625 390.57812 25.584375Q390.90625 25.178125 391.51562 24.959375Q392.125 24.740625 392.92188 24.740625Q393.71875 24.740625 394.21875 24.928125Q394.71875 25.115625 394.95312 25.396875Q395.1875 25.678125 395.28125 26.115625Q395.32812 26.38125 395.32812 27.084375L395.32812 28.490625Q395.32812 29.959375 395.39062 30.35Q395.46875 30.740625 395.67188 31.1L394.5625 31.1Q394.40625 30.771875 394.35938 30.334375ZM394.26562 27.975Q393.6875 28.209375 392.54688 28.38125Q391.89062 28.475 391.625 28.6Q391.35938 28.709375 391.20312 28.928125Q391.0625 29.146875 391.0625 29.428125Q391.0625 29.85 391.375 30.13125Q391.70312 30.4125 392.3125 30.4125Q392.92188 30.4125 393.39062 30.146875Q393.875 29.88125 394.09375 29.4125Q394.26562 29.053125 394.26562 28.365625L394.26562 27.975ZM397.09375 31.615625L398.125 31.771875Q398.1875 32.240623 398.48438 32.459373Q398.875 32.75625 399.54688 32.75625Q400.28125 32.75625 400.67188 32.459373Q401.07812 32.1625 401.21875 31.646875Q401.3125 31.31875 401.29688 30.2875Q400.60938 31.1 399.57812 31.1Q398.29688 31.1 397.59375 30.178125Q396.89062 29.240625 396.89062 27.959375Q396.89062 27.06875 397.20312 26.31875Q397.53125 25.553125 398.14062 25.146875Q398.75 24.740625 399.57812 24.740625Q400.6875 24.740625 401.40625 25.63125L401.40625 24.88125L402.375 24.88125L402.375 30.25625Q402.375 31.709375 402.07812 32.31875Q401.78125 32.928123 401.14062 33.271873Q400.5 33.63125 399.5625 33.63125Q398.45312 33.63125 397.76562 33.13125Q397.07812 32.63125 397.09375 31.615625ZM397.96875 27.88125Q397.96875 29.1 398.45312 29.6625Q398.9375 30.225 399.67188 30.225Q400.40625 30.225 400.89062 29.6625Q401.39062 29.1 401.39062 27.9125Q401.39062 26.771875 400.875 26.19375Q400.375 25.615625 399.65625 25.615625Q398.95312 25.615625 398.45312 26.19375Q397.96875 26.75625 397.96875 27.88125ZM408.54688 29.1L409.64062 29.225Q409.39062 30.178125 408.6875 30.709375Q407.98438 31.240625 406.90625 31.240625Q405.54688 31.240625 404.73438 30.396875Q403.9375 29.553125 403.9375 28.0375Q403.9375 26.475 404.75 25.615625Q405.5625 24.740625 406.84375 24.740625Q408.09375 24.740625 408.875 25.584375Q409.67188 26.428125 409.67188 27.975Q409.67188 28.06875 409.67188 28.25625L405.03125 28.25625Q405.09375 29.2875 405.60938 29.834375Q406.125 30.365625 406.90625 30.365625Q407.48438 30.365625 407.89062 30.06875Q408.3125 29.75625 408.54688 29.1ZM405.09375 27.396875L408.5625 27.396875Q408.5 26.6 408.17188 26.209375Q407.65625 25.6 406.85938 25.6Q406.125 25.6 405.625 26.084375Q405.14062 26.56875 405.09375 27.396875ZM410.875 29.240625L411.90625 29.084375Q412.0 29.709375 412.39062 30.0375Q412.79688 30.365625 413.53125 30.365625Q414.25 30.365625 414.59375 30.084375Q414.95312 29.7875 414.95312 29.38125Q414.95312 29.021875 414.64062 28.81875Q414.42188 28.678125 413.5625 28.459375Q412.40625 28.1625 411.95312 27.959375Q411.51562 27.740625 411.28125 27.365625Q411.04688 26.990625 411.04688 26.521875Q411.04688 26.115625 411.23438 25.75625Q411.42188 25.396875 411.75 25.1625Q412.0 24.990625 412.42188 24.865625Q412.84375 24.740625 413.34375 24.740625Q414.0625 24.740625 414.60938 24.959375Q415.17188 25.1625 415.4375 25.521875Q415.70312 25.88125 415.79688 26.475L414.76562 26.615625Q414.70312 26.146875 414.35938 25.88125Q414.03125 25.6 413.40625 25.6Q412.6875 25.6 412.375 25.85Q412.0625 26.084375 412.0625 26.4125Q412.0625 26.615625 412.1875 26.771875Q412.32812 26.94375 412.59375 27.053125Q412.75 27.115625 413.53125 27.31875Q414.65625 27.63125 415.09375 27.81875Q415.53125 28.00625 415.78125 28.365625Q416.03125 28.725 416.03125 29.271875Q416.03125 29.803125 415.71875 30.271875Q415.42188 30.725 414.84375 30.990625Q414.26562 31.240625 413.53125 31.240625Q412.3125 31.240625 411.67188 30.740625Q411.04688 30.225 410.875 29.240625ZM423.59375 30.1625L423.75 31.084375Q423.29688 31.178125 422.95312 31.178125Q422.375 31.178125 422.0625 31.00625Q421.75 30.81875 421.60938 30.521875Q421.48438 30.225 421.48438 29.271875L421.48438 25.69375L420.71875 25.69375L420.71875 24.88125L421.48438 24.88125L421.48438 23.334375L422.53125 22.709375L422.53125 24.88125L423.59375 24.88125L423.59375 25.69375L422.53125 25.69375L422.53125 29.334375Q422.53125 29.7875 422.57812 29.9125Q422.64062 30.0375 422.76562 30.115625Q422.89062 30.19375 423.125 30.19375Q423.3125 30.19375 423.59375 30.1625ZM424.28125 31.1L424.28125 24.88125L425.23438 24.88125L425.23438 25.81875Q425.59375 25.1625 425.89062 24.959375Q426.20312 24.740625 426.57812 24.740625Q427.10938 24.740625 427.65625 25.06875L427.29688 26.053125Q426.90625 25.81875 426.53125 25.81875Q426.17188 25.81875 425.89062 26.0375Q425.625 26.240625 425.51562 26.615625Q425.32812 27.178125 425.32812 27.834375L425.32812 31.1L424.28125 31.1ZM427.90625 27.990625Q427.90625 26.25625 428.85938 25.428125Q429.65625 24.740625 430.8125 24.740625Q432.09375 24.740625 432.90625 25.584375Q433.73438 26.4125 433.73438 27.896875Q433.73438 29.1 433.375 29.7875Q433.01562 30.475 432.3125 30.865625Q431.625 31.240625 430.8125 31.240625Q429.51562 31.240625 428.70312 30.4125Q427.90625 29.56875 427.90625 27.990625ZM428.98438 27.990625Q428.98438 29.178125 429.5 29.771875Q430.03125 30.365625 430.8125 30.365625Q431.60938 30.365625 432.125 29.771875Q432.64062 29.178125 432.64062 27.959375Q432.64062 26.803125 432.10938 26.209375Q431.59375 25.615625 430.8125 25.615625Q430.03125 25.615625 429.5 26.209375Q428.98438 26.7875 428.98438 27.990625ZM439.375 31.1L439.375 30.178125Q438.64062 31.240625 437.39062 31.240625Q436.84375 31.240625 436.35938 31.0375Q435.89062 30.81875 435.65625 30.50625Q435.42188 30.178125 435.32812 29.709375Q435.26562 29.4125 435.26562 28.725L435.26562 24.88125L436.32812 24.88125L436.32812 28.334375Q436.32812 29.146875 436.39062 29.44375Q436.48438 29.85 436.79688 30.1Q437.125 30.334375 437.60938 30.334375Q438.07812 30.334375 438.48438 30.1Q438.90625 29.85 439.07812 29.428125Q439.26562 29.00625 439.26562 28.209375L439.26562 24.88125L440.3125 24.88125L440.3125 31.1L439.375 31.1ZM444.01562 31.1L441.65625 24.88125L442.76562 24.88125L444.10938 28.6Q444.3125 29.209375 444.5 29.85Q444.64062 29.365625 444.89062 28.678125L446.28125 24.88125L447.35938 24.88125L445.0 31.1L444.01562 31.1ZM451.54688 29.1L452.64062 29.225Q452.39062 30.178125 451.6875 30.709375Q450.98438 31.240625 449.90625 31.240625Q448.54688 31.240625 447.73438 30.396875Q446.9375 29.553125 446.9375 28.0375Q446.9375 26.475 447.75 25.615625Q448.5625 24.740625 449.84375 24.740625Q451.09375 24.740625 451.875 25.584375Q452.67188 26.428125 452.67188 27.975Q452.67188 28.06875 452.67188 28.25625L448.03125 28.25625Q448.09375 29.2875 448.60938 29.834375Q449.125 30.365625 449.90625 30.365625Q450.48438 30.365625 450.89062 30.06875Q451.3125 29.75625 451.54688 29.1ZM448.09375 27.396875L451.5625 27.396875Q451.5 26.6 451.17188 26.209375Q450.65625 25.6 449.85938 25.6Q449.125 25.6 448.625 26.084375Q448.14062 26.56875 448.09375 27.396875ZM449.21875 24.1L450.0 22.459375L451.39062 22.459375L450.09375 24.1L449.21875 24.1ZM458.54688 29.1L459.64062 29.225Q459.39062 30.178125 458.6875 30.709375Q457.98438 31.240625 456.90625 31.240625Q455.54688 31.240625 454.73438 30.396875Q453.9375 29.553125 453.9375 28.0375Q453.9375 26.475 454.75 25.615625Q455.5625 24.740625 456.84375 24.740625Q458.09375 24.740625 458.875 25.584375Q459.67188 26.428125 459.67188 27.975Q459.67188 28.06875 459.67188 28.25625L455.03125 28.25625Q455.09375 29.2875 455.60938 29.834375Q456.125 30.365625 456.90625 30.365625Q457.48438 30.365625 457.89062 30.06875Q458.3125 29.75625 458.54688 29.1ZM455.09375 27.396875L458.5625 27.396875Q458.5 26.6 458.17188 26.209375Q457.65625 25.6 456.85938 25.6Q456.125 25.6 455.625 26.084375Q455.14062 26.56875 455.09375 27.396875ZM460.875 29.240625L461.90625 29.084375Q462.0 29.709375 462.39062 30.0375Q462.79688 30.365625 463.53125 30.365625Q464.25 30.365625 464.59375 30.084375Q464.95312 29.7875 464.95312 29.38125Q464.95312 29.021875 464.64062 28.81875Q464.42188 28.678125 463.5625 28.459375Q462.40625 28.1625 461.95312 27.959375Q461.51562 27.740625 461.28125 27.365625Q461.04688 26.990625 461.04688 26.521875Q461.04688 26.115625 461.23438 25.75625Q461.42188 25.396875 461.75 25.1625Q462.0 24.990625 462.42188 24.865625Q462.84375 24.740625 463.34375 24.740625Q464.0625 24.740625 464.60938 24.959375Q465.17188 25.1625 465.4375 25.521875Q465.70312 25.88125 465.79688 26.475L464.76562 26.615625Q464.70312 26.146875 464.35938 25.88125Q464.03125 25.6 463.40625 25.6Q462.6875 25.6 462.375 25.85Q462.0625 26.084375 462.0625 26.4125Q462.0625 26.615625 462.1875 26.771875Q462.32812 26.94375 462.59375 27.053125Q462.75 27.115625 463.53125 27.31875Q464.65625 27.63125 465.09375 27.81875Q465.53125 28.00625 465.78125 28.365625Q466.03125 28.725 466.03125 29.271875Q466.03125 29.803125 465.71875 30.271875Q465.42188 30.725 464.84375 30.990625Q464.26562 31.240625 463.53125 31.240625Q462.3125 31.240625 461.67188 30.740625Q461.04688 30.225 460.875 29.240625Z" fill-rule="nonzero"/></svg>