<svg version="1.1" viewBox="0.0 0.0 851.0 527.0" fill="none" stroke="none" stroke-linecap="square" stroke-miterlimit="10" width="851" height="527" xmlns:xlink="http://www.w3.org/1999/xlink" xmlns="http://www.w3.org/2000/svg"><path fill="#ffffff" d="M0 0L851.0 0L851.0 527.0L0 527.0L0 0Z" fill-rule="nonzero"/><path stroke="#333333" stroke-width="1.0" stroke-linecap="butt" d="M64.5 480.5L698.5 480.5" fill-rule="nonzero"/><path stroke="#cccccc" stroke-width="1.0" stroke-linecap="butt" d="M64.5 368.5L698.5 368.5" fill-rule="nonzero"/><path stroke="#cccccc" stroke-width="1.0" stroke-linecap="butt" d="M64.5 257.5L698.5 257.5" fill-rule="nonzero"/><path stroke="#cccccc" stroke-width="1.0" stroke-linecap="butt" d="M64.5 145.5L698.5 145.5" fill-rule="nonzero"/><path stroke="#cccccc" stroke-width="1.0" stroke-linecap="butt" d="M64.5 33.5L698.5 33.5" fill-rule="nonzero"/><clipPath id="id_0"><path d="M64.35 33.35L698.03 33.35L698.03 480.65L64.35 480.65L64.35 33.35Z" clip-rule="nonzero"/></clipPath><path stroke="#000000" stroke-width="2.0" stroke-linecap="butt" stroke-opacity="0.0" clip-path="url(#id_0)" d="M254.0 481.0L131.0 481.0L131.0 461.0L254.0 461.0Z" fill-rule="nonzero"/><path fill="#86d2ce" clip-path="url(#id_0)" d="M254.0 481.0L131.0 481.0L131.0 461.0L254.0 461.0Z" fill-rule="nonzero"/><path stroke="#000000" stroke-width="2.0" stroke-linecap="butt" stroke-opacity="0.0" clip-path="url(#id_0)" d="M443.0 481.0L320.0 481.0L320.0 245.0L443.0 245.0Z" fill-rule="nonzero"/><path fill="#86d2ce" clip-path="url(#id_0)" d="M443.0 481.0L320.0 481.0L320.0 245.0L443.0 245.0Z" fill-rule="nonzero"/><path stroke="#000000" stroke-width="2.0" stroke-linecap="butt" stroke-opacity="0.0" clip-path="url(#id_0)" d="M632.0 481.0L509.0 481.0L509.0 175.0L632.0 175.0Z" fill-rule="nonzero"/><path fill="#86d2ce" clip-path="url(#id_0)" d="M632.0 481.0L509.0 481.0L509.0 175.0L632.0 175.0Z" fill-rule="nonzero"/><path stroke="#000000" stroke-width="2.0" stroke-linecap="butt" stroke-opacity="0.0" clip-path="url(#id_0)" d="M254.0 461.0L131.0 461.0L131.0 254.0L254.0 254.0Z" fill-rule="nonzero"/><path fill="#d2b1d5" clip-path="url(#id_0)" d="M254.0 461.0L131.0 461.0L131.0 254.0L254.0 254.0Z" fill-rule="nonzero"/><path stroke="#000000" stroke-width="2.0" stroke-linecap="butt" stroke-opacity="0.0" clip-path="url(#id_0)" d="M443.0 245.0L320.0 245.0L320.0 49.0L443.0 49.0Z" fill-rule="nonzero"/><path fill="#d2b1d5" clip-path="url(#id_0)" d="M443.0 245.0L320.0 245.0L320.0 49.0L443.0 49.0Z" fill-rule="nonzero"/><path stroke="#000000" stroke-width="2.0" stroke-linecap="butt" stroke-opacity="0.0" clip-path="url(#id_0)" d="M632.0 175.0L509.0 175.0L509.0 63.0L632.0 63.0Z" fill-rule="nonzero"/><path fill="#d2b1d5" clip-path="url(#id_0)" d="M632.0 175.0L509.0 175.0L509.0 63.0L632.0 63.0Z" fill-rule="nonzero"/><path stroke="#000000" stroke-width="2.0" stroke-linecap="butt" stroke-opacity="0.0" clip-path="url(#id_0)" d="M254.0 254.0L131.0 254.0L131.0 35.0C131.0 33.89543 131.89543 33.0 133.0 33.0L252.0 33.0C253.10457 33.0 254.0 33.89543 254.0 35.0Z" fill-rule="nonzero"/><path fill="#d5c695" clip-path="url(#id_0)" d="M254.0 254.0L131.0 254.0L131.0 35.0C131.0 33.89543 131.89543 33.0 133.0 33.0L252.0 33.0C253.10457 33.0 254.0 33.89543 254.0 35.0Z" fill-rule="nonzero"/><path stroke="#000000" stroke-width="2.0" stroke-linecap="butt" stroke-opacity="0.0" clip-path="url(#id_0)" d="M443.0 49.0L320.0 49.0L320.0 35.0C320.0 33.89543 320.89542 33.0 322.0 33.0L441.0 33.0C442.10458 33.0 443.0 33.89543 443.0 35.0Z" fill-rule="nonzero"/><path fill="#d5c695" clip-path="url(#id_0)" d="M443.0 49.0L320.0 49.0L320.0 35.0C320.0 33.89543 320.89542 33.0 322.0 33.0L441.0 33.0C442.10458 33.0 443.0 33.89543 443.0 35.0Z" fill-rule="nonzero"/><path stroke="#000000" stroke-width="2.0" stroke-linecap="butt" stroke-opacity="0.0" clip-path="url(#id_0)" d="M632.0 63.0L509.0 63.0L509.0 35.0C509.0 33.89543 509.89542 33.0 511.0 33.0L630.0 33.0C631.10455 33.0 632.0 33.89543 632.0 35.0Z" fill-rule="nonzero"/><path fill="#d5c695" clip-path="url(#id_0)" d="M632.0 63.0L509.0 63.0L509.0 35.0C509.0 33.89543 509.89542 33.0 511.0 33.0L630.0 33.0C631.10455 33.0 632.0 33.89543 632.0 35.0Z" fill-rule="nonzero"/><path stroke="#86d2ce" stroke-width="3.0" stroke-linejoin="round" stroke-linecap="round" d="M189.28125 472.23895L190.46875 472.23895L190.46875 473.11395L189.28125 473.11395L189.28125 475.09833L188.20312 475.09833L188.20312 473.11395L184.3125 473.11395L184.3125 472.47333L188.125 466.56708L189.28125 466.56708L189.28125 472.23895ZM185.54688 472.23895L188.20312 472.23895L188.20312 468.05145L188.0625 468.28583L185.54688 472.23895ZM191.60938 468.2077Q191.60938 467.44208 192.09375 466.94208Q192.59375 466.44208 193.35938 466.44208Q194.14062 466.44208 194.625 466.94208Q195.10938 467.44208 195.10938 468.23895L195.10938 468.66083Q195.10938 469.42645 194.60938 469.92645Q194.125 470.41083 193.375 470.41083Q192.60938 470.41083 192.10938 469.92645Q191.60938 469.42645 191.60938 468.61395L191.60938 468.2077ZM192.42188 468.66083Q192.42188 469.11395 192.67188 469.41083Q192.9375 469.7077 193.375 469.7077Q193.79688 469.7077 194.04688 469.42645Q194.29688 469.12958 194.29688 468.62958L194.29688 468.2077Q194.29688 467.75458 194.04688 467.4577Q193.79688 467.1452 193.35938 467.1452Q192.92188 467.1452 192.67188 467.4577Q192.42188 467.75458 192.42188 468.22333L192.42188 468.66083ZM195.76562 473.00458Q195.76562 472.23895 196.25 471.75458Q196.75 471.25458 197.51562 471.25458Q198.28125 471.25458 198.76562 471.75458Q199.26562 472.23895 199.26562 473.05145L199.26562 473.4577Q199.26562 474.22333 198.78125 474.72333Q198.29688 475.22333 197.53125 475.22333Q196.76562 475.22333 196.26562 474.73895Q195.76562 474.23895 195.76562 473.42645L195.76562 473.00458ZM196.57812 473.4577Q196.57812 473.92645 196.82812 474.22333Q197.09375 474.5202 197.53125 474.5202Q197.95312 474.5202 198.20312 474.23895Q198.45312 473.94208 198.45312 473.44208L198.45312 473.00458Q198.45312 472.53583 198.1875 472.25458Q197.9375 471.9577 197.51562 471.9577Q197.09375 471.9577 196.82812 472.25458Q196.57812 472.53583 196.57812 473.03583L196.57812 473.4577ZM193.625 474.4577L193.0 474.06708L197.17188 467.3952L197.78125 467.78583L193.625 474.4577Z" fill-rule="nonzero"/><path fill="#000000" d="M189.28125 472.23895L190.46875 472.23895L190.46875 473.11395L189.28125 473.11395L189.28125 475.09833L188.20312 475.09833L188.20312 473.11395L184.3125 473.11395L184.3125 472.47333L188.125 466.56708L189.28125 466.56708L189.28125 472.23895ZM185.54688 472.23895L188.20312 472.23895L188.20312 468.05145L188.0625 468.28583L185.54688 472.23895ZM191.60938 468.2077Q191.60938 467.44208 192.09375 466.94208Q192.59375 466.44208 193.35938 466.44208Q194.14062 466.44208 194.625 466.94208Q195.10938 467.44208 195.10938 468.23895L195.10938 468.66083Q195.10938 469.42645 194.60938 469.92645Q194.125 470.41083 193.375 470.41083Q192.60938 470.41083 192.10938 469.92645Q191.60938 469.42645 191.60938 468.61395L191.60938 468.2077ZM192.42188 468.66083Q192.42188 469.11395 192.67188 469.41083Q192.9375 469.7077 193.375 469.7077Q193.79688 469.7077 194.04688 469.42645Q194.29688 469.12958 194.29688 468.62958L194.29688 468.2077Q194.29688 467.75458 194.04688 467.4577Q193.79688 467.1452 193.35938 467.1452Q192.92188 467.1452 192.67188 467.4577Q192.42188 467.75458 192.42188 468.22333L192.42188 468.66083ZM195.76562 473.00458Q195.76562 472.23895 196.25 471.75458Q196.75 471.25458 197.51562 471.25458Q198.28125 471.25458 198.76562 471.75458Q199.26562 472.23895 199.26562 473.05145L199.26562 473.4577Q199.26562 474.22333 198.78125 474.72333Q198.29688 475.22333 197.53125 475.22333Q196.76562 475.22333 196.26562 474.73895Q195.76562 474.23895 195.76562 473.42645L195.76562 473.00458ZM196.57812 473.4577Q196.57812 473.92645 196.82812 474.22333Q197.09375 474.5202 197.53125 474.5202Q197.95312 474.5202 198.20312 474.23895Q198.45312 473.94208 198.45312 473.44208L198.45312 473.00458Q198.45312 472.53583 198.1875 472.25458Q197.9375 471.9577 197.51562 471.9577Q197.09375 471.9577 196.82812 472.25458Q196.57812 472.53583 196.57812 473.03583L196.57812 473.4577ZM193.625 474.4577L193.0 474.06708L197.17188 467.3952L197.78125 467.78583L193.625 474.4577Z" fill-rule="nonzero"/><path stroke="#86d2ce" stroke-width="3.0" stroke-linejoin="round" stroke-linecap="round" d="M370.70312 363.2597L371.14062 359.0097L375.51562 359.0097L375.51562 360.0097L372.0625 360.0097L371.79688 362.33783Q372.4375 361.96283 373.23438 361.96283Q374.39062 361.96283 375.07812 362.74408Q375.76562 363.5097 375.76562 364.8222Q375.76562 366.1347 375.04688 366.90033Q374.34375 367.66595 373.0625 367.66595Q371.9375 367.66595 371.21875 367.04095Q370.5 366.40033 370.40625 365.29095L371.42188 365.29095Q371.53125 366.02533 371.95312 366.40033Q372.375 366.77533 373.0625 366.77533Q373.8125 366.77533 374.25 366.2597Q374.6875 365.74408 374.6875 364.83783Q374.6875 363.97845 374.21875 363.46283Q373.75 362.9472 372.96875 362.9472Q372.26562 362.9472 371.85938 363.24408L371.57812 363.47845L370.70312 363.2597ZM378.78125 362.74408L379.59375 362.74408Q380.375 362.72845 380.8125 362.33783Q381.25 361.9472 381.25 361.27533Q381.25 359.77533 379.75 359.77533Q379.04688 359.77533 378.625 360.18158Q378.21875 360.58783 378.21875 361.24408L377.125 361.24408Q377.125 360.22845 377.85938 359.55658Q378.60938 358.8847 379.75 358.8847Q380.95312 358.8847 381.64062 359.52533Q382.32812 360.16595 382.32812 361.30658Q382.32812 361.86908 381.96875 362.3847Q381.60938 362.90033 380.98438 363.16595Q381.6875 363.3847 382.0625 363.90033Q382.45312 364.41595 382.45312 365.16595Q382.45312 366.30658 381.70312 366.99408Q380.95312 367.66595 379.75 367.66595Q378.5625 367.66595 377.79688 367.0097Q377.04688 366.35345 377.04688 365.29095L378.14062 365.29095Q378.14062 365.96283 378.57812 366.36908Q379.01562 366.77533 379.76562 366.77533Q380.54688 366.77533 380.95312 366.36908Q381.375 365.9472 381.375 365.18158Q381.375 364.4472 380.92188 364.05658Q380.46875 363.65033 379.59375 363.6347L378.78125 363.6347L378.78125 362.74408ZM384.10938 360.65033Q384.10938 359.8847 384.59375 359.3847Q385.09375 358.8847 385.85938 358.8847Q386.64062 358.8847 387.125 359.3847Q387.60938 359.8847 387.60938 360.68158L387.60938 361.10345Q387.60938 361.86908 387.10938 362.36908Q386.625 362.85345 385.875 362.85345Q385.10938 362.85345 384.60938 362.36908Q384.10938 361.86908 384.10938 361.05658L384.10938 360.65033ZM384.92188 361.10345Q384.92188 361.55658 385.17188 361.85345Q385.4375 362.15033 385.875 362.15033Q386.29688 362.15033 386.54688 361.86908Q386.79688 361.5722 386.79688 361.0722L386.79688 360.65033Q386.79688 360.1972 386.54688 359.90033Q386.29688 359.58783 385.85938 359.58783Q385.42188 359.58783 385.17188 359.90033Q384.92188 360.1972 384.92188 360.66595L384.92188 361.10345ZM388.26562 365.4472Q388.26562 364.68158 388.75 364.1972Q389.25 363.6972 390.01562 363.6972Q390.78125 363.6972 391.26562 364.1972Q391.76562 364.68158 391.76562 365.49408L391.76562 365.90033Q391.76562 366.66595 391.28125 367.16595Q390.79688 367.66595 390.03125 367.66595Q389.26562 367.66595 388.76562 367.18158Q388.26562 366.68158 388.26562 365.86908L388.26562 365.4472ZM389.07812 365.90033Q389.07812 366.36908 389.32812 366.66595Q389.59375 366.96283 390.03125 366.96283Q390.45312 366.96283 390.70312 366.68158Q390.95312 366.3847 390.95312 365.8847L390.95312 365.4472Q390.95312 364.97845 390.6875 364.6972Q390.4375 364.40033 390.01562 364.40033Q389.59375 364.40033 389.32812 364.6972Q389.07812 364.97845 389.07812 365.47845L389.07812 365.90033ZM386.125 366.90033L385.5 366.5097L389.67188 359.83783L390.28125 360.22845L386.125 366.90033Z" fill-rule="nonzero"/><path fill="#000000" d="M370.70312 363.2597L371.14062 359.0097L375.51562 359.0097L375.51562 360.0097L372.0625 360.0097L371.79688 362.33783Q372.4375 361.96283 373.23438 361.96283Q374.39062 361.96283 375.07812 362.74408Q375.76562 363.5097 375.76562 364.8222Q375.76562 366.1347 375.04688 366.90033Q374.34375 367.66595 373.0625 367.66595Q371.9375 367.66595 371.21875 367.04095Q370.5 366.40033 370.40625 365.29095L371.42188 365.29095Q371.53125 366.02533 371.95312 366.40033Q372.375 366.77533 373.0625 366.77533Q373.8125 366.77533 374.25 366.2597Q374.6875 365.74408 374.6875 364.83783Q374.6875 363.97845 374.21875 363.46283Q373.75 362.9472 372.96875 362.9472Q372.26562 362.9472 371.85938 363.24408L371.57812 363.47845L370.70312 363.2597ZM378.78125 362.74408L379.59375 362.74408Q380.375 362.72845 380.8125 362.33783Q381.25 361.9472 381.25 361.27533Q381.25 359.77533 379.75 359.77533Q379.04688 359.77533 378.625 360.18158Q378.21875 360.58783 378.21875 361.24408L377.125 361.24408Q377.125 360.22845 377.85938 359.55658Q378.60938 358.8847 379.75 358.8847Q380.95312 358.8847 381.64062 359.52533Q382.32812 360.16595 382.32812 361.30658Q382.32812 361.86908 381.96875 362.3847Q381.60938 362.90033 380.98438 363.16595Q381.6875 363.3847 382.0625 363.90033Q382.45312 364.41595 382.45312 365.16595Q382.45312 366.30658 381.70312 366.99408Q380.95312 367.66595 379.75 367.66595Q378.5625 367.66595 377.79688 367.0097Q377.04688 366.35345 377.04688 365.29095L378.14062 365.29095Q378.14062 365.96283 378.57812 366.36908Q379.01562 366.77533 379.76562 366.77533Q380.54688 366.77533 380.95312 366.36908Q381.375 365.9472 381.375 365.18158Q381.375 364.4472 380.92188 364.05658Q380.46875 363.65033 379.59375 363.6347L378.78125 363.6347L378.78125 362.74408ZM384.10938 360.65033Q384.10938 359.8847 384.59375 359.3847Q385.09375 358.8847 385.85938 358.8847Q386.64062 358.8847 387.125 359.3847Q387.60938 359.8847 387.60938 360.68158L387.60938 361.10345Q387.60938 361.86908 387.10938 362.36908Q386.625 362.85345 385.875 362.85345Q385.10938 362.85345 384.60938 362.36908Q384.10938 361.86908 384.10938 361.05658L384.10938 360.65033ZM384.92188 361.10345Q384.92188 361.55658 385.17188 361.85345Q385.4375 362.15033 385.875 362.15033Q386.29688 362.15033 386.54688 361.86908Q386.79688 361.5722 386.79688 361.0722L386.79688 360.65033Q386.79688 360.1972 386.54688 359.90033Q386.29688 359.58783 385.85938 359.58783Q385.42188 359.58783 385.17188 359.90033Q384.92188 360.1972 384.92188 360.66595L384.92188 361.10345ZM388.26562 365.4472Q388.26562 364.68158 388.75 364.1972Q389.25 363.6972 390.01562 363.6972Q390.78125 363.6972 391.26562 364.1972Q391.76562 364.68158 391.76562 365.49408L391.76562 365.90033Q391.76562 366.66595 391.28125 367.16595Q390.79688 367.66595 390.03125 367.66595Q389.26562 367.66595 388.76562 367.18158Q388.26562 366.68158 388.26562 365.86908L388.26562 365.4472ZM389.07812 365.90033Q389.07812 366.36908 389.32812 366.66595Q389.59375 366.96283 390.03125 366.96283Q390.45312 366.96283 390.70312 366.68158Q390.95312 366.3847 390.95312 365.8847L390.95312 365.4472Q390.95312 364.97845 390.6875 364.6972Q390.4375 364.40033 390.01562 364.40033Q389.59375 364.40033 389.32812 364.6972Q389.07812 364.97845 389.07812 365.47845L389.07812 365.90033ZM386.125 366.90033L385.5 366.5097L389.67188 359.83783L390.28125 360.22845L386.125 366.90033Z" fill-rule="nonzero"/><path stroke="#86d2ce" stroke-width="3.0" stroke-linejoin="round" stroke-linecap="round" d="M563.46875 323.6816L563.46875 324.58786L563.2656 324.58786Q562.0 324.6191 561.25 325.3535Q560.5 326.07224 560.375 327.38474Q561.0625 326.6191 562.21875 326.6191Q563.3281 326.6191 564.0 327.40036Q564.6719 328.1816 564.6719 329.4316Q564.6719 330.7441 563.9531 331.541Q563.2344 332.33786 562.0156 332.33786Q560.7969 332.33786 560.03125 331.40036Q559.28125 330.44724 559.28125 328.96286L559.28125 328.5566Q559.28125 326.19724 560.28125 324.94724Q561.28125 323.69724 563.2656 323.6816L563.46875 323.6816ZM562.0469 327.52536Q561.4844 327.52536 561.0156 327.8535Q560.5469 328.1816 560.3594 328.69724L560.3594 329.08786Q560.3594 330.15036 560.8281 330.791Q561.3125 331.4316 562.0156 331.4316Q562.75 331.4316 563.1719 330.90036Q563.59375 330.3535 563.59375 329.4785Q563.59375 328.6035 563.1719 328.07224Q562.75 327.52536 562.0469 327.52536ZM571.3906 325.90036Q571.3906 326.541 571.0469 327.041Q570.7031 327.541 570.1406 327.82224Q570.7969 328.1035 571.1875 328.666Q571.5781 329.21286 571.5781 329.916Q571.5781 331.00974 570.8281 331.6816Q570.09375 332.33786 568.875 332.33786Q567.6406 332.33786 566.8906 331.6816Q566.15625 331.00974 566.15625 329.916Q566.15625 329.21286 566.53125 328.666Q566.90625 328.1035 567.5781 327.82224Q567.0156 327.541 566.6875 327.041Q566.3594 326.541 566.3594 325.90036Q566.3594 324.82224 567.0469 324.19724Q567.7344 323.5566 568.875 323.5566Q570.0 323.5566 570.6875 324.19724Q571.3906 324.82224 571.3906 325.90036ZM570.5 329.88474Q570.5 329.166 570.0469 328.7285Q569.59375 328.27536 568.8594 328.27536Q568.125 328.27536 567.6719 328.7285Q567.2344 329.166 567.2344 329.90036Q567.2344 330.6191 567.6719 331.041Q568.1094 331.44724 568.875 331.44724Q569.625 331.44724 570.0625 331.02536Q570.5 330.6035 570.5 329.88474ZM568.875 324.44724Q568.2344 324.44724 567.8281 324.8535Q567.4375 325.2441 567.4375 325.9316Q567.4375 326.57224 567.8281 326.9785Q568.21875 327.38474 568.8594 327.38474Q569.5156 327.38474 569.90625 326.9785Q570.2969 326.57224 570.2969 325.9316Q570.2969 325.27536 569.8906 324.8691Q569.4844 324.44724 568.875 324.44724ZM573.1094 325.32224Q573.1094 324.5566 573.59375 324.0566Q574.09375 323.5566 574.8594 323.5566Q575.6406 323.5566 576.125 324.0566Q576.6094 324.5566 576.6094 325.3535L576.6094 325.77536Q576.6094 326.541 576.1094 327.041Q575.625 327.52536 574.875 327.52536Q574.1094 327.52536 573.6094 327.041Q573.1094 326.541 573.1094 325.7285L573.1094 325.32224ZM573.9219 325.77536Q573.9219 326.2285 574.1719 326.52536Q574.4375 326.82224 574.875 326.82224Q575.2969 326.82224 575.5469 326.541Q575.7969 326.2441 575.7969 325.7441L575.7969 325.32224Q575.7969 324.8691 575.5469 324.57224Q575.2969 324.25974 574.8594 324.25974Q574.4219 324.25974 574.1719 324.57224Q573.9219 324.8691 573.9219 325.33786L573.9219 325.77536ZM577.2656 330.1191Q577.2656 329.3535 577.75 328.8691Q578.25 328.3691 579.0156 328.3691Q579.78125 328.3691 580.2656 328.8691Q580.7656 329.3535 580.7656 330.166L580.7656 330.57224Q580.7656 331.33786 580.28125 331.83786Q579.7969 332.33786 579.03125 332.33786Q578.2656 332.33786 577.7656 331.8535Q577.2656 331.3535 577.2656 330.541L577.2656 330.1191ZM578.0781 330.57224Q578.0781 331.041 578.3281 331.33786Q578.59375 331.63474 579.03125 331.63474Q579.4531 331.63474 579.7031 331.3535Q579.9531 331.0566 579.9531 330.5566L579.9531 330.1191Q579.9531 329.65036 579.6875 329.3691Q579.4375 329.07224 579.0156 329.07224Q578.59375 329.07224 578.3281 329.3691Q578.0781 329.65036 578.0781 330.15036L578.0781 330.57224ZM575.125 331.57224L574.5 331.1816L578.6719 324.50974L579.28125 324.90036L575.125 331.57224Z" fill-rule="nonzero"/><path fill="#000000" d="M563.46875 323.6816L563.46875 324.58786L563.2656 324.58786Q562.0 324.6191 561.25 325.3535Q560.5 326.07224 560.375 327.38474Q561.0625 326.6191 562.21875 326.6191Q563.3281 326.6191 564.0 327.40036Q564.6719 328.1816 564.6719 329.4316Q564.6719 330.7441 563.9531 331.541Q563.2344 332.33786 562.0156 332.33786Q560.7969 332.33786 560.03125 331.40036Q559.28125 330.44724 559.28125 328.96286L559.28125 328.5566Q559.28125 326.19724 560.28125 324.94724Q561.28125 323.69724 563.2656 323.6816L563.46875 323.6816ZM562.0469 327.52536Q561.4844 327.52536 561.0156 327.8535Q560.5469 328.1816 560.3594 328.69724L560.3594 329.08786Q560.3594 330.15036 560.8281 330.791Q561.3125 331.4316 562.0156 331.4316Q562.75 331.4316 563.1719 330.90036Q563.59375 330.3535 563.59375 329.4785Q563.59375 328.6035 563.1719 328.07224Q562.75 327.52536 562.0469 327.52536ZM571.3906 325.90036Q571.3906 326.541 571.0469 327.041Q570.7031 327.541 570.1406 327.82224Q570.7969 328.1035 571.1875 328.666Q571.5781 329.21286 571.5781 329.916Q571.5781 331.00974 570.8281 331.6816Q570.09375 332.33786 568.875 332.33786Q567.6406 332.33786 566.8906 331.6816Q566.15625 331.00974 566.15625 329.916Q566.15625 329.21286 566.53125 328.666Q566.90625 328.1035 567.5781 327.82224Q567.0156 327.541 566.6875 327.041Q566.3594 326.541 566.3594 325.90036Q566.3594 324.82224 567.0469 324.19724Q567.7344 323.5566 568.875 323.5566Q570.0 323.5566 570.6875 324.19724Q571.3906 324.82224 571.3906 325.90036ZM570.5 329.88474Q570.5 329.166 570.0469 328.7285Q569.59375 328.27536 568.8594 328.27536Q568.125 328.27536 567.6719 328.7285Q567.2344 329.166 567.2344 329.90036Q567.2344 330.6191 567.6719 331.041Q568.1094 331.44724 568.875 331.44724Q569.625 331.44724 570.0625 331.02536Q570.5 330.6035 570.5 329.88474ZM568.875 324.44724Q568.2344 324.44724 567.8281 324.8535Q567.4375 325.2441 567.4375 325.9316Q567.4375 326.57224 567.8281 326.9785Q568.21875 327.38474 568.8594 327.38474Q569.5156 327.38474 569.90625 326.9785Q570.2969 326.57224 570.2969 325.9316Q570.2969 325.27536 569.8906 324.8691Q569.4844 324.44724 568.875 324.44724ZM573.1094 325.32224Q573.1094 324.5566 573.59375 324.0566Q574.09375 323.5566 574.8594 323.5566Q575.6406 323.5566 576.125 324.0566Q576.6094 324.5566 576.6094 325.3535L576.6094 325.77536Q576.6094 326.541 576.1094 327.041Q575.625 327.52536 574.875 327.52536Q574.1094 327.52536 573.6094 327.041Q573.1094 326.541 573.1094 325.7285L573.1094 325.32224ZM573.9219 325.77536Q573.9219 326.2285 574.1719 326.52536Q574.4375 326.82224 574.875 326.82224Q575.2969 326.82224 575.5469 326.541Q575.7969 326.2441 575.7969 325.7441L575.7969 325.32224Q575.7969 324.8691 575.5469 324.57224Q575.2969 324.25974 574.8594 324.25974Q574.4219 324.25974 574.1719 324.57224Q573.9219 324.8691 573.9219 325.33786L573.9219 325.77536ZM577.2656 330.1191Q577.2656 329.3535 577.75 328.8691Q578.25 328.3691 579.0156 328.3691Q579.78125 328.3691 580.2656 328.8691Q580.7656 329.3535 580.7656 330.166L580.7656 330.57224Q580.7656 331.33786 580.28125 331.83786Q579.7969 332.33786 579.03125 332.33786Q578.2656 332.33786 577.7656 331.8535Q577.2656 331.3535 577.2656 330.541L577.2656 330.1191ZM578.0781 330.57224Q578.0781 331.041 578.3281 331.33786Q578.59375 331.63474 579.03125 331.63474Q579.4531 331.63474 579.7031 331.3535Q579.9531 331.0566 579.9531 330.5566L579.9531 330.1191Q579.9531 329.65036 579.6875 329.3691Q579.4375 329.07224 579.0156 329.07224Q578.59375 329.07224 578.3281 329.3691Q578.0781 329.65036 578.0781 330.15036L578.0781 330.57224ZM575.125 331.57224L574.5 331.1816L578.6719 324.50974L579.28125 324.90036L575.125 331.57224Z" fill-rule="nonzero"/><path stroke="#d2b1d5" stroke-width="3.0" stroke-linejoin="round" stroke-linecap="round" d="M185.78125 359.15747L186.96875 359.15747L186.96875 360.03247L185.78125 360.03247L185.78125 362.01685L184.70312 362.01685L184.70312 360.03247L180.8125 360.03247L180.8125 359.39185L184.625 353.4856L185.78125 353.4856L185.78125 359.15747ZM182.04688 359.15747L184.70312 359.15747L184.70312 354.96997L184.5625 355.20435L182.04688 359.15747ZM192.46875 353.4856L192.46875 354.39185L192.26562 354.39185Q191.0 354.4231 190.25 355.15747Q189.5 355.87622 189.375 357.18872Q190.0625 356.4231 191.21875 356.4231Q192.32812 356.4231 193.0 357.20435Q193.67188 357.9856 193.67188 359.2356Q193.67188 360.5481 192.95312 361.34497Q192.23438 362.14185 191.01562 362.14185Q189.79688 362.14185 189.03125 361.20435Q188.28125 360.25122 188.28125 358.76685L188.28125 358.3606Q188.28125 356.00122 189.28125 354.75122Q190.28125 353.50122 192.26562 353.4856L192.46875 353.4856ZM191.04688 357.32935Q190.48438 357.32935 190.01562 357.65747Q189.54688 357.9856 189.35938 358.50122L189.35938 358.89185Q189.35938 359.95435 189.82812 360.59497Q190.3125 361.2356 191.01562 361.2356Q191.75 361.2356 192.17188 360.70435Q192.59375 360.15747 192.59375 359.28247Q192.59375 358.40747 192.17188 357.87622Q191.75 357.32935 191.04688 357.32935ZM195.10938 355.12622Q195.10938 354.3606 195.59375 353.8606Q196.09375 353.3606 196.85938 353.3606Q197.64062 353.3606 198.125 353.8606Q198.60938 354.3606 198.60938 355.15747L198.60938 355.57935Q198.60938 356.34497 198.10938 356.84497Q197.625 357.32935 196.875 357.32935Q196.10938 357.32935 195.60938 356.84497Q195.10938 356.34497 195.10938 355.53247L195.10938 355.12622ZM195.92188 355.57935Q195.92188 356.03247 196.17188 356.32935Q196.4375 356.62622 196.875 356.62622Q197.29688 356.62622 197.54688 356.34497Q197.79688 356.0481 197.79688 355.5481L197.79688 355.12622Q197.79688 354.6731 197.54688 354.37622Q197.29688 354.06372 196.85938 354.06372Q196.42188 354.06372 196.17188 354.37622Q195.92188 354.6731 195.92188 355.14185L195.92188 355.57935ZM199.26562 359.9231Q199.26562 359.15747 199.75 358.6731Q200.25 358.1731 201.01562 358.1731Q201.78125 358.1731 202.26562 358.6731Q202.76562 359.15747 202.76562 359.96997L202.76562 360.37622Q202.76562 361.14185 202.28125 361.64185Q201.79688 362.14185 201.03125 362.14185Q200.26562 362.14185 199.76562 361.65747Q199.26562 361.15747 199.26562 360.34497L199.26562 359.9231ZM200.07812 360.37622Q200.07812 360.84497 200.32812 361.14185Q200.59375 361.43872 201.03125 361.43872Q201.45312 361.43872 201.70312 361.15747Q201.95312 360.8606 201.95312 360.3606L201.95312 359.9231Q201.95312 359.45435 201.6875 359.1731Q201.4375 358.87622 201.01562 358.87622Q200.59375 358.87622 200.32812 359.1731Q200.07812 359.45435 200.07812 359.95435L200.07812 360.37622ZM197.125 361.37622L196.5 360.9856L200.67188 354.31372L201.28125 354.70435L197.125 361.37622Z" fill-rule="nonzero"/><path fill="#000000" d="M185.78125 359.15747L186.96875 359.15747L186.96875 360.03247L185.78125 360.03247L185.78125 362.01685L184.70312 362.01685L184.70312 360.03247L180.8125 360.03247L180.8125 359.39185L184.625 353.4856L185.78125 353.4856L185.78125 359.15747ZM182.04688 359.15747L184.70312 359.15747L184.70312 354.96997L184.5625 355.20435L182.04688 359.15747ZM192.46875 353.4856L192.46875 354.39185L192.26562 354.39185Q191.0 354.4231 190.25 355.15747Q189.5 355.87622 189.375 357.18872Q190.0625 356.4231 191.21875 356.4231Q192.32812 356.4231 193.0 357.20435Q193.67188 357.9856 193.67188 359.2356Q193.67188 360.5481 192.95312 361.34497Q192.23438 362.14185 191.01562 362.14185Q189.79688 362.14185 189.03125 361.20435Q188.28125 360.25122 188.28125 358.76685L188.28125 358.3606Q188.28125 356.00122 189.28125 354.75122Q190.28125 353.50122 192.26562 353.4856L192.46875 353.4856ZM191.04688 357.32935Q190.48438 357.32935 190.01562 357.65747Q189.54688 357.9856 189.35938 358.50122L189.35938 358.89185Q189.35938 359.95435 189.82812 360.59497Q190.3125 361.2356 191.01562 361.2356Q191.75 361.2356 192.17188 360.70435Q192.59375 360.15747 192.59375 359.28247Q192.59375 358.40747 192.17188 357.87622Q191.75 357.32935 191.04688 357.32935ZM195.10938 355.12622Q195.10938 354.3606 195.59375 353.8606Q196.09375 353.3606 196.85938 353.3606Q197.64062 353.3606 198.125 353.8606Q198.60938 354.3606 198.60938 355.15747L198.60938 355.57935Q198.60938 356.34497 198.10938 356.84497Q197.625 357.32935 196.875 357.32935Q196.10938 357.32935 195.60938 356.84497Q195.10938 356.34497 195.10938 355.53247L195.10938 355.12622ZM195.92188 355.57935Q195.92188 356.03247 196.17188 356.32935Q196.4375 356.62622 196.875 356.62622Q197.29688 356.62622 197.54688 356.34497Q197.79688 356.0481 197.79688 355.5481L197.79688 355.12622Q197.79688 354.6731 197.54688 354.37622Q197.29688 354.06372 196.85938 354.06372Q196.42188 354.06372 196.17188 354.37622Q195.92188 354.6731 195.92188 355.14185L195.92188 355.57935ZM199.26562 359.9231Q199.26562 359.15747 199.75 358.6731Q200.25 358.1731 201.01562 358.1731Q201.78125 358.1731 202.26562 358.6731Q202.76562 359.15747 202.76562 359.96997L202.76562 360.37622Q202.76562 361.14185 202.28125 361.64185Q201.79688 362.14185 201.03125 362.14185Q200.26562 362.14185 199.76562 361.65747Q199.26562 361.15747 199.26562 360.34497L199.26562 359.9231ZM200.07812 360.37622Q200.07812 360.84497 200.32812 361.14185Q200.59375 361.43872 201.03125 361.43872Q201.45312 361.43872 201.70312 361.15747Q201.95312 360.8606 201.95312 360.3606L201.95312 359.9231Q201.95312 359.45435 201.6875 359.1731Q201.4375 358.87622 201.01562 358.87622Q200.59375 358.87622 200.32812 359.1731Q200.07812 359.45435 200.07812 359.95435L200.07812 360.37622ZM197.125 361.37622L196.5 360.9856L200.67188 354.31372L201.28125 354.70435L197.125 361.37622Z" fill-rule="nonzero"/><path stroke="#d2b1d5" stroke-width="3.0" stroke-linejoin="round" stroke-linecap="round" d="M374.78125 148.74364L375.96875 148.74364L375.96875 149.61864L374.78125 149.61864L374.78125 151.60301L373.70312 151.60301L373.70312 149.61864L369.8125 149.61864L369.8125 148.97801L373.625 143.07176L374.78125 143.07176L374.78125 148.74364ZM371.04688 148.74364L373.70312 148.74364L373.70312 144.55614L373.5625 144.79051L371.04688 148.74364ZM381.78125 148.74364L382.96875 148.74364L382.96875 149.61864L381.78125 149.61864L381.78125 151.60301L380.70312 151.60301L380.70312 149.61864L376.8125 149.61864L376.8125 148.97801L380.625 143.07176L381.78125 143.07176L381.78125 148.74364ZM378.04688 148.74364L380.70312 148.74364L380.70312 144.55614L380.5625 144.79051L378.04688 148.74364ZM384.10938 144.71239Q384.10938 143.94676 384.59375 143.44676Q385.09375 142.94676 385.85938 142.94676Q386.64062 142.94676 387.125 143.44676Q387.60938 143.94676 387.60938 144.74364L387.60938 145.16551Q387.60938 145.93114 387.10938 146.43114Q386.625 146.91551 385.875 146.91551Q385.10938 146.91551 384.60938 146.43114Q384.10938 145.93114 384.10938 145.11864L384.10938 144.71239ZM384.92188 145.16551Q384.92188 145.61864 385.17188 145.91551Q385.4375 146.21239 385.875 146.21239Q386.29688 146.21239 386.54688 145.93114Q386.79688 145.63426 386.79688 145.13426L386.79688 144.71239Q386.79688 144.25926 386.54688 143.96239Q386.29688 143.64989 385.85938 143.64989Q385.42188 143.64989 385.17188 143.96239Q384.92188 144.25926 384.92188 144.72801L384.92188 145.16551ZM388.26562 149.50926Q388.26562 148.74364 388.75 148.25926Q389.25 147.75926 390.01562 147.75926Q390.78125 147.75926 391.26562 148.25926Q391.76562 148.74364 391.76562 149.55614L391.76562 149.96239Q391.76562 150.72801 391.28125 151.22801Q390.79688 151.72801 390.03125 151.72801Q389.26562 151.72801 388.76562 151.24364Q388.26562 150.74364 388.26562 149.93114L388.26562 149.50926ZM389.07812 149.96239Q389.07812 150.43114 389.32812 150.72801Q389.59375 151.02489 390.03125 151.02489Q390.45312 151.02489 390.70312 150.74364Q390.95312 150.44676 390.95312 149.94676L390.95312 149.50926Q390.95312 149.04051 390.6875 148.75926Q390.4375 148.46239 390.01562 148.46239Q389.59375 148.46239 389.32812 148.75926Q389.07812 149.04051 389.07812 149.54051L389.07812 149.96239ZM386.125 150.96239L385.5 150.57176L389.67188 143.89989L390.28125 144.29051L386.125 150.96239Z" fill-rule="nonzero"/><path fill="#000000" d="M374.78125 148.74364L375.96875 148.74364L375.96875 149.61864L374.78125 149.61864L374.78125 151.60301L373.70312 151.60301L373.70312 149.61864L369.8125 149.61864L369.8125 148.97801L373.625 143.07176L374.78125 143.07176L374.78125 148.74364ZM371.04688 148.74364L373.70312 148.74364L373.70312 144.55614L373.5625 144.79051L371.04688 148.74364ZM381.78125 148.74364L382.96875 148.74364L382.96875 149.61864L381.78125 149.61864L381.78125 151.60301L380.70312 151.60301L380.70312 149.61864L376.8125 149.61864L376.8125 148.97801L380.625 143.07176L381.78125 143.07176L381.78125 148.74364ZM378.04688 148.74364L380.70312 148.74364L380.70312 144.55614L380.5625 144.79051L378.04688 148.74364ZM384.10938 144.71239Q384.10938 143.94676 384.59375 143.44676Q385.09375 142.94676 385.85938 142.94676Q386.64062 142.94676 387.125 143.44676Q387.60938 143.94676 387.60938 144.74364L387.60938 145.16551Q387.60938 145.93114 387.10938 146.43114Q386.625 146.91551 385.875 146.91551Q385.10938 146.91551 384.60938 146.43114Q384.10938 145.93114 384.10938 145.11864L384.10938 144.71239ZM384.92188 145.16551Q384.92188 145.61864 385.17188 145.91551Q385.4375 146.21239 385.875 146.21239Q386.29688 146.21239 386.54688 145.93114Q386.79688 145.63426 386.79688 145.13426L386.79688 144.71239Q386.79688 144.25926 386.54688 143.96239Q386.29688 143.64989 385.85938 143.64989Q385.42188 143.64989 385.17188 143.96239Q384.92188 144.25926 384.92188 144.72801L384.92188 145.16551ZM388.26562 149.50926Q388.26562 148.74364 388.75 148.25926Q389.25 147.75926 390.01562 147.75926Q390.78125 147.75926 391.26562 148.25926Q391.76562 148.74364 391.76562 149.55614L391.76562 149.96239Q391.76562 150.72801 391.28125 151.22801Q390.79688 151.72801 390.03125 151.72801Q389.26562 151.72801 388.76562 151.24364Q388.26562 150.74364 388.26562 149.93114L388.26562 149.50926ZM389.07812 149.96239Q389.07812 150.43114 389.32812 150.72801Q389.59375 151.02489 390.03125 151.02489Q390.45312 151.02489 390.70312 150.74364Q390.95312 150.44676 390.95312 149.94676L390.95312 149.50926Q390.95312 149.04051 390.6875 148.75926Q390.4375 148.46239 390.01562 148.46239Q389.59375 148.46239 389.32812 148.75926Q389.07812 149.04051 389.07812 149.54051L389.07812 149.96239ZM386.125 150.96239L385.5 150.57176L389.67188 143.89989L390.28125 144.29051L386.125 150.96239Z" fill-rule="nonzero"/><path stroke="#d2b1d5" stroke-width="3.0" stroke-linejoin="round" stroke-linecap="round" d="M564.7969 123.363235L559.2031 123.363235L559.2031 122.581985L562.15625 119.300735Q562.8125 118.550735 563.0625 118.09761Q563.3125 117.62886 563.3125 117.12886Q563.3125 116.456985 562.90625 116.03511Q562.5156 115.59761 561.8281 115.59761Q561.03125 115.59761 560.5781 116.06636Q560.125 116.519485 560.125 117.34761L559.0469 117.34761Q559.0469 116.16011 559.7969 115.44136Q560.5625 114.706985 561.8281 114.706985Q563.03125 114.706985 563.71875 115.331985Q564.40625 115.956985 564.40625 117.00386Q564.40625 118.25386 562.7969 120.00386L560.5156 122.47261L564.7969 122.47261L564.7969 123.363235ZM566.7031 119.081985L567.1406 114.831985L571.5156 114.831985L571.5156 115.831985L568.0625 115.831985L567.7969 118.16011Q568.4375 117.78511 569.2344 117.78511Q570.3906 117.78511 571.0781 118.56636Q571.7656 119.331985 571.7656 120.644485Q571.7656 121.956985 571.0469 122.72261Q570.34375 123.488235 569.0625 123.488235Q567.9375 123.488235 567.21875 122.863235Q566.5 122.22261 566.40625 121.113235L567.4219 121.113235Q567.53125 121.84761 567.9531 122.22261Q568.375 122.59761 569.0625 122.59761Q569.8125 122.59761 570.25 122.081985Q570.6875 121.56636 570.6875 120.66011Q570.6875 119.800735 570.21875 119.28511Q569.75 118.769485 568.96875 118.769485Q568.2656 118.769485 567.8594 119.06636L567.5781 119.300735L566.7031 119.081985ZM573.1094 116.47261Q573.1094 115.706985 573.59375 115.206985Q574.09375 114.706985 574.8594 114.706985Q575.6406 114.706985 576.125 115.206985Q576.6094 115.706985 576.6094 116.50386L576.6094 116.925735Q576.6094 117.69136 576.1094 118.19136Q575.625 118.675735 574.875 118.675735Q574.1094 118.675735 573.6094 118.19136Q573.1094 117.69136 573.1094 116.87886L573.1094 116.47261ZM573.9219 116.925735Q573.9219 117.37886 574.1719 117.675735Q574.4375 117.97261 574.875 117.97261Q575.2969 117.97261 575.5469 117.69136Q575.7969 117.394485 575.7969 116.894485L575.7969 116.47261Q575.7969 116.019485 575.5469 115.72261Q575.2969 115.41011 574.8594 115.41011Q574.4219 115.41011 574.1719 115.72261Q573.9219 116.019485 573.9219 116.488235L573.9219 116.925735ZM577.2656 121.269485Q577.2656 120.50386 577.75 120.019485Q578.25 119.519485 579.0156 119.519485Q579.78125 119.519485 580.2656 120.019485Q580.7656 120.50386 580.7656 121.31636L580.7656 121.72261Q580.7656 122.488235 580.28125 122.988235Q579.7969 123.488235 579.03125 123.488235Q578.2656 123.488235 577.7656 123.00386Q577.2656 122.50386 577.2656 121.69136L577.2656 121.269485ZM578.0781 121.72261Q578.0781 122.19136 578.3281 122.488235Q578.59375 122.78511 579.03125 122.78511Q579.4531 122.78511 579.7031 122.50386Q579.9531 122.206985 579.9531 121.706985L579.9531 121.269485Q579.9531 120.800735 579.6875 120.519485Q579.4375 120.22261 579.0156 120.22261Q578.59375 120.22261 578.3281 120.519485Q578.0781 120.800735 578.0781 121.300735L578.0781 121.72261ZM575.125 122.72261L574.5 122.331985L578.6719 115.66011L579.28125 116.050735L575.125 122.72261Z" fill-rule="nonzero"/><path fill="#000000" d="M564.7969 123.363235L559.2031 123.363235L559.2031 122.581985L562.15625 119.300735Q562.8125 118.550735 563.0625 118.09761Q563.3125 117.62886 563.3125 117.12886Q563.3125 116.456985 562.90625 116.03511Q562.5156 115.59761 561.8281 115.59761Q561.03125 115.59761 560.5781 116.06636Q560.125 116.519485 560.125 117.34761L559.0469 117.34761Q559.0469 116.16011 559.7969 115.44136Q560.5625 114.706985 561.8281 114.706985Q563.03125 114.706985 563.71875 115.331985Q564.40625 115.956985 564.40625 117.00386Q564.40625 118.25386 562.7969 120.00386L560.5156 122.47261L564.7969 122.47261L564.7969 123.363235ZM566.7031 119.081985L567.1406 114.831985L571.5156 114.831985L571.5156 115.831985L568.0625 115.831985L567.7969 118.16011Q568.4375 117.78511 569.2344 117.78511Q570.3906 117.78511 571.0781 118.56636Q571.7656 119.331985 571.7656 120.644485Q571.7656 121.956985 571.0469 122.72261Q570.34375 123.488235 569.0625 123.488235Q567.9375 123.488235 567.21875 122.863235Q566.5 122.22261 566.40625 121.113235L567.4219 121.113235Q567.53125 121.84761 567.9531 122.22261Q568.375 122.59761 569.0625 122.59761Q569.8125 122.59761 570.25 122.081985Q570.6875 121.56636 570.6875 120.66011Q570.6875 119.800735 570.21875 119.28511Q569.75 118.769485 568.96875 118.769485Q568.2656 118.769485 567.8594 119.06636L567.5781 119.300735L566.7031 119.081985ZM573.1094 116.47261Q573.1094 115.706985 573.59375 115.206985Q574.09375 114.706985 574.8594 114.706985Q575.6406 114.706985 576.125 115.206985Q576.6094 115.706985 576.6094 116.50386L576.6094 116.925735Q576.6094 117.69136 576.1094 118.19136Q575.625 118.675735 574.875 118.675735Q574.1094 118.675735 573.6094 118.19136Q573.1094 117.69136 573.1094 116.87886L573.1094 116.47261ZM573.9219 116.925735Q573.9219 117.37886 574.1719 117.675735Q574.4375 117.97261 574.875 117.97261Q575.2969 117.97261 575.5469 117.69136Q575.7969 117.394485 575.7969 116.894485L575.7969 116.47261Q575.7969 116.019485 575.5469 115.72261Q575.2969 115.41011 574.8594 115.41011Q574.4219 115.41011 574.1719 115.72261Q573.9219 116.019485 573.9219 116.488235L573.9219 116.925735ZM577.2656 121.269485Q577.2656 120.50386 577.75 120.019485Q578.25 119.519485 579.0156 119.519485Q579.78125 119.519485 580.2656 120.019485Q580.7656 120.50386 580.7656 121.31636L580.7656 121.72261Q580.7656 122.488235 580.28125 122.988235Q579.7969 123.488235 579.03125 123.488235Q578.2656 123.488235 577.7656 123.00386Q577.2656 122.50386 577.2656 121.69136L577.2656 121.269485ZM578.0781 121.72261Q578.0781 122.19136 578.3281 122.488235Q578.59375 122.78511 579.03125 122.78511Q579.4531 122.78511 579.7031 122.50386Q579.9531 122.206985 579.9531 121.706985L579.9531 121.269485Q579.9531 120.800735 579.6875 120.519485Q579.4375 120.22261 579.0156 120.22261Q578.59375 120.22261 578.3281 120.519485Q578.0781 120.800735 578.0781 121.300735L578.0781 121.72261ZM575.125 122.72261L574.5 122.331985L578.6719 115.66011L579.28125 116.050735L575.125 122.72261Z" fill-rule="nonzero"/><path stroke="#d5c695" stroke-width="3.0" stroke-linejoin="round" stroke-linecap="round" d="M185.78125 145.55916L186.96875 145.55916L186.96875 146.43416L185.78125 146.43416L185.78125 148.41853L184.70312 148.41853L184.70312 146.43416L180.8125 146.43416L180.8125 145.79353L184.625 139.88728L185.78125 139.88728L185.78125 145.55916ZM182.04688 145.55916L184.70312 145.55916L184.70312 141.37166L184.5625 141.60603L182.04688 145.55916ZM192.35938 144.66853Q192.03125 145.07478 191.54688 145.32478Q191.07812 145.55916 190.51562 145.55916Q189.78125 145.55916 189.23438 145.19978Q188.6875 144.84041 188.39062 144.18416Q188.09375 143.51228 188.09375 142.71541Q188.09375 141.87166 188.40625 141.18416Q188.73438 140.49666 189.32812 140.13728Q189.9375 139.76228 190.73438 139.76228Q192.0 139.76228 192.71875 140.71541Q193.45312 141.66853 193.45312 143.29353L193.45312 143.60603Q193.45312 146.10603 192.46875 147.24666Q191.48438 148.38728 189.5 148.41853L189.28125 148.41853L189.28125 147.51228L189.51562 147.51228Q190.85938 147.48103 191.57812 146.80916Q192.29688 146.13728 192.35938 144.66853ZM190.6875 144.66853Q191.23438 144.66853 191.6875 144.34041Q192.15625 143.99666 192.375 143.51228L192.375 143.07478Q192.375 142.01228 191.90625 141.34041Q191.4375 140.66853 190.73438 140.66853Q190.01562 140.66853 189.57812 141.21541Q189.15625 141.76228 189.15625 142.66853Q189.15625 143.54353 189.5625 144.10603Q189.98438 144.66853 190.6875 144.66853ZM195.10938 141.52791Q195.10938 140.76228 195.59375 140.26228Q196.09375 139.76228 196.85938 139.76228Q197.64062 139.76228 198.125 140.26228Q198.60938 140.76228 198.60938 141.55916L198.60938 141.98103Q198.60938 142.74666 198.10938 143.24666Q197.625 143.73103 196.875 143.73103Q196.10938 143.73103 195.60938 143.24666Q195.10938 142.74666 195.10938 141.93416L195.10938 141.52791ZM195.92188 141.98103Q195.92188 142.43416 196.17188 142.73103Q196.4375 143.02791 196.875 143.02791Q197.29688 143.02791 197.54688 142.74666Q197.79688 142.44978 197.79688 141.94978L197.79688 141.52791Q197.79688 141.07478 197.54688 140.77791Q197.29688 140.46541 196.85938 140.46541Q196.42188 140.46541 196.17188 140.77791Q195.92188 141.07478 195.92188 141.54353L195.92188 141.98103ZM199.26562 146.32478Q199.26562 145.55916 199.75 145.07478Q200.25 144.57478 201.01562 144.57478Q201.78125 144.57478 202.26562 145.07478Q202.76562 145.55916 202.76562 146.37166L202.76562 146.77791Q202.76562 147.54353 202.28125 148.04353Q201.79688 148.54353 201.03125 148.54353Q200.26562 148.54353 199.76562 148.05916Q199.26562 147.55916 199.26562 146.74666L199.26562 146.32478ZM200.07812 146.77791Q200.07812 147.24666 200.32812 147.54353Q200.59375 147.84041 201.03125 147.84041Q201.45312 147.84041 201.70312 147.55916Q201.95312 147.26228 201.95312 146.76228L201.95312 146.32478Q201.95312 145.85603 201.6875 145.57478Q201.4375 145.27791 201.01562 145.27791Q200.59375 145.27791 200.32812 145.57478Q200.07812 145.85603 200.07812 146.35603L200.07812 146.77791ZM197.125 147.77791L196.5 147.38728L200.67188 140.71541L201.28125 141.10603L197.125 147.77791Z" fill-rule="nonzero"/><path fill="#000000" d="M185.78125 145.55916L186.96875 145.55916L186.96875 146.43416L185.78125 146.43416L185.78125 148.41853L184.70312 148.41853L184.70312 146.43416L180.8125 146.43416L180.8125 145.79353L184.625 139.88728L185.78125 139.88728L185.78125 145.55916ZM182.04688 145.55916L184.70312 145.55916L184.70312 141.37166L184.5625 141.60603L182.04688 145.55916ZM192.35938 144.66853Q192.03125 145.07478 191.54688 145.32478Q191.07812 145.55916 190.51562 145.55916Q189.78125 145.55916 189.23438 145.19978Q188.6875 144.84041 188.39062 144.18416Q188.09375 143.51228 188.09375 142.71541Q188.09375 141.87166 188.40625 141.18416Q188.73438 140.49666 189.32812 140.13728Q189.9375 139.76228 190.73438 139.76228Q192.0 139.76228 192.71875 140.71541Q193.45312 141.66853 193.45312 143.29353L193.45312 143.60603Q193.45312 146.10603 192.46875 147.24666Q191.48438 148.38728 189.5 148.41853L189.28125 148.41853L189.28125 147.51228L189.51562 147.51228Q190.85938 147.48103 191.57812 146.80916Q192.29688 146.13728 192.35938 144.66853ZM190.6875 144.66853Q191.23438 144.66853 191.6875 144.34041Q192.15625 143.99666 192.375 143.51228L192.375 143.07478Q192.375 142.01228 191.90625 141.34041Q191.4375 140.66853 190.73438 140.66853Q190.01562 140.66853 189.57812 141.21541Q189.15625 141.76228 189.15625 142.66853Q189.15625 143.54353 189.5625 144.10603Q189.98438 144.66853 190.6875 144.66853ZM195.10938 141.52791Q195.10938 140.76228 195.59375 140.26228Q196.09375 139.76228 196.85938 139.76228Q197.64062 139.76228 198.125 140.26228Q198.60938 140.76228 198.60938 141.55916L198.60938 141.98103Q198.60938 142.74666 198.10938 143.24666Q197.625 143.73103 196.875 143.73103Q196.10938 143.73103 195.60938 143.24666Q195.10938 142.74666 195.10938 141.93416L195.10938 141.52791ZM195.92188 141.98103Q195.92188 142.43416 196.17188 142.73103Q196.4375 143.02791 196.875 143.02791Q197.29688 143.02791 197.54688 142.74666Q197.79688 142.44978 197.79688 141.94978L197.79688 141.52791Q197.79688 141.07478 197.54688 140.77791Q197.29688 140.46541 196.85938 140.46541Q196.42188 140.46541 196.17188 140.77791Q195.92188 141.07478 195.92188 141.54353L195.92188 141.98103ZM199.26562 146.32478Q199.26562 145.55916 199.75 145.07478Q200.25 144.57478 201.01562 144.57478Q201.78125 144.57478 202.26562 145.07478Q202.76562 145.55916 202.76562 146.37166L202.76562 146.77791Q202.76562 147.54353 202.28125 148.04353Q201.79688 148.54353 201.03125 148.54353Q200.26562 148.54353 199.76562 148.05916Q199.26562 147.55916 199.26562 146.74666L199.26562 146.32478ZM200.07812 146.77791Q200.07812 147.24666 200.32812 147.54353Q200.59375 147.84041 201.03125 147.84041Q201.45312 147.84041 201.70312 147.55916Q201.95312 147.26228 201.95312 146.76228L201.95312 146.32478Q201.95312 145.85603 201.6875 145.57478Q201.4375 145.27791 201.01562 145.27791Q200.59375 145.27791 200.32812 145.57478Q200.07812 145.85603 200.07812 146.35603L200.07812 146.77791ZM197.125 147.77791L196.5 147.38728L200.67188 140.71541L201.28125 141.10603L197.125 147.77791Z" fill-rule="nonzero"/><path stroke="#d5c695" stroke-width="3.0" stroke-linejoin="round" stroke-linecap="round" d="M375.28125 40.765194L376.09375 40.765194Q376.875 40.74957 377.3125 40.358944Q377.75 39.96832 377.75 39.296444Q377.75 37.796444 376.25 37.796444Q375.54688 37.796444 375.125 38.202694Q374.71875 38.608944 374.71875 39.265194L373.625 39.265194Q373.625 38.24957 374.35938 37.577694Q375.10938 36.90582 376.25 36.90582Q377.45312 36.90582 378.14062 37.546444Q378.82812 38.18707 378.82812 39.327694Q378.82812 39.890194 378.46875 40.40582Q378.10938 40.921444 377.48438 41.18707Q378.1875 41.40582 378.5625 41.921444Q378.95312 42.43707 378.95312 43.18707Q378.95312 44.327694 378.20312 45.015194Q377.45312 45.68707 376.25 45.68707Q375.0625 45.68707 374.29688 45.03082Q373.54688 44.37457 373.54688 43.31207L374.64062 43.31207Q374.64062 43.983944 375.07812 44.390194Q375.51562 44.796444 376.26562 44.796444Q377.04688 44.796444 377.45312 44.390194Q377.875 43.96832 377.875 43.202694Q377.875 42.46832 377.42188 42.077694Q376.96875 41.671444 376.09375 41.65582L375.28125 41.65582L375.28125 40.765194ZM380.60938 38.671444Q380.60938 37.90582 381.09375 37.40582Q381.59375 36.90582 382.35938 36.90582Q383.14062 36.90582 383.625 37.40582Q384.10938 37.90582 384.10938 38.702694L384.10938 39.12457Q384.10938 39.890194 383.60938 40.390194Q383.125 40.87457 382.375 40.87457Q381.60938 40.87457 381.10938 40.390194Q380.60938 39.890194 380.60938 39.077694L380.60938 38.671444ZM381.42188 39.12457Q381.42188 39.577694 381.67188 39.87457Q381.9375 40.171444 382.375 40.171444Q382.79688 40.171444 383.04688 39.890194Q383.29688 39.59332 383.29688 39.09332L383.29688 38.671444Q383.29688 38.21832 383.04688 37.921444Q382.79688 37.608944 382.35938 37.608944Q381.92188 37.608944 381.67188 37.921444Q381.42188 38.21832 381.42188 38.68707L381.42188 39.12457ZM384.76562 43.46832Q384.76562 42.702694 385.25 42.21832Q385.75 41.71832 386.51562 41.71832Q387.28125 41.71832 387.76562 42.21832Q388.26562 42.702694 388.26562 43.515194L388.26562 43.921444Q388.26562 44.68707 387.78125 45.18707Q387.29688 45.68707 386.53125 45.68707Q385.76562 45.68707 385.26562 45.202694Q384.76562 44.702694 384.76562 43.890194L384.76562 43.46832ZM385.57812 43.921444Q385.57812 44.390194 385.82812 44.68707Q386.09375 44.983944 386.53125 44.983944Q386.95312 44.983944 387.20312 44.702694Q387.45312 44.40582 387.45312 43.90582L387.45312 43.46832Q387.45312 42.99957 387.1875 42.71832Q386.9375 42.421444 386.51562 42.421444Q386.09375 42.421444 385.82812 42.71832Q385.57812 42.99957 385.57812 43.49957L385.57812 43.921444ZM382.625 44.921444L382.0 44.53082L386.17188 37.858944L386.78125 38.24957L382.625 44.921444Z" fill-rule="nonzero"/><path fill="#000000" d="M375.28125 40.765194L376.09375 40.765194Q376.875 40.74957 377.3125 40.358944Q377.75 39.96832 377.75 39.296444Q377.75 37.796444 376.25 37.796444Q375.54688 37.796444 375.125 38.202694Q374.71875 38.608944 374.71875 39.265194L373.625 39.265194Q373.625 38.24957 374.35938 37.577694Q375.10938 36.90582 376.25 36.90582Q377.45312 36.90582 378.14062 37.546444Q378.82812 38.18707 378.82812 39.327694Q378.82812 39.890194 378.46875 40.40582Q378.10938 40.921444 377.48438 41.18707Q378.1875 41.40582 378.5625 41.921444Q378.95312 42.43707 378.95312 43.18707Q378.95312 44.327694 378.20312 45.015194Q377.45312 45.68707 376.25 45.68707Q375.0625 45.68707 374.29688 45.03082Q373.54688 44.37457 373.54688 43.31207L374.64062 43.31207Q374.64062 43.983944 375.07812 44.390194Q375.51562 44.796444 376.26562 44.796444Q377.04688 44.796444 377.45312 44.390194Q377.875 43.96832 377.875 43.202694Q377.875 42.46832 377.42188 42.077694Q376.96875 41.671444 376.09375 41.65582L375.28125 41.65582L375.28125 40.765194ZM380.60938 38.671444Q380.60938 37.90582 381.09375 37.40582Q381.59375 36.90582 382.35938 36.90582Q383.14062 36.90582 383.625 37.40582Q384.10938 37.90582 384.10938 38.702694L384.10938 39.12457Q384.10938 39.890194 383.60938 40.390194Q383.125 40.87457 382.375 40.87457Q381.60938 40.87457 381.10938 40.390194Q380.60938 39.890194 380.60938 39.077694L380.60938 38.671444ZM381.42188 39.12457Q381.42188 39.577694 381.67188 39.87457Q381.9375 40.171444 382.375 40.171444Q382.79688 40.171444 383.04688 39.890194Q383.29688 39.59332 383.29688 39.09332L383.29688 38.671444Q383.29688 38.21832 383.04688 37.921444Q382.79688 37.608944 382.35938 37.608944Q381.92188 37.608944 381.67188 37.921444Q381.42188 38.21832 381.42188 38.68707L381.42188 39.12457ZM384.76562 43.46832Q384.76562 42.702694 385.25 42.21832Q385.75 41.71832 386.51562 41.71832Q387.28125 41.71832 387.76562 42.21832Q388.26562 42.702694 388.26562 43.515194L388.26562 43.921444Q388.26562 44.68707 387.78125 45.18707Q387.29688 45.68707 386.53125 45.68707Q385.76562 45.68707 385.26562 45.202694Q384.76562 44.702694 384.76562 43.890194L384.76562 43.46832ZM385.57812 43.921444Q385.57812 44.390194 385.82812 44.68707Q386.09375 44.983944 386.53125 44.983944Q386.95312 44.983944 387.20312 44.702694Q387.45312 44.40582 387.45312 43.90582L387.45312 43.46832Q387.45312 42.99957 387.1875 42.71832Q386.9375 42.421444 386.51562 42.421444Q386.09375 42.421444 385.82812 42.71832Q385.57812 42.99957 385.57812 43.49957L385.57812 43.921444ZM382.625 44.921444L382.0 44.53082L386.17188 37.858944L386.78125 38.24957L382.625 44.921444Z" fill-rule="nonzero"/><path stroke="#d5c695" stroke-width="3.0" stroke-linejoin="round" stroke-linecap="round" d="M568.21875 44.728493L564.6875 52.650368L563.5469 52.650368L567.0625 45.009743L562.4531 45.009743L562.4531 44.119118L568.21875 44.119118L568.21875 44.728493ZM569.6094 45.759743Q569.6094 44.994118 570.09375 44.494118Q570.59375 43.994118 571.3594 43.994118Q572.1406 43.994118 572.625 44.494118Q573.1094 44.994118 573.1094 45.790993L573.1094 46.212868Q573.1094 46.978493 572.6094 47.478493Q572.125 47.962868 571.375 47.962868Q570.6094 47.962868 570.1094 47.478493Q569.6094 46.978493 569.6094 46.165993L569.6094 45.759743ZM570.4219 46.212868Q570.4219 46.665993 570.6719 46.962868Q570.9375 47.259743 571.375 47.259743Q571.7969 47.259743 572.0469 46.978493Q572.2969 46.681618 572.2969 46.181618L572.2969 45.759743Q572.2969 45.306618 572.0469 45.009743Q571.7969 44.697243 571.3594 44.697243Q570.9219 44.697243 570.6719 45.009743Q570.4219 45.306618 570.4219 45.775368L570.4219 46.212868ZM573.7656 50.556618Q573.7656 49.790993 574.25 49.306618Q574.75 48.806618 575.5156 48.806618Q576.28125 48.806618 576.7656 49.306618Q577.2656 49.790993 577.2656 50.603493L577.2656 51.009743Q577.2656 51.775368 576.78125 52.275368Q576.2969 52.775368 575.53125 52.775368Q574.7656 52.775368 574.2656 52.290993Q573.7656 51.790993 573.7656 50.978493L573.7656 50.556618ZM574.5781 51.009743Q574.5781 51.478493 574.8281 51.775368Q575.09375 52.072243 575.53125 52.072243Q575.9531 52.072243 576.2031 51.790993Q576.4531 51.494118 576.4531 50.994118L576.4531 50.556618Q576.4531 50.087868 576.1875 49.806618Q575.9375 49.509743 575.5156 49.509743Q575.09375 49.509743 574.8281 49.806618Q574.5781 50.087868 574.5781 50.587868L574.5781 51.009743ZM571.625 52.009743L571.0 51.619118L575.1719 44.947243L575.78125 45.337868L571.625 52.009743Z" fill-rule="nonzero"/><path fill="#000000" d="M568.21875 44.728493L564.6875 52.650368L563.5469 52.650368L567.0625 45.009743L562.4531 45.009743L562.4531 44.119118L568.21875 44.119118L568.21875 44.728493ZM569.6094 45.759743Q569.6094 44.994118 570.09375 44.494118Q570.59375 43.994118 571.3594 43.994118Q572.1406 43.994118 572.625 44.494118Q573.1094 44.994118 573.1094 45.790993L573.1094 46.212868Q573.1094 46.978493 572.6094 47.478493Q572.125 47.962868 571.375 47.962868Q570.6094 47.962868 570.1094 47.478493Q569.6094 46.978493 569.6094 46.165993L569.6094 45.759743ZM570.4219 46.212868Q570.4219 46.665993 570.6719 46.962868Q570.9375 47.259743 571.375 47.259743Q571.7969 47.259743 572.0469 46.978493Q572.2969 46.681618 572.2969 46.181618L572.2969 45.759743Q572.2969 45.306618 572.0469 45.009743Q571.7969 44.697243 571.3594 44.697243Q570.9219 44.697243 570.6719 45.009743Q570.4219 45.306618 570.4219 45.775368L570.4219 46.212868ZM573.7656 50.556618Q573.7656 49.790993 574.25 49.306618Q574.75 48.806618 575.5156 48.806618Q576.28125 48.806618 576.7656 49.306618Q577.2656 49.790993 577.2656 50.603493L577.2656 51.009743Q577.2656 51.775368 576.78125 52.275368Q576.2969 52.775368 575.53125 52.775368Q574.7656 52.775368 574.2656 52.290993Q573.7656 51.790993 573.7656 50.978493L573.7656 50.556618ZM574.5781 51.009743Q574.5781 51.478493 574.8281 51.775368Q575.09375 52.072243 575.53125 52.072243Q575.9531 52.072243 576.2031 51.790993Q576.4531 51.494118 576.4531 50.994118L576.4531 50.556618Q576.4531 50.087868 576.1875 49.806618Q575.9375 49.509743 575.5156 49.509743Q575.09375 49.509743 574.8281 49.806618Q574.5781 50.087868 574.5781 50.587868L574.5781 51.009743ZM571.625 52.009743L571.0 51.619118L575.1719 44.947243L575.78125 45.337868L571.625 52.009743Z" fill-rule="nonzero"/><path fill="#000000" d="M40.85 480.41562Q40.85 478.88437 41.1625 477.9625Q41.475 477.025 42.084373 476.525Q42.709373 476.025 43.646873 476.025Q44.334373 476.025 44.85 476.30624Q45.38125 476.5875 45.725 477.11874Q46.06875 477.63437 46.25625 478.38437Q46.44375 479.13437 46.44375 480.41562Q46.44375 481.93124 46.13125 482.85312Q45.834373 483.775 45.209373 484.29062Q44.6 484.79062 43.646873 484.79062Q42.4125 484.79062 41.69375 483.9Q40.85 482.8375 40.85 480.41562ZM41.928123 480.41562Q41.928123 482.525 42.428123 483.22812Q42.928123 483.93124 43.646873 483.93124Q44.38125 483.93124 44.865623 483.22812Q45.365623 482.525 45.365623 480.41562Q45.365623 478.29062 44.865623 477.60312Q44.38125 476.9 43.63125 476.9Q42.9125 476.9 42.475 477.50937Q41.928123 478.29062 41.928123 480.41562ZM48.053123 478.11874Q48.053123 477.19687 48.50625 476.55624Q48.975 475.91562 49.85 475.91562Q50.6625 475.91562 51.19375 476.49374Q51.725 477.07187 51.725 478.18124Q51.725 479.275 51.178123 479.86874Q50.646873 480.44687 49.865623 480.44687Q49.084373 480.44687 48.56875 479.86874Q48.053123 479.29062 48.053123 478.11874ZM49.88125 476.63437Q49.490623 476.63437 49.225 476.97812Q48.975 477.32187 48.975 478.22812Q48.975 479.05624 49.225 479.4Q49.490623 479.72812 49.88125 479.72812Q50.2875 479.72812 50.5375 479.38437Q50.803123 479.04062 50.803123 478.15Q50.803123 477.30624 50.5375 476.97812Q50.271873 476.63437 49.88125 476.63437ZM49.88125 484.9625L54.584373 475.91562L55.44375 475.91562L50.75625 484.9625L49.88125 484.9625ZM53.6 482.63437Q53.6 481.7125 54.053123 481.07187Q54.521873 480.43124 55.4125 480.43124Q56.225 480.43124 56.75625 481.00937Q57.2875 481.57187 57.2875 482.69687Q57.2875 483.79062 56.740623 484.38437Q56.209373 484.9625 55.4125 484.9625Q54.646873 484.9625 54.115623 484.38437Q53.6 483.80624 53.6 482.63437ZM55.44375 481.15Q55.0375 481.15 54.771873 481.49374Q54.521873 481.8375 54.521873 482.74374Q54.521873 483.55624 54.7875 483.9Q55.053123 484.24374 55.44375 484.24374Q55.834373 484.24374 56.1 483.9Q56.365623 483.55624 56.365623 482.65Q56.365623 481.82187 56.1 481.49374Q55.834373 481.15 55.44375 481.15Z" fill-rule="nonzero"/><path fill="#000000" d="M39.396873 371.8094L39.396873 372.825L33.709373 372.825Q33.709373 372.45 33.834373 372.09064Q34.053123 371.5125 34.521873 370.95Q35.00625 370.3875 35.9125 369.65314Q37.31875 368.4969 37.803123 367.825Q38.303123 367.15314 38.303123 366.5594Q38.303123 365.9344 37.85 365.5125Q37.396873 365.075 36.678123 365.075Q35.9125 365.075 35.459373 365.52814Q35.00625 365.98126 34.990623 366.79376L33.9125 366.6844Q34.021873 365.46564 34.740623 364.84064Q35.475 364.2 36.709373 364.2Q37.94375 364.2 38.6625 364.8875Q39.38125 365.575 39.38125 366.59064Q39.38125 367.10626 39.1625 367.60626Q38.959373 368.09064 38.459373 368.65314Q37.975 369.2 36.85 370.15314Q35.896873 370.95 35.615623 371.2469Q35.35 371.52814 35.178123 371.8094L39.396873 371.8094ZM40.85 370.575L41.959373 370.48126Q42.084373 371.29376 42.521873 371.7Q42.975 372.10626 43.615623 372.10626Q44.365623 372.10626 44.896873 371.52814Q45.428123 370.95 45.428123 370.0125Q45.428123 369.10626 44.9125 368.59064Q44.4125 368.0594 43.584373 368.0594Q43.084373 368.0594 42.6625 368.29376Q42.25625 368.52814 42.021873 368.8875L41.0375 368.7625L41.865623 364.35626L46.146873 364.35626L46.146873 365.35626L42.709373 365.35626L42.25625 367.66876Q43.021873 367.1219 43.865623 367.1219Q44.990623 367.1219 45.75625 367.90314Q46.5375 368.6844 46.5375 369.91876Q46.5375 371.075 45.865623 371.9344Q45.0375 372.96564 43.615623 372.96564Q42.44375 372.96564 41.69375 372.3094Q40.959373 371.65314 40.85 370.575ZM48.053123 366.29376Q48.053123 365.3719 48.50625 364.73126Q48.975 364.09064 49.85 364.09064Q50.6625 364.09064 51.19375 364.66876Q51.725 365.2469 51.725 366.35626Q51.725 367.45 51.178123 368.04376Q50.646873 368.6219 49.865623 368.6219Q49.084373 368.6219 48.56875 368.04376Q48.053123 367.46564 48.053123 366.29376ZM49.88125 364.8094Q49.490623 364.8094 49.225 365.15314Q48.975 365.4969 48.975 366.40314Q48.975 367.23126 49.225 367.575Q49.490623 367.90314 49.88125 367.90314Q50.2875 367.90314 50.5375 367.5594Q50.803123 367.21564 50.803123 366.325Q50.803123 365.48126 50.5375 365.15314Q50.271873 364.8094 49.88125 364.8094ZM49.88125 373.1375L54.584373 364.09064L55.44375 364.09064L50.75625 373.1375L49.88125 373.1375ZM53.6 370.8094Q53.6 369.8875 54.053123 369.2469Q54.521873 368.60626 55.4125 368.60626Q56.225 368.60626 56.75625 369.1844Q57.2875 369.7469 57.2875 370.8719Q57.2875 371.96564 56.740623 372.5594Q56.209373 373.1375 55.4125 373.1375Q54.646873 373.1375 54.115623 372.5594Q53.6 371.98126 53.6 370.8094ZM55.44375 369.325Q55.0375 369.325 54.771873 369.66876Q54.521873 370.0125 54.521873 370.91876Q54.521873 371.73126 54.7875 372.075Q55.053123 372.41876 55.44375 372.41876Q55.834373 372.41876 56.1 372.075Q56.365623 371.73126 56.365623 370.825Q56.365623 369.9969 56.1 369.66876Q55.834373 369.325 55.44375 369.325Z" fill-rule="nonzero"/><path fill="#000000" d="M33.85 258.75L34.959373 258.65625Q35.084373 259.46875 35.521873 259.875Q35.975 260.28125 36.615623 260.28125Q37.365623 260.28125 37.896873 259.70312Q38.428123 259.125 38.428123 258.1875Q38.428123 257.28125 37.9125 256.76562Q37.4125 256.23438 36.584373 256.23438Q36.084373 256.23438 35.6625 256.46875Q35.25625 256.70312 35.021873 257.0625L34.0375 256.9375L34.865623 252.53125L39.146873 252.53125L39.146873 253.53125L35.709373 253.53125L35.25625 255.84375Q36.021873 255.29688 36.865623 255.29688Q37.990623 255.29688 38.75625 256.07812Q39.5375 256.85938 39.5375 258.09375Q39.5375 259.25 38.865623 260.10938Q38.0375 261.14062 36.615623 261.14062Q35.44375 261.14062 34.69375 260.48438Q33.959373 259.82812 33.85 258.75ZM40.85 256.76562Q40.85 255.23438 41.1625 254.3125Q41.475 253.375 42.084373 252.875Q42.709373 252.375 43.646873 252.375Q44.334373 252.375 44.85 252.65625Q45.38125 252.9375 45.725 253.46875Q46.06875 253.98438 46.25625 254.73438Q46.44375 255.48438 46.44375 256.76562Q46.44375 258.28125 46.13125 259.20312Q45.834373 260.125 45.209373 260.64062Q44.6 261.14062 43.646873 261.14062Q42.4125 261.14062 41.69375 260.25Q40.85 259.1875 40.85 256.76562ZM41.928123 256.76562Q41.928123 258.875 42.428123 259.57812Q42.928123 260.28125 43.646873 260.28125Q44.38125 260.28125 44.865623 259.57812Q45.365623 258.875 45.365623 256.76562Q45.365623 254.64062 44.865623 253.95312Q44.38125 253.25 43.63125 253.25Q42.9125 253.25 42.475 253.85938Q41.928123 254.64062 41.928123 256.76562ZM48.053123 254.46875Q48.053123 253.54688 48.50625 252.90625Q48.975 252.26562 49.85 252.26562Q50.6625 252.26562 51.19375 252.84375Q51.725 253.42188 51.725 254.53125Q51.725 255.625 51.178123 256.21875Q50.646873 256.79688 49.865623 256.79688Q49.084373 256.79688 48.56875 256.21875Q48.053123 255.64062 48.053123 254.46875ZM49.88125 252.98438Q49.490623 252.98438 49.225 253.32812Q48.975 253.67188 48.975 254.57812Q48.975 255.40625 49.225 255.75Q49.490623 256.07812 49.88125 256.07812Q50.2875 256.07812 50.5375 255.73438Q50.803123 255.39062 50.803123 254.5Q50.803123 253.65625 50.5375 253.32812Q50.271873 252.98438 49.88125 252.98438ZM49.88125 261.3125L54.584373 252.26562L55.44375 252.26562L50.75625 261.3125L49.88125 261.3125ZM53.6 258.98438Q53.6 258.0625 54.053123 257.42188Q54.521873 256.78125 55.4125 256.78125Q56.225 256.78125 56.75625 257.35938Q57.2875 257.92188 57.2875 259.04688Q57.2875 260.14062 56.740623 260.73438Q56.209373 261.3125 55.4125 261.3125Q54.646873 261.3125 54.115623 260.73438Q53.6 260.15625 53.6 258.98438ZM55.44375 257.5Q55.0375 257.5 54.771873 257.84375Q54.521873 258.1875 54.521873 259.09375Q54.521873 259.90625 54.7875 260.25Q55.053123 260.59375 55.44375 260.59375Q55.834373 260.59375 56.1 260.25Q56.365623 259.90625 56.365623 259.0Q56.365623 258.17188 56.1 257.84375Q55.834373 257.5 55.44375 257.5Z" fill-rule="nonzero"/><path fill="#000000" d="M33.9125 141.70625L33.9125 140.69063L39.475 140.69063L39.475 141.51875Q38.6625 142.39375 37.85 143.84688Q37.053123 145.28438 36.615623 146.81563Q36.2875 147.89375 36.209373 149.175L35.115623 149.175Q35.13125 148.15938 35.50625 146.72188Q35.896873 145.28438 36.6 143.95625Q37.31875 142.62813 38.13125 141.70625L33.9125 141.70625ZM40.85 146.925L41.959373 146.83125Q42.084373 147.64375 42.521873 148.05Q42.975 148.45625 43.615623 148.45625Q44.365623 148.45625 44.896873 147.87813Q45.428123 147.3 45.428123 146.3625Q45.428123 145.45625 44.9125 144.94063Q44.4125 144.40938 43.584373 144.40938Q43.084373 144.40938 42.6625 144.64375Q42.25625 144.87813 42.021873 145.2375L41.0375 145.1125L41.865623 140.70625L46.146873 140.70625L46.146873 141.70625L42.709373 141.70625L42.25625 144.01875Q43.021873 143.47188 43.865623 143.47188Q44.990623 143.47188 45.75625 144.25313Q46.5375 145.03438 46.5375 146.26875Q46.5375 147.425 45.865623 148.28438Q45.0375 149.31563 43.615623 149.31563Q42.44375 149.31563 41.69375 148.65938Q40.959373 148.00313 40.85 146.925ZM48.053123 142.64375Q48.053123 141.72188 48.50625 141.08125Q48.975 140.44063 49.85 140.44063Q50.6625 140.44063 51.19375 141.01875Q51.725 141.59688 51.725 142.70625Q51.725 143.8 51.178123 144.39375Q50.646873 144.97188 49.865623 144.97188Q49.084373 144.97188 48.56875 144.39375Q48.053123 143.81563 48.053123 142.64375ZM49.88125 141.15938Q49.490623 141.15938 49.225 141.50313Q48.975 141.84688 48.975 142.75313Q48.975 143.58125 49.225 143.925Q49.490623 144.25313 49.88125 144.25313Q50.2875 144.25313 50.5375 143.90938Q50.803123 143.56563 50.803123 142.675Q50.803123 141.83125 50.5375 141.50313Q50.271873 141.15938 49.88125 141.15938ZM49.88125 149.4875L54.584373 140.44063L55.44375 140.44063L50.75625 149.4875L49.88125 149.4875ZM53.6 147.15938Q53.6 146.2375 54.053123 145.59688Q54.521873 144.95625 55.4125 144.95625Q56.225 144.95625 56.75625 145.53438Q57.2875 146.09688 57.2875 147.22188Q57.2875 148.31563 56.740623 148.90938Q56.209373 149.4875 55.4125 149.4875Q54.646873 149.4875 54.115623 148.90938Q53.6 148.33125 53.6 147.15938ZM55.44375 145.675Q55.0375 145.675 54.771873 146.01875Q54.521873 146.3625 54.521873 147.26875Q54.521873 148.08125 54.7875 148.425Q55.053123 148.76875 55.44375 148.76875Q55.834373 148.76875 56.1 148.425Q56.365623 148.08125 56.365623 147.175Q56.365623 146.34688 56.1 146.01875Q55.834373 145.675 55.44375 145.675Z" fill-rule="nonzero"/><path fill="#000000" d="M30.81875 37.35L29.771875 37.35L29.771875 30.631248Q29.38125 30.990623 28.75625 31.365623Q28.146875 31.724998 27.6625 31.896873L27.6625 30.881248Q28.5375 30.459373 29.19375 29.881248Q29.865625 29.287498 30.146875 28.724998L30.81875 28.724998L30.81875 37.35ZM33.85 33.115623Q33.85 31.584373 34.1625 30.662498Q34.475 29.724998 35.084373 29.224998Q35.709373 28.724998 36.646873 28.724998Q37.334373 28.724998 37.85 29.006248Q38.38125 29.287498 38.725 29.818748Q39.06875 30.334373 39.25625 31.084373Q39.44375 31.834373 39.44375 33.115623Q39.44375 34.63125 39.13125 35.553123Q38.834373 36.475 38.209373 36.990623Q37.6 37.490623 36.646873 37.490623Q35.4125 37.490623 34.69375 36.6Q33.85 35.5375 33.85 33.115623ZM34.928123 33.115623Q34.928123 35.225 35.428123 35.928123Q35.928123 36.63125 36.646873 36.63125Q37.38125 36.63125 37.865623 35.928123Q38.365623 35.225 38.365623 33.115623Q38.365623 30.990623 37.865623 30.303123Q37.38125 29.599998 36.63125 29.599998Q35.9125 29.599998 35.475 30.209373Q34.928123 30.990623 34.928123 33.115623ZM40.85 33.115623Q40.85 31.584373 41.1625 30.662498Q41.475 29.724998 42.084373 29.224998Q42.709373 28.724998 43.646873 28.724998Q44.334373 28.724998 44.85 29.006248Q45.38125 29.287498 45.725 29.818748Q46.06875 30.334373 46.25625 31.084373Q46.44375 31.834373 46.44375 33.115623Q46.44375 34.63125 46.13125 35.553123Q45.834373 36.475 45.209373 36.990623Q44.6 37.490623 43.646873 37.490623Q42.4125 37.490623 41.69375 36.6Q40.85 35.5375 40.85 33.115623ZM41.928123 33.115623Q41.928123 35.225 42.428123 35.928123Q42.928123 36.63125 43.646873 36.63125Q44.38125 36.63125 44.865623 35.928123Q45.365623 35.225 45.365623 33.115623Q45.365623 30.990623 44.865623 30.303123Q44.38125 29.599998 43.63125 29.599998Q42.9125 29.599998 42.475 30.209373Q41.928123 30.990623 41.928123 33.115623ZM48.053123 30.818748Q48.053123 29.896873 48.50625 29.256248Q48.975 28.615623 49.85 28.615623Q50.6625 28.615623 51.19375 29.193748Q51.725 29.771873 51.725 30.881248Q51.725 31.974998 51.178123 32.56875Q50.646873 33.146873 49.865623 33.146873Q49.084373 33.146873 48.56875 32.56875Q48.053123 31.990623 48.053123 30.818748ZM49.88125 29.334373Q49.490623 29.334373 49.225 29.678123Q48.975 30.021873 48.975 30.928123Q48.975 31.756248 49.225 32.1Q49.490623 32.428123 49.88125 32.428123Q50.2875 32.428123 50.5375 32.084373Q50.803123 31.740623 50.803123 30.849998Q50.803123 30.006248 50.5375 29.678123Q50.271873 29.334373 49.88125 29.334373ZM49.88125 37.6625L54.584373 28.615623L55.44375 28.615623L50.75625 37.6625L49.88125 37.6625ZM53.6 35.334373Q53.6 34.4125 54.053123 33.771873Q54.521873 33.13125 55.4125 33.13125Q56.225 33.13125 56.75625 33.709373Q57.2875 34.271873 57.2875 35.396873Q57.2875 36.490623 56.740623 37.084373Q56.209373 37.6625 55.4125 37.6625Q54.646873 37.6625 54.115623 37.084373Q53.6 36.50625 53.6 35.334373ZM55.44375 33.85Q55.0375 33.85 54.771873 34.19375Q54.521873 34.5375 54.521873 35.44375Q54.521873 36.25625 54.7875 36.6Q55.053123 36.94375 55.44375 36.94375Q55.834373 36.94375 56.1 36.6Q56.365623 36.25625 56.365623 35.35Q56.365623 34.521873 56.1 34.19375Q55.834373 33.85 55.44375 33.85Z" fill-rule="nonzero"/><path fill="#000000" d="M184.07866 496.63437L184.07866 497.65L178.39116 497.65Q178.39116 497.275 178.51616 496.91562Q178.73491 496.3375 179.20366 495.775Q179.68803 495.2125 180.59428 494.47812Q182.00053 493.32187 182.48491 492.65Q182.98491 491.97812 182.98491 491.38437Q182.98491 490.75937 182.53178 490.3375Q182.07866 489.9 181.35991 489.9Q180.59428 489.9 180.14116 490.35312Q179.68803 490.80624 179.67241 491.61874L178.59428 491.50937Q178.70366 490.29062 179.42241 489.66562Q180.15678 489.025 181.39116 489.025Q182.62553 489.025 183.34428 489.7125Q184.06303 490.4 184.06303 491.41562Q184.06303 491.93124 183.84428 492.43124Q183.64116 492.91562 183.14116 493.47812Q182.65678 494.025 181.53178 494.97812Q180.57866 495.775 180.29741 496.07187Q180.03178 496.35312 179.85991 496.63437L184.07866 496.63437ZM185.53178 493.41562Q185.53178 491.88437 185.84428 490.9625Q186.15678 490.025 186.76616 489.525Q187.39116 489.025 188.32866 489.025Q189.01616 489.025 189.53178 489.30624Q190.06303 489.5875 190.40678 490.11874Q190.75053 490.63437 190.93803 491.38437Q191.12553 492.13437 191.12553 493.41562Q191.12553 494.93124 190.81303 495.85312Q190.51616 496.775 189.89116 497.29062Q189.28178 497.79062 188.32866 497.79062Q187.09428 497.79062 186.37553 496.9Q185.53178 495.8375 185.53178 493.41562ZM186.60991 493.41562Q186.60991 495.525 187.10991 496.22812Q187.60991 496.93124 188.32866 496.93124Q189.06303 496.93124 189.54741 496.22812Q190.04741 495.525 190.04741 493.41562Q190.04741 491.29062 189.54741 490.60312Q189.06303 489.9 188.31303 489.9Q187.59428 489.9 187.15678 490.50937Q186.60991 491.29062 186.60991 493.41562ZM196.50053 497.65L195.45366 497.65L195.45366 490.93124Q195.06303 491.29062 194.43803 491.66562Q193.82866 492.025 193.34428 492.19687L193.34428 491.18124Q194.21928 490.75937 194.87553 490.18124Q195.54741 489.5875 195.82866 489.025L196.50053 489.025L196.50053 497.65ZM205.07866 496.63437L205.07866 497.65L199.39116 497.65Q199.39116 497.275 199.51616 496.91562Q199.73491 496.3375 200.20366 495.775Q200.68803 495.2125 201.59428 494.47812Q203.00053 493.32187 203.48491 492.65Q203.98491 491.97812 203.98491 491.38437Q203.98491 490.75937 203.53178 490.3375Q203.07866 489.9 202.35991 489.9Q201.59428 489.9 201.14116 490.35312Q200.68803 490.80624 200.67241 491.61874L199.59428 491.50937Q199.70366 490.29062 200.42241 489.66562Q201.15678 489.025 202.39116 489.025Q203.62553 489.025 204.34428 489.7125Q205.06303 490.4 205.06303 491.41562Q205.06303 491.93124 204.84428 492.43124Q204.64116 492.91562 204.14116 493.47812Q203.65678 494.025 202.53178 494.97812Q201.57866 495.775 201.29741 496.07187Q201.03178 496.35312 200.85991 496.63437L205.07866 496.63437Z" fill-rule="nonzero"/><path fill="#000000" d="M373.23688 496.63437L373.23688 497.65L367.54938 497.65Q367.54938 497.275 367.67438 496.91562Q367.89313 496.3375 368.36188 495.775Q368.84625 495.2125 369.7525 494.47812Q371.15875 493.32187 371.64313 492.65Q372.14313 491.97812 372.14313 491.38437Q372.14313 490.75937 371.69 490.3375Q371.23688 489.9 370.51813 489.9Q369.7525 489.9 369.29938 490.35312Q368.84625 490.80624 368.83063 491.61874L367.7525 491.50937Q367.86188 490.29062 368.58063 489.66562Q369.315 489.025 370.54938 489.025Q371.78375 489.025 372.5025 489.7125Q373.22125 490.4 373.22125 491.41562Q373.22125 491.93124 373.0025 492.43124Q372.79938 492.91562 372.29938 493.47812Q371.815 494.025 370.69 494.97812Q369.73688 495.775 369.45563 496.07187Q369.19 496.35312 369.01813 496.63437L373.23688 496.63437ZM374.69 493.41562Q374.69 491.88437 375.0025 490.9625Q375.315 490.025 375.92438 489.525Q376.54938 489.025 377.48688 489.025Q378.17438 489.025 378.69 489.30624Q379.22125 489.5875 379.565 490.11874Q379.90875 490.63437 380.09625 491.38437Q380.28375 492.13437 380.28375 493.41562Q380.28375 494.93124 379.97125 495.85312Q379.67438 496.775 379.04938 497.29062Q378.44 497.79062 377.48688 497.79062Q376.2525 497.79062 375.53375 496.9Q374.69 495.8375 374.69 493.41562ZM375.76813 493.41562Q375.76813 495.525 376.26813 496.22812Q376.76813 496.93124 377.48688 496.93124Q378.22125 496.93124 378.70563 496.22812Q379.20563 495.525 379.20563 493.41562Q379.20563 491.29062 378.70563 490.60312Q378.22125 489.9 377.47125 489.9Q376.7525 489.9 376.315 490.50937Q375.76813 491.29062 375.76813 493.41562ZM385.65875 497.65L384.61188 497.65L384.61188 490.93124Q384.22125 491.29062 383.59625 491.66562Q382.98688 492.025 382.5025 492.19687L382.5025 491.18124Q383.3775 490.75937 384.03375 490.18124Q384.70563 489.5875 384.98688 489.025L385.65875 489.025L385.65875 497.65ZM388.7525 490.18124L388.7525 489.16562L394.315 489.16562L394.315 489.99374Q393.5025 490.86874 392.69 492.32187Q391.89313 493.75937 391.45563 495.29062Q391.1275 496.36874 391.04938 497.65L389.95563 497.65Q389.97125 496.63437 390.34625 495.19687Q390.73688 493.75937 391.44 492.43124Q392.15875 491.10312 392.97125 490.18124L388.7525 490.18124Z" fill-rule="nonzero"/><path fill="#000000" d="M562.3951 496.63437L562.3951 497.65L556.7076 497.65Q556.7076 497.275 556.8326 496.91562Q557.05133 496.3375 557.5201 495.775Q558.00446 495.2125 558.9107 494.47812Q560.31696 493.32187 560.80133 492.65Q561.30133 491.97812 561.30133 491.38437Q561.30133 490.75937 560.8482 490.3375Q560.3951 489.9 559.67633 489.9Q558.9107 489.9 558.4576 490.35312Q558.00446 490.80624 557.98883 491.61874L556.9107 491.50937Q557.0201 490.29062 557.73883 489.66562Q558.4732 489.025 559.7076 489.025Q560.94196 489.025 561.6607 489.7125Q562.37946 490.4 562.37946 491.41562Q562.37946 491.93124 562.1607 492.43124Q561.9576 492.91562 561.4576 493.47812Q560.9732 494.025 559.8482 494.97812Q558.8951 495.775 558.61383 496.07187Q558.3482 496.35312 558.17633 496.63437L562.3951 496.63437ZM563.8482 493.41562Q563.8482 491.88437 564.1607 490.9625Q564.4732 490.025 565.0826 489.525Q565.7076 489.025 566.6451 489.025Q567.3326 489.025 567.8482 489.30624Q568.37946 489.5875 568.7232 490.11874Q569.06696 490.63437 569.25446 491.38437Q569.44196 492.13437 569.44196 493.41562Q569.44196 494.93124 569.12946 495.85312Q568.8326 496.775 568.2076 497.29062Q567.5982 497.79062 566.6451 497.79062Q565.4107 497.79062 564.69196 496.9Q563.8482 495.8375 563.8482 493.41562ZM564.92633 493.41562Q564.92633 495.525 565.42633 496.22812Q565.92633 496.93124 566.6451 496.93124Q567.37946 496.93124 567.86383 496.22812Q568.36383 495.525 568.36383 493.41562Q568.36383 491.29062 567.86383 490.60312Q567.37946 489.9 566.62946 489.9Q565.9107 489.9 565.4732 490.50937Q564.92633 491.29062 564.92633 493.41562ZM576.3951 496.63437L576.3951 497.65L570.7076 497.65Q570.7076 497.275 570.8326 496.91562Q571.05133 496.3375 571.5201 495.775Q572.00446 495.2125 572.9107 494.47812Q574.31696 493.32187 574.80133 492.65Q575.30133 491.97812 575.30133 491.38437Q575.30133 490.75937 574.8482 490.3375Q574.3951 489.9 573.67633 489.9Q572.9107 489.9 572.4576 490.35312Q572.00446 490.80624 571.98883 491.61874L570.9107 491.50937Q571.0201 490.29062 571.73883 489.66562Q572.4732 489.025 573.7076 489.025Q574.94196 489.025 575.6607 489.7125Q576.37946 490.4 576.37946 491.41562Q576.37946 491.93124 576.1607 492.43124Q575.9576 492.91562 575.4576 493.47812Q574.9732 494.025 573.8482 494.97812Q572.8951 495.775 572.61383 496.07187Q572.3482 496.35312 572.17633 496.63437L576.3951 496.63437ZM583.3951 496.63437L583.3951 497.65L577.7076 497.65Q577.7076 497.275 577.8326 496.91562Q578.05133 496.3375 578.5201 495.775Q579.00446 495.2125 579.9107 494.47812Q581.31696 493.32187 581.80133 492.65Q582.30133 491.97812 582.30133 491.38437Q582.30133 490.75937 581.8482 490.3375Q581.3951 489.9 580.67633 489.9Q579.9107 489.9 579.4576 490.35312Q579.00446 490.80624 578.98883 491.61874L577.9107 491.50937Q578.0201 490.29062 578.73883 489.66562Q579.4732 489.025 580.7076 489.025Q581.94196 489.025 582.6607 489.7125Q583.37946 490.4 583.37946 491.41562Q583.37946 491.93124 583.1607 492.43124Q582.9576 492.91562 582.4576 493.47812Q581.9732 494.025 580.8482 494.97812Q579.8951 495.775 579.61383 496.07187Q579.3482 496.35312 579.17633 496.63437L583.3951 496.63437Z" fill-rule="nonzero"/><path fill="#d5c695" d="M729.65 28.35C729.65 27.797716 730.0977 27.35 730.65 27.35L740.65 27.35C741.2023 27.35 741.65 27.797716 741.65 28.35L741.65 38.35C741.65 38.902287 741.2023 39.35 740.65 39.35L730.65 39.35C730.0977 39.35 729.65 38.902287 729.65 38.35Z" fill-rule="nonzero"/><path fill="#1a1a1a" d="M751.41565 37.35L750.4313 37.35L750.4313 28.756248L751.4938 28.756248L751.4938 31.818748Q752.16565 30.990623 753.1969 30.990623Q753.775 30.990623 754.275 31.224998Q754.79065 31.443748 755.1188 31.865623Q755.4625 32.2875 755.65 32.88125Q755.8375 33.475 755.8375 34.146873Q755.8375 35.740623 755.04065 36.615623Q754.2438 37.490623 753.15 37.490623Q752.04065 37.490623 751.41565 36.56875L751.41565 37.35ZM751.4 34.19375Q751.4 35.303123 751.7125 35.803123Q752.2125 36.615623 753.0563 36.615623Q753.7438 36.615623 754.2438 36.021873Q754.7594 35.428123 754.7594 34.225Q754.7594 33.00625 754.275 32.428123Q753.79065 31.849998 753.10315 31.849998Q752.41565 31.849998 751.9 32.459373Q751.4 33.053123 751.4 34.19375ZM757.41565 37.35L757.41565 28.756248L758.47815 28.756248L758.47815 37.35L757.41565 37.35ZM760.0563 34.240623Q760.0563 32.50625 761.0094 31.678123Q761.8063 30.990623 762.9625 30.990623Q764.2438 30.990623 765.0563 31.834373Q765.8844 32.6625 765.8844 34.146873Q765.8844 35.35 765.525 36.0375Q765.16565 36.725 764.4625 37.115623Q763.775 37.490623 762.9625 37.490623Q761.66565 37.490623 760.85315 36.6625Q760.0563 35.81875 760.0563 34.240623ZM761.1344 34.240623Q761.1344 35.428123 761.65 36.021873Q762.1813 36.615623 762.9625 36.615623Q763.7594 36.615623 764.275 36.021873Q764.79065 35.428123 764.79065 34.209373Q764.79065 33.053123 764.2594 32.459373Q763.7438 31.865623 762.9625 31.865623Q762.1813 31.865623 761.65 32.459373Q761.1344 33.0375 761.1344 34.240623ZM767.2438 37.865623L768.275 38.021873Q768.3375 38.490623 768.6344 38.709373Q769.025 39.00625 769.6969 39.00625Q770.4313 39.00625 770.8219 38.709373Q771.22815 38.4125 771.3688 37.896873Q771.4625 37.56875 771.4469 36.5375Q770.7594 37.35 769.72815 37.35Q768.4469 37.35 767.7438 36.428123Q767.04065 35.490623 767.04065 34.209373Q767.04065 33.31875 767.35315 32.56875Q767.6813 31.803123 768.29065 31.396873Q768.9 30.990623 769.72815 30.990623Q770.8375 30.990623 771.5563 31.881248L771.5563 31.131248L772.525 31.131248L772.525 36.50625Q772.525 37.959373 772.22815 38.56875Q771.9313 39.178123 771.29065 39.521873Q770.65 39.88125 769.7125 39.88125Q768.60315 39.88125 767.91565 39.38125Q767.22815 38.88125 767.2438 37.865623ZM768.1188 34.13125Q768.1188 35.35 768.60315 35.9125Q769.0875 36.475 769.8219 36.475Q770.5563 36.475 771.04065 35.9125Q771.54065 35.35 771.54065 34.1625Q771.54065 33.021873 771.025 32.44375Q770.525 31.865623 769.8063 31.865623Q769.10315 31.865623 768.60315 32.44375Q768.1188 33.00625 768.1188 34.13125Z" fill-rule="nonzero"/><path fill="#d2b1d5" d="M729.65 52.35C729.65 51.797714 730.0977 51.35 730.65 51.35L740.65 51.35C741.2023 51.35 741.65 51.797714 741.65 52.35L741.65 62.35C741.65 62.902287 741.2023 63.35 740.65 63.35L730.65 63.35C730.0977 63.35 729.65 62.902287 729.65 62.35Z" fill-rule="nonzero"/><path fill="#1a1a1a" d="M750.025 59.490623L751.0563 59.334373Q751.15 59.959373 751.54065 60.2875Q751.9469 60.615623 752.6813 60.615623Q753.4 60.615623 753.7438 60.334373Q754.10315 60.0375 754.10315 59.63125Q754.10315 59.271873 753.79065 59.06875Q753.5719 58.928123 752.7125 58.709373Q751.5563 58.4125 751.10315 58.209373Q750.66565 57.990623 750.4313 57.615623Q750.1969 57.240623 750.1969 56.771873Q750.1969 56.365623 750.3844 56.00625Q750.5719 55.646873 750.9 55.4125Q751.15 55.240623 751.5719 55.115623Q751.9938 54.990623 752.4938 54.990623Q753.2125 54.990623 753.7594 55.209373Q754.3219 55.4125 754.5875 55.771873Q754.85315 56.13125 754.9469 56.725L753.91565 56.865623Q753.85315 56.396873 753.5094 56.13125Q753.1813 55.85 752.5563 55.85Q751.8375 55.85 751.525 56.1Q751.2125 56.334373 751.2125 56.6625Q751.2125 56.865623 751.3375 57.021873Q751.47815 57.19375 751.7438 57.303123Q751.9 57.365623 752.6813 57.56875Q753.8063 57.88125 754.2438 58.06875Q754.6813 58.25625 754.9313 58.615623Q755.1813 58.975 755.1813 59.521873Q755.1813 60.053123 754.8688 60.521873Q754.5719 60.975 753.9938 61.240623Q753.41565 61.490623 752.6813 61.490623Q751.4625 61.490623 750.8219 60.990623Q750.1969 60.475 750.025 59.490623ZM757.4469 53.975L757.4469 52.75625L758.5094 52.75625L758.5094 53.975L757.4469 53.975ZM757.4469 61.35L757.4469 55.13125L758.5094 55.13125L758.5094 61.35L757.4469 61.35ZM762.7438 60.4125L762.9 61.334373Q762.4469 61.428123 762.10315 61.428123Q761.525 61.428123 761.2125 61.25625Q760.9 61.06875 760.7594 60.771873Q760.6344 60.475 760.6344 59.521873L760.6344 55.94375L759.8688 55.94375L759.8688 55.13125L760.6344 55.13125L760.6344 53.584373L761.6813 52.959373L761.6813 55.13125L762.7438 55.13125L762.7438 55.94375L761.6813 55.94375L761.6813 59.584373Q761.6813 60.0375 761.72815 60.1625Q761.79065 60.2875 761.91565 60.365623Q762.04065 60.44375 762.275 60.44375Q762.4625 60.44375 762.7438 60.4125ZM767.6969 59.35L768.79065 59.475Q768.54065 60.428123 767.8375 60.959373Q767.1344 61.490623 766.0563 61.490623Q764.6969 61.490623 763.8844 60.646873Q763.0875 59.803123 763.0875 58.2875Q763.0875 56.725 763.9 55.865623Q764.7125 54.990623 765.9938 54.990623Q767.2438 54.990623 768.025 55.834373Q768.8219 56.678123 768.8219 58.225Q768.8219 58.31875 768.8219 58.50625L764.1813 58.50625Q764.2438 59.5375 764.7594 60.084373Q765.275 60.615623 766.0563 60.615623Q766.6344 60.615623 767.04065 60.31875Q767.4625 60.00625 767.6969 59.35ZM764.2438 57.646873L767.7125 57.646873Q767.65 56.85 767.3219 56.459373Q766.8063 55.85 766.0094 55.85Q765.275 55.85 764.775 56.334373Q764.29065 56.81875 764.2438 57.646873Z" fill-rule="nonzero"/><path fill="#86d2ce" d="M729.65 76.35C729.65 75.797714 730.0977 75.35 730.65 75.35L740.65 75.35C741.2023 75.35 741.65 75.797714 741.65 76.35L741.65 86.35C741.65 86.90228 741.2023 87.35 740.65 87.35L730.65 87.35C730.0977 87.35 729.65 86.90228 729.65 86.35Z" fill-rule="nonzero"/><path fill="#1a1a1a" d="M750.4313 85.35L750.4313 79.13125L751.3844 79.13125L751.3844 80.06875Q751.7438 79.4125 752.04065 79.20937Q752.35315 78.99062 752.72815 78.99062Q753.2594 78.99062 753.8063 79.31875L753.4469 80.30312Q753.0563 80.06875 752.6813 80.06875Q752.3219 80.06875 752.04065 80.2875Q751.775 80.49062 751.66565 80.86562Q751.47815 81.42812 751.47815 82.08437L751.47815 85.35L750.4313 85.35ZM758.6969 83.35L759.79065 83.475Q759.54065 84.42812 758.8375 84.95937Q758.1344 85.49062 757.0563 85.49062Q755.6969 85.49062 754.8844 84.64687Q754.0875 83.80312 754.0875 82.2875Q754.0875 80.725 754.9 79.86562Q755.7125 78.99062 756.9938 78.99062Q758.2438 78.99062 759.025 79.83437Q759.8219 80.67812 759.8219 82.225Q759.8219 82.31875 759.8219 82.50625L755.1813 82.50625Q755.2438 83.5375 755.7594 84.08437Q756.275 84.61562 757.0563 84.61562Q757.6344 84.61562 758.04065 84.31875Q758.4625 84.00625 758.6969 83.35ZM755.2438 81.64687L758.7125 81.64687Q758.65 80.85 758.3219 80.45937Q757.8063 79.85 757.0094 79.85Q756.275 79.85 755.775 80.33437Q755.29065 80.81875 755.2438 81.64687ZM756.3688 78.35L757.15 76.70937L758.54065 76.70937L757.2438 78.35L756.3688 78.35ZM761.025 83.49062L762.0563 83.33437Q762.15 83.95937 762.54065 84.2875Q762.9469 84.61562 763.6813 84.61562Q764.4 84.61562 764.7438 84.33437Q765.10315 84.0375 765.10315 83.63125Q765.10315 83.27187 764.79065 83.06875Q764.5719 82.92812 763.7125 82.70937Q762.5563 82.4125 762.10315 82.20937Q761.66565 81.99062 761.4313 81.61562Q761.1969 81.24062 761.1969 80.77187Q761.1969 80.36562 761.3844 80.00625Q761.5719 79.64687 761.9 79.4125Q762.15 79.24062 762.5719 79.11562Q762.9938 78.99062 763.4938 78.99062Q764.2125 78.99062 764.7594 79.20937Q765.3219 79.4125 765.5875 79.77187Q765.85315 80.13125 765.9469 80.725L764.91565 80.86562Q764.85315 80.39687 764.5094 80.13125Q764.1813 79.85 763.5563 79.85Q762.8375 79.85 762.525 80.1Q762.2125 80.33437 762.2125 80.6625Q762.2125 80.86562 762.3375 81.02187Q762.47815 81.19375 762.7438 81.30312Q762.9 81.36562 763.6813 81.56875Q764.8063 81.88125 765.2438 82.06875Q765.6813 82.25625 765.9313 82.61562Q766.1813 82.975 766.1813 83.52187Q766.1813 84.05312 765.8688 84.52187Q765.5719 84.975 764.9938 85.24062Q764.41565 85.49062 763.6813 85.49062Q762.4625 85.49062 761.8219 84.99062Q761.1969 84.475 761.025 83.49062ZM772.6969 83.35L773.79065 83.475Q773.54065 84.42812 772.8375 84.95937Q772.1344 85.49062 771.0563 85.49062Q769.6969 85.49062 768.8844 84.64687Q768.0875 83.80312 768.0875 82.2875Q768.0875 80.725 768.9 79.86562Q769.7125 78.99062 770.9938 78.99062Q772.2438 78.99062 773.025 79.83437Q773.8219 80.67812 773.8219 82.225Q773.8219 82.31875 773.8219 82.50625L769.1813 82.50625Q769.2438 83.5375 769.7594 84.08437Q770.275 84.61562 771.0563 84.61562Q771.6344 84.61562 772.04065 84.31875Q772.4625 84.00625 772.6969 83.35ZM769.2438 81.64687L772.7125 81.64687Q772.65 80.85 772.3219 80.45937Q771.8063 79.85 771.0094 79.85Q770.275 79.85 769.775 80.33437Q769.29065 80.81875 769.2438 81.64687ZM779.5094 84.58437Q778.91565 85.08437 778.3688 85.2875Q777.8375 85.49062 777.2125 85.49062Q776.1813 85.49062 775.6344 84.99062Q775.0875 84.49062 775.0875 83.70937Q775.0875 83.25625 775.29065 82.88125Q775.4938 82.49062 775.8375 82.27187Q776.1813 82.0375 776.60315 81.92812Q776.9 81.83437 777.54065 81.75625Q778.8063 81.61562 779.41565 81.39687Q779.41565 81.17812 779.41565 81.13125Q779.41565 80.475 779.1188 80.20937Q778.7125 79.86562 777.91565 79.86562Q777.1813 79.86562 776.8219 80.13125Q776.4625 80.38125 776.29065 81.0375L775.2594 80.89687Q775.4 80.24062 775.72815 79.83437Q776.0563 79.42812 776.66565 79.20937Q777.275 78.99062 778.0719 78.99062Q778.8688 78.99062 779.3688 79.17812Q779.8688 79.36562 780.10315 79.64687Q780.3375 79.92812 780.4313 80.36562Q780.47815 80.63125 780.47815 81.33437L780.47815 82.74062Q780.47815 84.20937 780.54065 84.6Q780.6188 84.99062 780.8219 85.35L779.7125 85.35Q779.5563 85.02187 779.5094 84.58437ZM779.41565 82.225Q778.8375 82.45937 777.6969 82.63125Q777.04065 82.725 776.775 82.85Q776.5094 82.95937 776.35315 83.17812Q776.2125 83.39687 776.2125 83.67812Q776.2125 84.1 776.525 84.38125Q776.85315 84.6625 777.4625 84.6625Q778.0719 84.6625 778.54065 84.39687Q779.025 84.13125 779.2438 83.6625Q779.41565 83.30312 779.41565 82.61562L779.41565 82.225ZM786.525 85.35L786.525 84.42812Q785.79065 85.49062 784.54065 85.49062Q783.9938 85.49062 783.5094 85.2875Q783.04065 85.06875 782.8063 84.75625Q782.5719 84.42812 782.47815 83.95937Q782.41565 83.6625 782.41565 82.975L782.41565 79.13125L783.47815 79.13125L783.47815 82.58437Q783.47815 83.39687 783.54065 83.69375Q783.6344 84.1 783.9469 84.35Q784.275 84.58437 784.7594 84.58437Q785.22815 84.58437 785.6344 84.35Q786.0563 84.1 786.22815 83.67812Q786.41565 83.25625 786.41565 82.45937L786.41565 79.13125L787.4625 79.13125L787.4625 85.35L786.525 85.35ZM792.025 83.49062L793.0563 83.33437Q793.15 83.95937 793.54065 84.2875Q793.9469 84.61562 794.6813 84.61562Q795.4 84.61562 795.7438 84.33437Q796.10315 84.0375 796.10315 83.63125Q796.10315 83.27187 795.79065 83.06875Q795.5719 82.92812 794.7125 82.70937Q793.5563 82.4125 793.10315 82.20937Q792.66565 81.99062 792.4313 81.61562Q792.1969 81.24062 792.1969 80.77187Q792.1969 80.36562 792.3844 80.00625Q792.5719 79.64687 792.9 79.4125Q793.15 79.24062 793.5719 79.11562Q793.9938 78.99062 794.4938 78.99062Q795.2125 78.99062 795.7594 79.20937Q796.3219 79.4125 796.5875 79.77187Q796.85315 80.13125 796.9469 80.725L795.91565 80.86562Q795.85315 80.39687 795.5094 80.13125Q795.1813 79.85 794.5563 79.85Q793.8375 79.85 793.525 80.1Q793.2125 80.33437 793.2125 80.6625Q793.2125 80.86562 793.3375 81.02187Q793.47815 81.19375 793.7438 81.30312Q793.9 81.36562 794.6813 81.56875Q795.8063 81.88125 796.2438 82.06875Q796.6813 82.25625 796.9313 82.61562Q797.1813 82.975 797.1813 83.52187Q797.1813 84.05312 796.8688 84.52187Q796.5719 84.975 795.9938 85.24062Q795.41565 85.49062 794.6813 85.49062Q793.4625 85.49062 792.8219 84.99062Q792.1969 84.475 792.025 83.49062ZM799.0563 82.24062Q799.0563 80.50625 800.0094 79.67812Q800.8063 78.99062 801.9625 78.99062Q803.2438 78.99062 804.0563 79.83437Q804.8844 80.6625 804.8844 82.14687Q804.8844 83.35 804.525 84.0375Q804.16565 84.725 803.4625 85.11562Q802.775 85.49062 801.9625 85.49062Q800.66565 85.49062 799.85315 84.6625Q799.0563 83.81875 799.0563 82.24062ZM800.1344 82.24062Q800.1344 83.42812 800.65 84.02187Q801.1813 84.61562 801.9625 84.61562Q802.7594 84.61562 803.275 84.02187Q803.79065 83.42812 803.79065 82.20937Q803.79065 81.05312 803.2594 80.45937Q802.7438 79.86562 801.9625 79.86562Q801.1813 79.86562 800.65 80.45937Q800.1344 81.0375 800.1344 82.24062ZM810.5094 83.06875L811.54065 83.20937Q811.3688 84.27187 810.66565 84.88125Q809.9625 85.49062 808.9469 85.49062Q807.66565 85.49062 806.8844 84.6625Q806.1188 83.81875 806.1188 82.25625Q806.1188 81.25625 806.4469 80.50625Q806.79065 79.74062 807.4625 79.36562Q808.15 78.99062 808.9625 78.99062Q809.9625 78.99062 810.60315 79.50625Q811.2594 80.00625 811.4469 80.95937L810.41565 81.11562Q810.275 80.49062 809.9 80.17812Q809.525 79.85 808.9938 79.85Q808.1969 79.85 807.6969 80.42812Q807.1969 80.99062 807.1969 82.225Q807.1969 83.49062 807.6813 84.05312Q808.16565 84.61562 808.9313 84.61562Q809.5563 84.61562 809.9625 84.24062Q810.3844 83.86562 810.5094 83.06875ZM812.4469 77.975L812.4469 76.75625L813.5094 76.75625L813.5094 77.975L812.4469 77.975ZM812.4469 85.35L812.4469 79.13125L813.5094 79.13125L813.5094 85.35L812.4469 85.35ZM819.5094 84.58437Q818.91565 85.08437 818.3688 85.2875Q817.8375 85.49062 817.2125 85.49062Q816.1813 85.49062 815.6344 84.99062Q815.0875 84.49062 815.0875 83.70937Q815.0875 83.25625 815.29065 82.88125Q815.4938 82.49062 815.8375 82.27187Q816.1813 82.0375 816.60315 81.92812Q816.9 81.83437 817.54065 81.75625Q818.8063 81.61562 819.41565 81.39687Q819.41565 81.17812 819.41565 81.13125Q819.41565 80.475 819.1188 80.20937Q818.7125 79.86562 817.91565 79.86562Q817.1813 79.86562 816.8219 80.13125Q816.4625 80.38125 816.29065 81.0375L815.2594 80.89687Q815.4 80.24062 815.72815 79.83437Q816.0563 79.42812 816.66565 79.20937Q817.275 78.99062 818.0719 78.99062Q818.8688 78.99062 819.3688 79.17812Q819.8688 79.36562 820.10315 79.64687Q820.3375 79.92812 820.4313 80.36562Q820.47815 80.63125 820.47815 81.33437L820.47815 82.74062Q820.47815 84.20937 820.54065 84.6Q820.6188 84.99062 820.8219 85.35L819.7125 85.35Q819.5563 85.02187 819.5094 84.58437ZM819.41565 82.225Q818.8375 82.45937 817.6969 82.63125Q817.04065 82.725 816.775 82.85Q816.5094 82.95937 816.35315 83.17812Q816.2125 83.39687 816.2125 83.67812Q816.2125 84.1 816.525 84.38125Q816.85315 84.6625 817.4625 84.6625Q818.0719 84.6625 818.54065 84.39687Q819.025 84.13125 819.2438 83.6625Q819.41565 83.30312 819.41565 82.61562L819.41565 82.225ZM822.41565 85.35L822.41565 76.75625L823.47815 76.75625L823.47815 85.35L822.41565 85.35Z" fill-rule="nonzero"/></svg>
