<svg version="1.1" viewBox="0.0 0.0 600.0 371.0" fill="none" stroke="none" stroke-linecap="square" stroke-miterlimit="10" width="600" height="371" xmlns:xlink="http://www.w3.org/1999/xlink" xmlns="http://www.w3.org/2000/svg"><path fill="#ffffff" d="M0 0L600.0 0L600.0 371.0L0 371.0L0 0Z" fill-rule="nonzero"/><path stroke="#333333" stroke-width="1.0" stroke-linecap="butt" d="M45.5 332.5L581.5 332.5" fill-rule="nonzero"/><path stroke="#cccccc" stroke-width="1.0" stroke-linecap="butt" d="M45.5 238.5L581.5 238.5" fill-rule="nonzero"/><path stroke="#cccccc" stroke-width="1.0" stroke-linecap="butt" d="M45.5 145.5L581.5 145.5" fill-rule="nonzero"/><path stroke="#cccccc" stroke-width="1.0" stroke-linecap="butt" d="M45.5 51.5L581.5 51.5" fill-rule="nonzero"/><path stroke="#e6e6e6" stroke-width="1.0" stroke-linecap="butt" d="M45.5 301.5L581.5 301.5" fill-rule="nonzero"/><path stroke="#e6e6e6" stroke-width="1.0" stroke-linecap="butt" d="M45.5 270.5L581.5 270.5" fill-rule="nonzero"/><path stroke="#e6e6e6" stroke-width="1.0" stroke-linecap="butt" d="M45.5 207.5L581.5 207.5" fill-rule="nonzero"/><path stroke="#e6e6e6" stroke-width="1.0" stroke-linecap="butt" d="M45.5 176.5L581.5 176.5" fill-rule="nonzero"/><path stroke="#e6e6e6" stroke-width="1.0" stroke-linecap="butt" d="M45.5 114.5L581.5 114.5" fill-rule="nonzero"/><path stroke="#e6e6e6" stroke-width="1.0" stroke-linecap="butt" d="M45.5 83.5L581.5 83.5" fill-rule="nonzero"/><clipPath id="id_0"><path d="M45.55 51.916668L581.45 51.916668L581.45 332.45L45.55 332.45L45.55 51.916668Z" clip-rule="nonzero"/></clipPath><path stroke="#4285f4" stroke-width="2.0" stroke-linecap="butt" clip-path="url(#id_0)" d="M134.86667 292.70776L313.5 280.55133L492.13333 272.60287" fill-rule="nonzero"/><path stroke="#ea4335" stroke-width="2.0" stroke-linecap="butt" clip-path="url(#id_0)" d="M134.86667 330.57977L313.5 330.1122L492.13333 328.70956" fill-rule="nonzero"/><path stroke="#fbbc04" stroke-width="2.0" stroke-linecap="butt" clip-path="url(#id_0)" d="M134.86667 142.15489L313.5 254.36823L492.13333 93.52911" fill-rule="nonzero"/><path fill="#000000" fill-opacity="0.0" clip-path="url(#id_0)" d="M137.86667 292.70776C137.86667 294.36462 136.52351 295.70776 134.86667 295.70776C133.20981 295.70776 131.86667 294.36462 131.86667 292.70776C131.86667 291.05093 133.20981 289.70776 134.86667 289.70776C136.52351 289.70776 137.86667 291.05093 137.86667 292.70776Z" fill-rule="nonzero"/><path fill="#000000" fill-opacity="0.0" clip-path="url(#id_0)" d="M316.5 280.55133C316.5 282.2082 315.15686 283.55133 313.5 283.55133C311.84314 283.55133 310.5 282.2082 310.5 280.55133C310.5 278.89447 311.84314 277.55133 313.5 277.55133C315.15686 277.55133 316.5 278.89447 316.5 280.55133Z" fill-rule="nonzero"/><path fill="#000000" fill-opacity="0.0" clip-path="url(#id_0)" d="M495.13333 272.60287C495.13333 274.25974 493.7902 275.60287 492.13333 275.60287C490.47647 275.60287 489.13333 274.25974 489.13333 272.60287C489.13333 270.94604 490.47647 269.60287 492.13333 269.60287C493.7902 269.60287 495.13333 270.94604 495.13333 272.60287Z" fill-rule="nonzero"/><path fill="#000000" fill-opacity="0.0" clip-path="url(#id_0)" d="M137.86667 330.57977C137.86667 332.23663 136.52351 333.57977 134.86667 333.57977C133.20981 333.57977 131.86667 332.23663 131.86667 330.57977C131.86667 328.9229 133.20981 327.57977 134.86667 327.57977C136.52351 327.57977 137.86667 328.9229 137.86667 330.57977Z" fill-rule="nonzero"/><path fill="#000000" fill-opacity="0.0" clip-path="url(#id_0)" d="M316.5 330.1122C316.5 331.76907 315.15686 333.1122 313.5 333.1122C311.84314 333.1122 310.5 331.76907 310.5 330.1122C310.5 328.45535 311.84314 327.1122 313.5 327.1122C315.15686 327.1122 316.5 328.45535 316.5 330.1122Z" fill-rule="nonzero"/><path fill="#000000" fill-opacity="0.0" clip-path="url(#id_0)" d="M495.13333 328.70956C495.13333 330.36642 493.7902 331.70956 492.13333 331.70956C490.47647 331.70956 489.13333 330.36642 489.13333 328.70956C489.13333 327.0527 490.47647 325.70956 492.13333 325.70956C493.7902 325.70956 495.13333 327.0527 495.13333 328.70956Z" fill-rule="nonzero"/><path fill="#000000" fill-opacity="0.0" clip-path="url(#id_0)" d="M137.86667 142.15489C137.86667 143.81174 136.52351 145.15489 134.86667 145.15489C133.20981 145.15489 131.86667 143.81174 131.86667 142.15489C131.86667 140.49803 133.20981 139.15489 134.86667 139.15489C136.52351 139.15489 137.86667 140.49803 137.86667 142.15489Z" fill-rule="nonzero"/><path fill="#000000" fill-opacity="0.0" clip-path="url(#id_0)" d="M316.5 254.36823C316.5 256.0251 315.15686 257.36823 313.5 257.36823C311.84314 257.36823 310.5 256.0251 310.5 254.36823C310.5 252.71136 311.84314 251.36823 313.5 251.36823C315.15686 251.36823 316.5 252.71136 316.5 254.36823Z" fill-rule="nonzero"/><path fill="#000000" fill-opacity="0.0" clip-path="url(#id_0)" d="M495.13333 93.52911C495.13333 95.18597 493.7902 96.52911 492.13333 96.52911C490.47647 96.52911 489.13333 95.18597 489.13333 93.52911C489.13333 91.87225 490.47647 90.52911 492.13333 90.52911C493.7902 90.52911 495.13333 91.87225 495.13333 93.52911Z" fill-rule="nonzero"/><path fill="#000000" d="M33.05 332.21564Q33.05 330.6844 33.3625 329.7625Q33.675 328.825 34.284374 328.325Q34.909374 327.825 35.846874 327.825Q36.534374 327.825 37.05 328.10626Q37.58125 328.3875 37.925 328.91876Q38.26875 329.4344 38.45625 330.1844Q38.64375 330.9344 38.64375 332.21564Q38.64375 333.73126 38.33125 334.65314Q38.034374 335.575 37.409374 336.09064Q36.8 336.59064 35.846874 336.59064Q34.6125 336.59064 33.89375 335.7Q33.05 334.6375 33.05 332.21564ZM34.128124 332.21564Q34.128124 334.325 34.628124 335.02814Q35.128124 335.73126 35.846874 335.73126Q36.58125 335.73126 37.065624 335.02814Q37.565624 334.325 37.565624 332.21564Q37.565624 330.09064 37.065624 329.40314Q36.58125 328.7 35.83125 328.7Q35.1125 328.7 34.675 329.3094Q34.128124 330.09064 34.128124 332.21564Z" fill-rule="nonzero"/><path fill="#000000" d="M24.596874 241.92326L24.596874 242.93889L18.909374 242.93889Q18.909374 242.56389 19.034374 242.20451Q19.253124 241.62639 19.721874 241.06389Q20.20625 240.50139 21.1125 239.76701Q22.51875 238.61076 23.003124 237.93889Q23.503124 237.26701 23.503124 236.67326Q23.503124 236.04826 23.05 235.62639Q22.596874 235.18889 21.878124 235.18889Q21.1125 235.18889 20.659374 235.64201Q20.20625 236.09514 20.190624 236.90764L19.1125 236.79826Q19.221874 235.57951 19.940624 234.95451Q20.675 234.31389 21.909374 234.31389Q23.14375 234.31389 23.8625 235.00139Q24.58125 235.68889 24.58125 236.70451Q24.58125 237.22014 24.3625 237.72014Q24.159374 238.20451 23.659374 238.76701Q23.175 239.31389 22.05 240.26701Q21.096874 241.06389 20.815624 241.36076Q20.55 241.64201 20.378124 241.92326L24.596874 241.92326ZM26.05 238.70451Q26.05 237.17326 26.3625 236.25139Q26.675 235.31389 27.284374 234.81389Q27.909374 234.31389 28.846874 234.31389Q29.534374 234.31389 30.05 234.59514Q30.58125 234.87639 30.925 235.40764Q31.26875 235.92326 31.45625 236.67326Q31.64375 237.42326 31.64375 238.70451Q31.64375 240.22014 31.33125 241.14201Q31.034374 242.06389 30.409374 242.57951Q29.8 243.07951 28.846874 243.07951Q27.6125 243.07951 26.89375 242.18889Q26.05 241.12639 26.05 238.70451ZM27.128124 238.70451Q27.128124 240.81389 27.628124 241.51701Q28.128124 242.22014 28.846874 242.22014Q29.58125 242.22014 30.065624 241.51701Q30.565624 240.81389 30.565624 238.70451Q30.565624 236.57951 30.065624 235.89201Q29.58125 235.18889 28.83125 235.18889Q28.1125 235.18889 27.675 235.79826Q27.128124 236.57951 27.128124 238.70451ZM33.05 238.70451Q33.05 237.17326 33.3625 236.25139Q33.675 235.31389 34.284374 234.81389Q34.909374 234.31389 35.846874 234.31389Q36.534374 234.31389 37.05 234.59514Q37.58125 234.87639 37.925 235.40764Q38.26875 235.92326 38.45625 236.67326Q38.64375 237.42326 38.64375 238.70451Q38.64375 240.22014 38.33125 241.14201Q38.034374 242.06389 37.409374 242.57951Q36.8 243.07951 35.846874 243.07951Q34.6125 243.07951 33.89375 242.18889Q33.05 241.12639 33.05 238.70451ZM34.128124 238.70451Q34.128124 240.81389 34.628124 241.51701Q35.128124 242.22014 35.846874 242.22014Q36.58125 242.22014 37.065624 241.51701Q37.565624 240.81389 37.565624 238.70451Q37.565624 236.57951 37.065624 235.89201Q36.58125 235.18889 35.83125 235.18889Q35.1125 235.18889 34.675 235.79826Q34.128124 236.57951 34.128124 238.70451Z" fill-rule="nonzero"/><path fill="#000000" d="M22.425 149.42778L22.425 147.36528L18.70625 147.36528L18.70625 146.39653L22.628124 140.83403L23.4875 140.83403L23.4875 146.39653L24.64375 146.39653L24.64375 147.36528L23.4875 147.36528L23.4875 149.42778L22.425 149.42778ZM22.425 146.39653L22.425 142.53716L19.7375 146.39653L22.425 146.39653ZM26.05 145.1934Q26.05 143.66216 26.3625 142.74028Q26.675 141.80278 27.284374 141.30278Q27.909374 140.80278 28.846874 140.80278Q29.534374 140.80278 30.05 141.08403Q30.58125 141.36528 30.925 141.89653Q31.26875 142.41216 31.45625 143.16216Q31.64375 143.91216 31.64375 145.1934Q31.64375 146.70903 31.33125 147.6309Q31.034374 148.55278 30.409374 149.0684Q29.8 149.5684 28.846874 149.5684Q27.6125 149.5684 26.89375 148.67778Q26.05 147.61528 26.05 145.1934ZM27.128124 145.1934Q27.128124 147.30278 27.628124 148.0059Q28.128124 148.70903 28.846874 148.70903Q29.58125 148.70903 30.065624 148.0059Q30.565624 147.30278 30.565624 145.1934Q30.565624 143.0684 30.065624 142.3809Q29.58125 141.67778 28.83125 141.67778Q28.1125 141.67778 27.675 142.28716Q27.128124 143.0684 27.128124 145.1934ZM33.05 145.1934Q33.05 143.66216 33.3625 142.74028Q33.675 141.80278 34.284374 141.30278Q34.909374 140.80278 35.846874 140.80278Q36.534374 140.80278 37.05 141.08403Q37.58125 141.36528 37.925 141.89653Q38.26875 142.41216 38.45625 143.16216Q38.64375 143.91216 38.64375 145.1934Q38.64375 146.70903 38.33125 147.6309Q38.034374 148.55278 37.409374 149.0684Q36.8 149.5684 35.846874 149.5684Q34.6125 149.5684 33.89375 148.67778Q33.05 147.61528 33.05 145.1934ZM34.128124 145.1934Q34.128124 147.30278 34.628124 148.0059Q35.128124 148.70903 35.846874 148.70903Q36.58125 148.70903 37.065624 148.0059Q37.565624 147.30278 37.565624 145.1934Q37.565624 143.0684 37.065624 142.3809Q36.58125 141.67778 35.83125 141.67778Q35.1125 141.67778 34.675 142.28716Q34.128124 143.0684 34.128124 145.1934Z" fill-rule="nonzero"/><path fill="#000000" d="M24.51875 49.432293L23.471874 49.510418Q23.33125 48.885418 23.08125 48.604168Q22.64375 48.151043 22.01875 48.151043Q21.51875 48.151043 21.128124 48.432293Q20.64375 48.807293 20.346874 49.510418Q20.065624 50.197918 20.05 51.479168Q20.425 50.901043 20.971874 50.619793Q21.534374 50.338543 22.14375 50.338543Q23.190624 50.338543 23.925 51.119793Q24.675 51.901043 24.675 53.119793Q24.675 53.932293 24.315624 54.635418Q23.971874 55.322918 23.3625 55.697918Q22.753124 56.057293 21.9875 56.057293Q20.659374 56.057293 19.83125 55.088543Q19.003124 54.119793 19.003124 51.901043Q19.003124 49.401043 19.925 48.276043Q20.721874 47.291668 22.08125 47.291668Q23.096874 47.291668 23.7375 47.869793Q24.39375 48.432293 24.51875 49.432293ZM20.221874 53.135418Q20.221874 53.682293 20.440624 54.182293Q20.675 54.666668 21.08125 54.932293Q21.503124 55.197918 21.971874 55.197918Q22.628124 55.197918 23.1125 54.666668Q23.596874 54.119793 23.596874 53.197918Q23.596874 52.307293 23.1125 51.791668Q22.64375 51.276043 21.925 51.276043Q21.20625 51.276043 20.70625 51.791668Q20.221874 52.307293 20.221874 53.135418ZM26.05 51.682293Q26.05 50.151043 26.3625 49.229168Q26.675 48.291668 27.284374 47.791668Q27.909374 47.291668 28.846874 47.291668Q29.534374 47.291668 30.05 47.572918Q30.58125 47.854168 30.925 48.385418Q31.26875 48.901043 31.45625 49.651043Q31.64375 50.401043 31.64375 51.682293Q31.64375 53.197918 31.33125 54.119793Q31.034374 55.041668 30.409374 55.557293Q29.8 56.057293 28.846874 56.057293Q27.6125 56.057293 26.89375 55.166668Q26.05 54.104168 26.05 51.682293ZM27.128124 51.682293Q27.128124 53.791668 27.628124 54.494793Q28.128124 55.197918 28.846874 55.197918Q29.58125 55.197918 30.065624 54.494793Q30.565624 53.791668 30.565624 51.682293Q30.565624 49.557293 30.065624 48.869793Q29.58125 48.166668 28.83125 48.166668Q28.1125 48.166668 27.675 48.776043Q27.128124 49.557293 27.128124 51.682293ZM33.05 51.682293Q33.05 50.151043 33.3625 49.229168Q33.675 48.291668 34.284374 47.791668Q34.909374 47.291668 35.846874 47.291668Q36.534374 47.291668 37.05 47.572918Q37.58125 47.854168 37.925 48.385418Q38.26875 48.901043 38.45625 49.651043Q38.64375 50.401043 38.64375 51.682293Q38.64375 53.197918 38.33125 54.119793Q38.034374 55.041668 37.409374 55.557293Q36.8 56.057293 35.846874 56.057293Q34.6125 56.057293 33.89375 55.166668Q33.05 54.104168 33.05 51.682293ZM34.128124 51.682293Q34.128124 53.791668 34.628124 54.494793Q35.128124 55.197918 35.846874 55.197918Q36.58125 55.197918 37.065624 54.494793Q37.565624 53.791668 37.565624 51.682293Q37.565624 49.557293 37.065624 48.869793Q36.58125 48.166668 35.83125 48.166668Q35.1125 48.166668 34.675 48.776043Q34.128124 49.557293 34.128124 51.682293Z" fill-rule="nonzero"/><path fill="#000000" d="M126.91354 348.4344L126.91354 349.45L121.22604 349.45Q121.22604 349.075 121.35104 348.71564Q121.56979 348.1375 122.03854 347.575Q122.52292 347.0125 123.42917 346.27814Q124.83542 345.1219 125.31979 344.45Q125.81979 343.77814 125.81979 343.1844Q125.81979 342.5594 125.36667 342.1375Q124.91354 341.7 124.19479 341.7Q123.42917 341.7 122.97604 342.15314Q122.52292 342.60626 122.50729 343.41876L121.42917 343.3094Q121.53854 342.09064 122.25729 341.46564Q122.99167 340.825 124.22604 340.825Q125.46042 340.825 126.17917 341.5125Q126.89792 342.2 126.89792 343.21564Q126.89792 343.73126 126.67917 344.23126Q126.47604 344.71564 125.97604 345.27814Q125.49167 345.825 124.36667 346.77814Q123.41354 347.575 123.13229 347.8719Q122.86667 348.15314 122.69479 348.4344L126.91354 348.4344ZM128.36667 345.21564Q128.36667 343.6844 128.67917 342.7625Q128.99167 341.825 129.60104 341.325Q130.22604 340.825 131.16354 340.825Q131.85104 340.825 132.36667 341.10626Q132.89792 341.3875 133.24167 341.91876Q133.58542 342.4344 133.77292 343.1844Q133.96042 343.9344 133.96042 345.21564Q133.96042 346.73126 133.64792 347.65314Q133.35104 348.575 132.72604 349.09064Q132.11667 349.59064 131.16354 349.59064Q129.92917 349.59064 129.21042 348.7Q128.36667 347.6375 128.36667 345.21564ZM129.4448 345.21564Q129.4448 347.325 129.9448 348.02814Q130.4448 348.73126 131.16354 348.73126Q131.89792 348.73126 132.3823 348.02814Q132.8823 347.325 132.8823 345.21564Q132.8823 343.09064 132.3823 342.40314Q131.89792 341.7 131.14792 341.7Q130.42917 341.7 129.99167 342.3094Q129.4448 343.09064 129.4448 345.21564ZM139.33542 349.45L138.28854 349.45L138.28854 342.73126Q137.89792 343.09064 137.27292 343.46564Q136.66354 343.825 136.17917 343.9969L136.17917 342.98126Q137.05417 342.5594 137.71042 341.98126Q138.3823 341.3875 138.66354 340.825L139.33542 340.825L139.33542 349.45ZM147.91354 348.4344L147.91354 349.45L142.22604 349.45Q142.22604 349.075 142.35104 348.71564Q142.5698 348.1375 143.03854 347.575Q143.52292 347.0125 144.42917 346.27814Q145.83542 345.1219 146.3198 344.45Q146.8198 343.77814 146.8198 343.1844Q146.8198 342.5594 146.36667 342.1375Q145.91354 341.7 145.1948 341.7Q144.42917 341.7 143.97604 342.15314Q143.52292 342.60626 143.5073 343.41876L142.42917 343.3094Q142.53854 342.09064 143.2573 341.46564Q143.99167 340.825 145.22604 340.825Q146.46042 340.825 147.17917 341.5125Q147.89792 342.2 147.89792 343.21564Q147.89792 343.73126 147.67917 344.23126Q147.47604 344.71564 146.97604 345.27814Q146.49167 345.825 145.36667 346.77814Q144.41354 347.575 144.1323 347.8719Q143.86667 348.15314 143.6948 348.4344L147.91354 348.4344Z" fill-rule="nonzero"/><path fill="#000000" d="M305.54688 348.4344L305.54688 349.45L299.85938 349.45Q299.85938 349.075 299.98438 348.71564Q300.20312 348.1375 300.67188 347.575Q301.15625 347.0125 302.0625 346.27814Q303.46875 345.1219 303.95312 344.45Q304.45312 343.77814 304.45312 343.1844Q304.45312 342.5594 304.0 342.1375Q303.54688 341.7 302.82812 341.7Q302.0625 341.7 301.60938 342.15314Q301.15625 342.60626 301.14062 343.41876L300.0625 343.3094Q300.17188 342.09064 300.89062 341.46564Q301.625 340.825 302.85938 340.825Q304.09375 340.825 304.8125 341.5125Q305.53125 342.2 305.53125 343.21564Q305.53125 343.73126 305.3125 344.23126Q305.10938 344.71564 304.60938 345.27814Q304.125 345.825 303.0 346.77814Q302.04688 347.575 301.76562 347.8719Q301.5 348.15314 301.32812 348.4344L305.54688 348.4344ZM307.0 345.21564Q307.0 343.6844 307.3125 342.7625Q307.625 341.825 308.23438 341.325Q308.85938 340.825 309.79688 340.825Q310.48438 340.825 311.0 341.10626Q311.53125 341.3875 311.875 341.91876Q312.21875 342.4344 312.40625 343.1844Q312.59375 343.9344 312.59375 345.21564Q312.59375 346.73126 312.28125 347.65314Q311.98438 348.575 311.35938 349.09064Q310.75 349.59064 309.79688 349.59064Q308.5625 349.59064 307.84375 348.7Q307.0 347.6375 307.0 345.21564ZM308.07812 345.21564Q308.07812 347.325 308.57812 348.02814Q309.07812 348.73126 309.79688 348.73126Q310.53125 348.73126 311.01562 348.02814Q311.51562 347.325 311.51562 345.21564Q311.51562 343.09064 311.01562 342.40314Q310.53125 341.7 309.78125 341.7Q309.0625 341.7 308.625 342.3094Q308.07812 343.09064 308.07812 345.21564ZM317.96875 349.45L316.92188 349.45L316.92188 342.73126Q316.53125 343.09064 315.90625 343.46564Q315.29688 343.825 314.8125 343.9969L314.8125 342.98126Q315.6875 342.5594 316.34375 341.98126Q317.01562 341.3875 317.29688 340.825L317.96875 340.825L317.96875 349.45ZM321.0625 341.98126L321.0625 340.96564L326.625 340.96564L326.625 341.79376Q325.8125 342.66876 325.0 344.1219Q324.20312 345.5594 323.76562 347.09064Q323.4375 348.16876 323.35938 349.45L322.26562 349.45Q322.28125 348.4344 322.65625 346.9969Q323.04688 345.5594 323.75 344.23126Q324.46875 342.90314 325.28125 341.98126L321.0625 341.98126Z" fill-rule="nonzero"/><path fill="#000000" d="M484.1802 348.4344L484.1802 349.45L478.4927 349.45Q478.4927 349.075 478.6177 348.71564Q478.83646 348.1375 479.3052 347.575Q479.78958 347.0125 480.69583 346.27814Q482.10208 345.1219 482.58646 344.45Q483.08646 343.77814 483.08646 343.1844Q483.08646 342.5594 482.63333 342.1375Q482.1802 341.7 481.46146 341.7Q480.69583 341.7 480.2427 342.15314Q479.78958 342.60626 479.77396 343.41876L478.69583 343.3094Q478.8052 342.09064 479.52396 341.46564Q480.25833 340.825 481.4927 340.825Q482.72708 340.825 483.44583 341.5125Q484.16458 342.2 484.16458 343.21564Q484.16458 343.73126 483.94583 344.23126Q483.7427 344.71564 483.2427 345.27814Q482.75833 345.825 481.63333 346.77814Q480.6802 347.575 480.39896 347.8719Q480.13333 348.15314 479.96146 348.4344L484.1802 348.4344ZM485.63333 345.21564Q485.63333 343.6844 485.94583 342.7625Q486.25833 341.825 486.8677 341.325Q487.4927 340.825 488.4302 340.825Q489.1177 340.825 489.63333 341.10626Q490.16458 341.3875 490.50833 341.91876Q490.85208 342.4344 491.03958 343.1844Q491.22708 343.9344 491.22708 345.21564Q491.22708 346.73126 490.91458 347.65314Q490.6177 348.575 489.9927 349.09064Q489.38333 349.59064 488.4302 349.59064Q487.19583 349.59064 486.47708 348.7Q485.63333 347.6375 485.63333 345.21564ZM486.71146 345.21564Q486.71146 347.325 487.21146 348.02814Q487.71146 348.73126 488.4302 348.73126Q489.16458 348.73126 489.64896 348.02814Q490.14896 347.325 490.14896 345.21564Q490.14896 343.09064 489.64896 342.40314Q489.16458 341.7 488.41458 341.7Q487.69583 341.7 487.25833 342.3094Q486.71146 343.09064 486.71146 345.21564ZM498.1802 348.4344L498.1802 349.45L492.4927 349.45Q492.4927 349.075 492.6177 348.71564Q492.83646 348.1375 493.3052 347.575Q493.78958 347.0125 494.69583 346.27814Q496.10208 345.1219 496.58646 344.45Q497.08646 343.77814 497.08646 343.1844Q497.08646 342.5594 496.63333 342.1375Q496.1802 341.7 495.46146 341.7Q494.69583 341.7 494.2427 342.15314Q493.78958 342.60626 493.77396 343.41876L492.69583 343.3094Q492.8052 342.09064 493.52396 341.46564Q494.25833 340.825 495.4927 340.825Q496.72708 340.825 497.44583 341.5125Q498.16458 342.2 498.16458 343.21564Q498.16458 343.73126 497.94583 344.23126Q497.7427 344.71564 497.2427 345.27814Q496.75833 345.825 495.63333 346.77814Q494.6802 347.575 494.39896 347.8719Q494.13333 348.15314 493.96146 348.4344L498.1802 348.4344ZM505.1802 348.4344L505.1802 349.45L499.4927 349.45Q499.4927 349.075 499.6177 348.71564Q499.83646 348.1375 500.3052 347.575Q500.78958 347.0125 501.69583 346.27814Q503.10208 345.1219 503.58646 344.45Q504.08646 343.77814 504.08646 343.1844Q504.08646 342.5594 503.63333 342.1375Q503.1802 341.7 502.46146 341.7Q501.69583 341.7 501.2427 342.15314Q500.78958 342.60626 500.77396 343.41876L499.69583 343.3094Q499.8052 342.09064 500.52396 341.46564Q501.25833 340.825 502.4927 340.825Q503.72708 340.825 504.44583 341.5125Q505.16458 342.2 505.16458 343.21564Q505.16458 343.73126 504.94583 344.23126Q504.7427 344.71564 504.2427 345.27814Q503.75833 345.825 502.63333 346.77814Q501.6802 347.575 501.39896 347.8719Q501.13333 348.15314 500.96146 348.4344L505.1802 348.4344Z" fill-rule="nonzero"/><path stroke="#4285f4" stroke-width="4.0" stroke-linecap="butt" d="M211.5 25.55L223.5 25.55" fill-rule="nonzero"/><path fill="#1a1a1a" d="M232.29688 22.175L232.29688 20.95625L233.35938 20.95625L233.35938 22.175L232.29688 22.175ZM232.29688 29.55L232.29688 23.33125L233.35938 23.33125L233.35938 29.55L232.29688 29.55ZM235.29688 29.55L235.29688 23.33125L236.23438 23.33125L236.23438 24.20625Q236.92188 23.190624 238.21875 23.190624Q238.78125 23.190624 239.25 23.39375Q239.73438 23.596874 239.96875 23.925Q240.20312 24.253124 240.29688 24.690624Q240.34375 24.9875 240.34375 25.721874L240.34375 29.55L239.29688 29.55L239.29688 25.76875Q239.29688 25.1125 239.17188 24.8Q239.04688 24.4875 238.73438 24.3Q238.42188 24.096874 238.0 24.096874Q237.32812 24.096874 236.82812 24.534374Q236.34375 24.95625 236.34375 26.14375L236.34375 29.55L235.29688 29.55Z" fill-rule="nonzero"/><path stroke="#ea4335" stroke-width="4.0" stroke-linecap="butt" d="M257.5 25.55L269.5 25.55" fill-rule="nonzero"/><path fill="#1a1a1a" d="M282.375 29.55L282.375 28.628124Q281.64062 29.690624 280.39062 29.690624Q279.84375 29.690624 279.35938 29.4875Q278.89062 29.26875 278.65625 28.95625Q278.42188 28.628124 278.32812 28.159374Q278.26562 27.8625 278.26562 27.175L278.26562 23.33125L279.32812 23.33125L279.32812 26.784374Q279.32812 27.596874 279.39062 27.89375Q279.48438 28.3 279.79688 28.55Q280.125 28.784374 280.60938 28.784374Q281.07812 28.784374 281.48438 28.55Q281.90625 28.3 282.07812 27.878124Q282.26562 27.45625 282.26562 26.659374L282.26562 23.33125L283.3125 23.33125L283.3125 29.55L282.375 29.55ZM285.29688 29.55L285.29688 23.33125L286.23438 23.33125L286.23438 24.20625Q286.92188 23.190624 288.21875 23.190624Q288.78125 23.190624 289.25 23.39375Q289.73438 23.596874 289.96875 23.925Q290.20312 24.253124 290.29688 24.690624Q290.34375 24.9875 290.34375 25.721874L290.34375 29.55L289.29688 29.55L289.29688 25.76875Q289.29688 25.1125 289.17188 24.8Q289.04688 24.4875 288.73438 24.3Q288.42188 24.096874 288.0 24.096874Q287.32812 24.096874 286.82812 24.534374Q286.34375 24.95625 286.34375 26.14375L286.34375 29.55L285.29688 29.55ZM296.32812 29.55L296.32812 28.76875Q295.73438 29.690624 294.59375 29.690624Q293.84375 29.690624 293.21875 29.284374Q292.59375 28.8625 292.25 28.128124Q291.90625 27.39375 291.90625 26.440624Q291.90625 25.51875 292.21875 24.753124Q292.53125 23.9875 293.15625 23.596874Q293.78125 23.190624 294.54688 23.190624Q295.10938 23.190624 295.54688 23.425Q295.98438 23.659374 296.26562 24.034374L296.26562 20.95625L297.3125 20.95625L297.3125 29.55L296.32812 29.55ZM293.0 26.440624Q293.0 27.64375 293.5 28.2375Q294.0 28.815624 294.6875 28.815624Q295.375 28.815624 295.85938 28.253124Q296.34375 27.690624 296.34375 26.534374Q296.34375 25.253124 295.84375 24.659374Q295.35938 24.065624 294.64062 24.065624Q293.9375 24.065624 293.46875 24.64375Q293.0 25.20625 293.0 26.440624ZM303.54688 27.55L304.64062 27.675Q304.39062 28.628124 303.6875 29.159374Q302.98438 29.690624 301.90625 29.690624Q300.54688 29.690624 299.73438 28.846874Q298.9375 28.003124 298.9375 26.4875Q298.9375 24.925 299.75 24.065624Q300.5625 23.190624 301.84375 23.190624Q303.09375 23.190624 303.875 24.034374Q304.67188 24.878124 304.67188 26.425Q304.67188 26.51875 304.67188 26.70625L300.03125 26.70625Q300.09375 27.7375 300.60938 28.284374Q301.125 28.815624 301.90625 28.815624Q302.48438 28.815624 302.89062 28.51875Q303.3125 28.20625 303.54688 27.55ZM300.09375 25.846874L303.5625 25.846874Q303.5 25.05 303.17188 24.659374Q302.65625 24.05 301.85938 24.05Q301.125 24.05 300.625 24.534374Q300.14062 25.01875 300.09375 25.846874ZM310.35938 27.26875L311.39062 27.409374Q311.21875 28.471874 310.51562 29.08125Q309.8125 29.690624 308.79688 29.690624Q307.51562 29.690624 306.73438 28.8625Q305.96875 28.01875 305.96875 26.45625Q305.96875 25.45625 306.29688 24.70625Q306.64062 23.940624 307.3125 23.565624Q308.0 23.190624 308.8125 23.190624Q309.8125 23.190624 310.45312 23.70625Q311.10938 24.20625 311.29688 25.159374L310.26562 25.315624Q310.125 24.690624 309.75 24.378124Q309.375 24.05 308.84375 24.05Q308.04688 24.05 307.54688 24.628124Q307.04688 25.190624 307.04688 26.425Q307.04688 27.690624 307.53125 28.253124Q308.01562 28.815624 308.78125 28.815624Q309.40625 28.815624 309.8125 28.440624Q310.23438 28.065624 310.35938 27.26875ZM312.29688 22.175L312.29688 20.95625L313.35938 20.95625L313.35938 22.175L312.29688 22.175ZM312.29688 29.55L312.29688 23.33125L313.35938 23.33125L313.35938 29.55L312.29688 29.55ZM319.32812 29.55L319.32812 28.76875Q318.73438 29.690624 317.59375 29.690624Q316.84375 29.690624 316.21875 29.284374Q315.59375 28.8625 315.25 28.128124Q314.90625 27.39375 314.90625 26.440624Q314.90625 25.51875 315.21875 24.753124Q315.53125 23.9875 316.15625 23.596874Q316.78125 23.190624 317.54688 23.190624Q318.10938 23.190624 318.54688 23.425Q318.98438 23.659374 319.26562 24.034374L319.26562 20.95625L320.3125 20.95625L320.3125 29.55L319.32812 29.55ZM316.0 26.440624Q316.0 27.64375 316.5 28.2375Q317.0 28.815624 317.6875 28.815624Q318.375 28.815624 318.85938 28.253124Q319.34375 27.690624 319.34375 26.534374Q319.34375 25.253124 318.84375 24.659374Q318.35938 24.065624 317.64062 24.065624Q316.9375 24.065624 316.46875 24.64375Q316.0 25.20625 316.0 26.440624ZM326.54688 27.55L327.64062 27.675Q327.39062 28.628124 326.6875 29.159374Q325.98438 29.690624 324.90625 29.690624Q323.54688 29.690624 322.73438 28.846874Q321.9375 28.003124 321.9375 26.4875Q321.9375 24.925 322.75 24.065624Q323.5625 23.190624 324.84375 23.190624Q326.09375 23.190624 326.875 24.034374Q327.67188 24.878124 327.67188 26.425Q327.67188 26.51875 327.67188 26.70625L323.03125 26.70625Q323.09375 27.7375 323.60938 28.284374Q324.125 28.815624 324.90625 28.815624Q325.48438 28.815624 325.89062 28.51875Q326.3125 28.20625 326.54688 27.55ZM323.09375 25.846874L326.5625 25.846874Q326.5 25.05 326.17188 24.659374Q325.65625 24.05 324.85938 24.05Q324.125 24.05 323.625 24.534374Q323.14062 25.01875 323.09375 25.846874ZM333.32812 29.55L333.32812 28.76875Q332.73438 29.690624 331.59375 29.690624Q330.84375 29.690624 330.21875 29.284374Q329.59375 28.8625 329.25 28.128124Q328.90625 27.39375 328.90625 26.440624Q328.90625 25.51875 329.21875 24.753124Q329.53125 23.9875 330.15625 23.596874Q330.78125 23.190624 331.54688 23.190624Q332.10938 23.190624 332.54688 23.425Q332.98438 23.659374 333.26562 24.034374L333.26562 20.95625L334.3125 20.95625L334.3125 29.55L333.32812 29.55ZM330.0 26.440624Q330.0 27.64375 330.5 28.2375Q331.0 28.815624 331.6875 28.815624Q332.375 28.815624 332.85938 28.253124Q333.34375 27.690624 333.34375 26.534374Q333.34375 25.253124 332.84375 24.659374Q332.35938 24.065624 331.64062 24.065624Q330.9375 24.065624 330.46875 24.64375Q330.0 25.20625 330.0 26.440624Z" fill-rule="nonzero"/><path stroke="#fbbc04" stroke-width="4.0" stroke-linecap="butt" d="M351.5 25.55L363.5 25.55" fill-rule="nonzero"/><path fill="#1a1a1a" d="M371.90625 26.440624Q371.90625 24.70625 372.85938 23.878124Q373.65625 23.190624 374.8125 23.190624Q376.09375 23.190624 376.90625 24.034374Q377.73438 24.8625 377.73438 26.346874Q377.73438 27.55 377.375 28.2375Q377.01562 28.925 376.3125 29.315624Q375.625 29.690624 374.8125 29.690624Q373.51562 29.690624 372.70312 28.8625Q371.90625 28.01875 371.90625 26.440624ZM372.98438 26.440624Q372.98438 27.628124 373.5 28.221874Q374.03125 28.815624 374.8125 28.815624Q375.60938 28.815624 376.125 28.221874Q376.64062 27.628124 376.64062 26.409374Q376.64062 25.253124 376.10938 24.659374Q375.59375 24.065624 374.8125 24.065624Q374.03125 24.065624 373.5 24.659374Q372.98438 25.2375 372.98438 26.440624ZM383.375 29.55L383.375 28.628124Q382.64062 29.690624 381.39062 29.690624Q380.84375 29.690624 380.35938 29.4875Q379.89062 29.26875 379.65625 28.95625Q379.42188 28.628124 379.32812 28.159374Q379.26562 27.8625 379.26562 27.175L379.26562 23.33125L380.32812 23.33125L380.32812 26.784374Q380.32812 27.596874 380.39062 27.89375Q380.48438 28.3 380.79688 28.55Q381.125 28.784374 381.60938 28.784374Q382.07812 28.784374 382.48438 28.55Q382.90625 28.3 383.07812 27.878124Q383.26562 27.45625 383.26562 26.659374L383.26562 23.33125L384.3125 23.33125L384.3125 29.55L383.375 29.55ZM388.59375 28.6125L388.75 29.534374Q388.29688 29.628124 387.95312 29.628124Q387.375 29.628124 387.0625 29.45625Q386.75 29.26875 386.60938 28.971874Q386.48438 28.675 386.48438 27.721874L386.48438 24.14375L385.71875 24.14375L385.71875 23.33125L386.48438 23.33125L386.48438 21.784374L387.53125 21.159374L387.53125 23.33125L388.59375 23.33125L388.59375 24.14375L387.53125 24.14375L387.53125 27.784374Q387.53125 28.2375 387.57812 28.3625Q387.64062 28.4875 387.76562 28.565624Q387.89062 28.64375 388.125 28.64375Q388.3125 28.64375 388.59375 28.6125Z" fill-rule="nonzero"/></svg>